SplineFontDB: 3.0
FontName: Nekotoba2
FullName: Nekotoba2
FamilyName: Nekotoba2
Weight: Medium
Copyright: Created by Kakurady Drakenar
UComments: "2011-2-6: Created." 
FontLog: "Added some kerning (the Pom is driving me cray cray)" 
Version: 0.003
ItalicAngle: 0
UnderlinePosition: -100
UnderlineWidth: 50
Ascent: 800
Descent: 224
LayerCount: 2
Layer: 0 0 "+gMxmbwAA"  1
Layer: 1 0 "+Uk1mbwAA"  0
XUID: [1021 714 1846167163 3381055]
FSType: 0
OS2Version: 0
OS2_WeightWidthSlopeOnly: 0
OS2_UseTypoMetrics: 1
CreationTime: 1297048171
ModificationTime: 1449758141
PfmFamily: 65
TTFWeight: 500
TTFWidth: 5
LineGap: 90
VLineGap: 0
Panose: 3 8 7 2 0 0 0 0 0 0
OS2TypoAscent: 0
OS2TypoAOffset: 1
OS2TypoDescent: 0
OS2TypoDOffset: 1
OS2TypoLinegap: 90
OS2WinAscent: 0
OS2WinAOffset: 1
OS2WinDescent: 0
OS2WinDOffset: 1
HheadAscent: 0
HheadAOffset: 1
HheadDescent: 0
HheadDOffset: 1
OS2Vendor: 'PfEd'
Lookup: 258 0 0 "'kern' +bDRec1OLfykA (+YslOAWWHTi0A) +Z+VifgAA 0"  {"'kern' +bDRec1OLfykA (+YslOAWWHTi0A) +Z+VifgAA 0-1"  "'kern' +bDRec1OLfykA (+YslOAWWHTi0A) +Z+VifgAA 0-2" [170,15,0] } ['kern' ('DFLT' <'dflt' > 'latn' <'dflt' > ) ]
MarkAttachClasses: 1
DEI: 91125
KernClass2: 16 7 "'kern' +bDRec1OLfykA (+YslOAWWHTi0A) +Z+VifgAA 0-2" 
 1 P
 1 F
 1 T
 1 V
 1 W
 1 Y
 1 f
 1 y
 5 slash
 9 universal
 8 integral
 1 N
 1 D
 69 zero one three four five seven nine a c e g m n o p q r s t u v w x z
 1 L
 12 comma period
 30 zero four nine a c d e g o q z
 11 m n p r s x
 7 t u v w
 11 slash A M X
 1 T

StartChar: question
Encoding: 63 63 0
Width: 356
VWidth: 0
Flags: HMW
LayerCount: 2
Fore
SplineSet
20 484 m 1
 36 528 70 544 113 554 c 1
 122 555 131 555 139 555 c 0
 179 555 213 543 249 519 c 1
 278 494 296 460 296 422 c 0
 296 417 296 412 295 406 c 0
 294 397 291 389 289 380 c 0
 273 331 239 292 201 258 c 1
 187 243 166 234 152 218 c 1
 159 210 163 199 167 190 c 0
 172 178 173 167 173 154 c 0
 173 150 173 145 173 141 c 0
 172 133 157 130 139 130 c 0
 112 130 80 137 80 149 c 0
 80 151 82 151 81 154 c 0
 76 169 63 180 60 196 c 0
 58 204 58 212 58 220 c 0
 58 240 64 259 78 276 c 0
 96 296 119 311 140 327 c 1
 165 348 188 371 200 402 c 0
 202 409 204 416 204 423 c 0
 204 430 202 437 196 444 c 1
 180 457 160 464 139 464 c 0
 137 464 134 463 132 463 c 0
 125 462 117 461 110 459 c 1
 109 454 102 452 93 452 c 0
 67 452 20 468 20 482 c 0
 20 483 20 483 20 484 c 1
156 69 m 0
 168 52 182 36 194 20 c 0
 195 19 195 18 195 16 c 0
 195 -1 147 -38 127 -38 c 0
 124 -38 121 -37 120 -35 c 0
 107 -18 94 -2 81 14 c 0
 80 15 79 16 79 18 c 0
 79 35 129 72 149 72 c 0
 152 72 155 71 156 69 c 0
EndSplineSet
Validated: 1
EndChar

StartChar: A
Encoding: 65 65 1
Width: 642
VWidth: 0
Flags: HMW
LayerCount: 2
Fore
SplineSet
353 555 m 1
 323 501 294 446 267 390 c 0
 254 365 242 339 229 314 c 1
 246 314 264 314 282 314 c 0
 291 314 299 314 308 314 c 0
 344 313 381 310 417 306 c 1
 415 313 413 320 411 327 c 0
 392 397 374 468 357 539 c 0
 356 544 354 550 353 555 c 1
517 -33 m 0
 508 12 491 55 478 99 c 1
 466 136 455 172 444 209 c 1
 443 209 l 1
 398 219 352 222 306 223 c 0
 294 223 281 223 269 223 c 0
 240 223 212 222 183 222 c 1
 172 200 160 178 148 156 c 0
 127 114 105 72 88 28 c 0
 87 24 82 23 75 23 c 0
 50 23 0 43 -0 58 c 0
 0 59 0 59 0 60 c 0
 20 107 44 152 68 197 c 0
 109 274 148 351 187 429 c 0
 217 491 248 552 280 613 c 1
 294 636 307 673 335 684 c 0
 345 688 356 688 366 690 c 1
 377 686 388 684 398 677 c 0
 427 657 437 593 445 561 c 0
 461 490 479 420 497 350 c 0
 516 275 539 200 563 126 c 0
 578 79 596 34 607 -14 c 0
 609 -22 609 -28 609 -34 c 0
 609 -48 605 -58 598 -76 c 0
 597 -78 593 -79 589 -79 c 4
 568 -79 520 -50 517 -33 c 0
EndSplineSet
Validated: 1
EndChar

StartChar: B
Encoding: 66 66 2
Width: 556
VWidth: 0
Flags: HMW
LayerCount: 2
Fore
SplineSet
155 543 m 0
 135 543 114 541 96 530 c 1
 96 505 97 481 97 456 c 0
 97 435 97 413 97 392 c 0
 97 318 97 245 97 171 c 0
 97 127 97 82 101 38 c 1
 116 37 131 37 146 37 c 0
 177 37 207 39 237 44 c 1
 286 54 335 66 378 93 c 1
 396 106 418 120 423 144 c 1
 422 174 393 192 370 205 c 1
 330 224 289 236 245 243 c 0
 233 245 227 246 215 247 c 0
 212 247 208 248 205 248 c 0
 195 245 184 242 178 242 c 0
 175 242 173 243 173 244 c 0
 164 273 164 303 160 333 c 1
 171 338 182 340 194 341 c 0
 196 342 198 343 200 344 c 0
 230 355 261 366 287 385 c 0
 302 397 317 411 318 431 c 1
 314 461 294 483 270 501 c 1
 235 524 197 541 155 543 c 0
153 635 m 1
 214 633 268 610 319 578 c 1
 355 552 387 518 402 475 c 0
 405 467 406 459 408 451 c 0
 409 444 410 438 410 432 c 0
 410 383 386 350 348 316 c 0
 347 315 345 314 344 313 c 1
 366 306 388 298 409 288 c 1
 450 266 489 235 506 190 c 0
 509 181 511 171 513 162 c 0
 513 158 513 155 513 151 c 0
 513 90 479 54 431 19 c 1
 378 -16 317 -33 255 -45 c 0
 218 -52 180 -54 142 -54 c 0
 133 -54 125 -54 116 -54 c 1
 104 -70 64 -89 45 -89 c 0
 40 -89 37 -88 36 -85 c 0
 26 -64 19 -43 16 -20 c 0
 9 30 8 80 8 131 c 0
 8 144 8 159 8 172 c 0
 8 227 9 283 9 338 c 0
 9 377 9 415 8 454 c 0
 5 582 0 602 0 607 c 0
 0 619 34 627 61 627 c 0
 69 627 77 627 83 625 c 1
 106 632 129 634 153 635 c 1
EndSplineSet
Validated: 1
EndChar

StartChar: C
Encoding: 67 67 3
Width: 556
VWidth: 0
Flags: HMW
LayerCount: 2
Fore
SplineSet
369 574 m 1
 367 580 367 599 359 601 c 1
 357 596 346 596 341 595 c 0
 336 594 331 592 327 590 c 0
 273 566 230 524 190 482 c 1
 148 434 114 378 98 315 c 0
 95 303 93 290 91 278 c 1
 90 265 89 252 89 239 c 0
 89 197 97 155 122 119 c 0
 127 112 134 105 140 98 c 1
 186 55 246 44 306 38 c 0
 316 38 326 37 335 37 c 0
 381 37 427 43 472 55 c 1
 473 55 l 2
 486 55 501 10 501 -16 c 0
 501 -26 499 -33 494 -34 c 0
 443 -46 390 -53 337 -53 c 0
 324 -53 310 -53 297 -52 c 0
 210 -43 133 -23 70 42 c 1
 61 53 51 64 43 76 c 0
 12 125 0 181 0 238 c 0
 0 257 2 276 4 295 c 1
 7 311 9 327 13 342 c 0
 33 418 74 485 125 543 c 1
 175 596 229 649 298 678 c 1
 320 685 341 690 361 690 c 0
 386 690 409 682 431 661 c 1
 453 632 462 599 462 583 c 0
 462 571 428 563 401 563 c 0
 384 563 370 566 369 574 c 1
EndSplineSet
Validated: 1
EndChar

StartChar: D
Encoding: 68 68 4
Width: 661
VWidth: 0
Flags: HMW
LayerCount: 2
Fore
SplineSet
76 634 m 0
 106 666 149 678 191 686 c 0
 213 690 234 691 256 691 c 0
 297 691 337 685 378 675 c 1
 437 657 491 624 531 577 c 0
 539 568 546 558 553 548 c 0
 582 504 596 454 596 402 c 0
 596 392 596 381 595 370 c 0
 594 357 590 344 588 331 c 1
 570 260 532 196 481 144 c 0
 470 133 459 123 448 113 c 0
 379 53 299 21 211 -1 c 1
 211 -1 156 -11 131 -11 c 0
 120 -11 113 20 113 45 c 0
 113 63 116 78 124 79 c 0
 167 83 145 79 189 86 c 1
 261 103 330 131 387 179 c 1
 439 227 481 277 499 347 c 1
 503 367 505 386 505 405 c 0
 505 435 498 464 480 494 c 1
 449 538 409 571 356 587 c 1
 324 595 292 600 260 600 c 0
 243 600 226 599 209 596 c 0
 188 592 165 589 148 575 c 0
 147 573 145 572 142 572 c 0
 134 572 121 579 109 588 c 1
 106 542 104 495 102 449 c 0
 97 361 93 274 91 186 c 0
 91 172 91 159 91 145 c 0
 91 111 91 77 93 44 c 0
 93 37 93 37 93 36 c 0
 93 26 68 20 44 20 c 0
 22 20 0 25 0 34 c 0
 0 37 0 39 0 42 c 0
 0 54 0 64 0 76 c 0
 0 113 0 151 1 188 c 0
 4 276 9 365 13 453 c 0
 15 508 16 562 17 617 c 0
 17 626 37 631 58 631 c 0
 64 631 69 631 74 630 c 1
 74 632 75 633 76 634 c 0
EndSplineSet
Validated: 1
EndChar

StartChar: E
Encoding: 69 69 5
Width: 610
VWidth: 0
Flags: HMW
LayerCount: 2
Fore
SplineSet
430 713 m 0
 475 713 479 657 479 643 c 0
 479 632 464 627 456 619 c 1
 451 616 445 614 440 611 c 0
 436 609 429 612 423 619 c 0
 422 619 422 618 421 618 c 0
 420 618 420 619 419 619 c 0
 418 619 417 619 416 619 c 0
 407 618 397 617 390 616 c 0
 321 606 251 593 183 577 c 0
 142 567 100 560 61 542 c 1
 79 542 94 539 95 531 c 0
 99 460 100 390 101 319 c 0
 101 307 102 294 102 282 c 1
 139 296 177 306 215 316 c 0
 288 334 333 342 363 342 c 0
 374 342 380 316 380 291 c 0
 380 270 375 249 366 249 c 0
 322 249 279 237 237 228 c 1
 194 217 152 205 112 186 c 0
 109 185 106 186 103 188 c 1
 104 139 105 90 107 41 c 0
 108 31 108 19 109 9 c 1
 149 11 189 16 229 20 c 0
 300 27 371 32 443 32 c 0
 449 32 456 32 462 32 c 0
 499 32 537 28 573 22 c 0
 579 21 582 12 582 -1 c 0
 582 -28 571 -68 558 -68 c 2
 557 -68 l 1
 525 -62 493 -59 461 -58 c 0
 455 -58 449 -58 443 -58 c 0
 375 -58 307 -63 239 -70 c 0
 190 -75 141 -82 92 -85 c 0
 90 -85 89 -84 87 -82 c 1
 72 -93 56 -102 46 -102 c 0
 43 -102 40 -101 39 -99 c 0
 36 -93 32 -87 29 -80 c 0
 16 -48 22 3 18 37 c 1
 15 130 15 224 13 317 c 0
 7 522 2 502 2 522 c 0
 2 531 19 537 38 540 c 1
 22 552 0 590 0 608 c 0
 0 612 1 615 4 617 c 0
 54 641 109 653 163 665 c 0
 233 680 305 693 376 705 c 0
 396 708 414 713 430 713 c 0
EndSplineSet
Validated: 1
EndChar

StartChar: F
Encoding: 70 70 6
Width: 534
VWidth: 0
Flags: HMW
LayerCount: 2
Fore
SplineSet
96 4 m 2
 96 -12 45 -40 22 -40 c 0
 17 -40 13 -38 12 -35 c 0
 5 -18 2 -1 2 18 c 0
 1 46 0 75 0 103 c 0
 0 128 0 152 1 177 c 0
 3 258 7 338 8 419 c 0
 8 438 9 457 9 476 c 0
 9 497 9 517 7 538 c 1
 3 541 2 547 2 556 c 0
 2 583 16 628 30 628 c 0
 31 628 31 628 32 628 c 0
 72 618 112 616 153 613 c 0
 185 611 216 611 248 611 c 0
 288 611 327 611 367 612 c 0
 368 612 371 612 372 612 c 0
 398 612 424 614 450 614 c 0
 465 614 480 613 495 611 c 0
 502 610 505 599 505 584 c 0
 505 557 495 519 483 519 c 2
 482 519 l 1
 471 522 459 522 448 522 c 0
 437 522 426 522 415 522 c 0
 399 522 385 522 369 522 c 0
 324 522 277 521 232 521 c 0
 204 521 176 521 148 522 c 0
 132 523 115 524 99 525 c 1
 99 517 100 508 100 500 c 0
 100 472 99 446 98 418 c 0
 97 389 96 361 95 332 c 1
 137 337 179 341 221 345 c 0
 275 351 329 356 384 357 c 0
 387 357 390 357 393 357 c 0
 406 357 417 356 430 355 c 0
 437 354 441 341 441 324 c 0
 441 297 433 263 421 263 c 2
 420 263 l 1
 408 265 397 265 385 265 c 0
 334 265 282 261 230 255 c 0
 188 250 146 246 103 238 c 0
 100 238 96 241 93 246 c 1
 92 222 91 199 91 175 c 0
 91 158 90 141 90 124 c 0
 90 90 91 56 94 22 c 1
 93 22 94 13 96 7 c 1
 96 6 l 2
 96 4 l 2
EndSplineSet
Validated: 1
EndChar

StartChar: G
Encoding: 71 71 7
Width: 723
VWidth: 0
Flags: HMW
LayerCount: 2
Fore
SplineSet
396 710 m 2
 421 710 445 705 469 693 c 1
 498 676 523 655 537 624 c 0
 537 623 538 623 538 622 c 0
 538 607 487 582 463 582 c 0
 457 582 452 584 451 587 c 0
 446 599 435 606 424 612 c 0
 413 617 401 618 390 618 c 0
 372 618 353 614 335 609 c 1
 273 587 227 542 186 493 c 1
 133 424 107 354 92 269 c 0
 90 254 89 240 89 226 c 0
 89 179 100 134 122 90 c 1
 148 50 172 40 218 39 c 1
 291 45 356 79 419 113 c 0
 455 133 490 156 523 181 c 1
 524 196 525 211 525 226 c 0
 525 237 525 248 524 259 c 0
 524 261 523 263 523 265 c 0
 523 268 526 266 527 267 c 0
 532 270 505 276 511 272 c 1
 507 272 504 273 500 273 c 0
 459 273 418 268 378 261 c 0
 344 255 309 249 275 240 c 0
 274 240 275 240 274 240 c 0
 260 240 243 287 243 313 c 0
 243 322 244 329 249 330 c 0
 286 339 325 345 363 351 c 0
 412 359 461 365 511 365 c 1
 553 364 589 346 606 306 c 0
 609 298 611 290 613 282 c 0
 616 264 617 247 617 229 c 0
 617 195 613 162 609 128 c 0
 603 81 598 33 597 -14 c 0
 597 -17 597 -19 597 -22 c 0
 597 -48 599 -61 599 -65 c 0
 599 -76 570 -83 544 -83 c 0
 524 -83 507 -79 506 -71 c 0
 505 -58 505 -44 505 -31 c 0
 505 -24 506 -17 506 -10 c 0
 507 15 509 39 511 64 c 1
 495 54 479 44 462 35 c 0
 384 -7 303 -48 213 -52 c 1
 200 -51 188 -51 176 -49 c 0
 116 -39 70 -1 40 51 c 1
 35 62 29 72 25 83 c 0
 7 127 0 175 0 222 c 0
 0 243 1 264 4 285 c 0
 7 300 9 316 13 331 c 0
 32 411 69 486 118 551 c 1
 174 617 227 667 311 696 c 1
 339 704 366 710 394 710 c 2
 396 710 l 2
EndSplineSet
Validated: 1
EndChar

StartChar: H
Encoding: 72 72 8
Width: 548
VWidth: 0
Flags: HMW
LayerCount: 2
Fore
SplineSet
463 628 m 0
 476 628 485 625 486 619 c 0
 488 602 488 585 488 568 c 0
 488 524 484 481 481 438 c 0
 472 337 465 236 460 135 c 0
 459 112 458 90 458 67 c 0
 458 23 460 -20 462 -64 c 2
 463 -81 l 2
 463 -91 437 -96 413 -96 c 0
 391 -96 371 -92 371 -83 c 0
 371 -78 371 -73 371 -68 c 0
 370 -32 369 4 369 40 c 0
 369 73 369 107 371 140 c 0
 373 177 376 213 378 250 c 1
 377 250 375 250 374 250 c 2
 357 254 l 1
 314 262 270 267 227 267 c 0
 212 267 197 266 182 265 c 0
 151 263 120 261 89 257 c 1
 89 254 89 250 89 247 c 0
 89 219 89 192 90 164 c 0
 91 131 93 98 98 66 c 1
 98 65 l 2
 98 53 62 44 35 44 c 0
 20 44 7 47 6 54 c 0
 2 90 0 126 0 162 c 0
 0 176 0 191 0 205 c 0
 0 280 2 355 5 430 c 0
 7 481 9 533 9 584 c 0
 9 593 8 602 8 611 c 0
 8 621 32 626 55 626 c 0
 78 626 102 621 102 611 c 0
 100 549 97 489 94 427 c 0
 93 401 91 375 90 349 c 1
 119 352 148 353 177 355 c 0
 194 356 210 357 227 357 c 0
 276 357 325 352 373 344 c 0
 377 343 381 343 385 342 c 1
 387 376 390 410 392 444 c 0
 394 479 397 513 397 548 c 0
 397 566 396 584 394 602 c 1
 394 603 l 0
 394 616 436 628 463 628 c 0
EndSplineSet
Validated: 1
EndChar

StartChar: I
Encoding: 73 73 9
Width: 243
VWidth: 0
Flags: HMW
LayerCount: 2
Fore
SplineSet
148 615 m 0
 148 612 148 608 148 605 c 0
 148 557 144 510 140 462 c 1
 130 369 117 275 106 182 c 0
 98 112 92 42 91 -29 c 0
 91 -38 70 -43 49 -43 c 0
 25 -43 0 -37 0 -27 c 0
 2 47 9 120 18 193 c 0
 29 285 42 377 50 469 c 0
 53 504 55 540 55 575 c 0
 55 597 54 608 54 612 c 0
 54 622 80 628 105 628 c 0
 127 628 148 624 148 615 c 0
EndSplineSet
Validated: 1
EndChar

StartChar: J
Encoding: 74 74 10
Width: 359
VWidth: 0
Flags: HMW
LayerCount: 2
Fore
SplineSet
289 642 m 0
 303 596 307 548 310 500 c 0
 312 472 313 445 313 417 c 0
 313 363 310 308 305 254 c 0
 298 174 280 97 255 21 c 0
 235 -39 201 -92 156 -136 c 1
 123 -166 84 -186 44 -205 c 0
 43 -205 42 -205 41 -205 c 0
 26 -205 0 -155 0 -132 c 0
 0 -127 1 -122 4 -121 c 0
 35 -106 67 -92 93 -70 c 1
 128 -37 154 3 170 49 c 0
 193 118 209 189 216 262 c 0
 220 311 223 359 223 408 c 0
 223 436 222 465 220 493 c 0
 210 613 200 601 200 613 c 0
 200 628 250 648 275 648 c 0
 282 648 288 646 289 642 c 0
EndSplineSet
Validated: 1
EndChar

StartChar: K
Encoding: 75 75 11
Width: 528
VWidth: 0
Flags: HMW
LayerCount: 2
Fore
SplineSet
84 640 m 2
 86 640 l 2
 106 640 122 636 123 628 c 0
 124 610 124 591 124 573 c 0
 124 535 123 497 121 459 c 0
 119 420 116 382 113 343 c 1
 166 394 219 445 269 498 c 0
 298 529 327 561 349 597 c 0
 350 599 353 600 357 600 c 0
 379 600 430 568 430 552 c 0
 430 551 430 549 429 548 c 0
 402 507 368 472 334 437 c 0
 278 379 220 322 163 266 c 1
 155 255 138 242 125 229 c 1
 126 229 l 1
 131 226 135 222 140 219 c 0
 157 208 161 206 179 196 c 0
 232 168 287 142 340 115 c 0
 389 91 435 61 477 25 c 0
 496 9 511 -9 522 -31 c 0
 522 -32 522 -33 522 -34 c 0
 522 -49 471 -76 448 -76 c 0
 443 -76 438 -74 437 -71 c 0
 436 -60 422 -52 416 -44 c 1
 381 -12 341 13 299 34 c 0
 245 62 189 88 135 116 c 0
 124 122 109 130 95 138 c 1
 92 95 90 53 90 10 c 0
 90 -10 91 -29 92 -49 c 1
 92 -49 93 -69 96 -73 c 1
 91 -89 44 -116 23 -116 c 0
 18 -116 14 -115 13 -112 c 0
 6 -93 0 -77 0 -57 c 0
 0 -53 0 -49 0 -18 c 0
 0 44 4 106 9 168 c 0
 17 266 28 364 32 462 c 0
 33 486 33 511 33 535 c 0
 33 605 30 614 30 623 c 0
 30 634 58 640 84 640 c 2
EndSplineSet
Validated: 1
EndChar

StartChar: L
Encoding: 76 76 12
Width: 570
VWidth: 0
Flags: HMW
LayerCount: 2
Fore
SplineSet
75 635 m 2
 77 635 l 2
 97 635 113 630 114 622 c 0
 116 579 117 536 117 492 c 0
 117 490 117 489 117 487 c 0
 116 406 111 325 106 245 c 0
 103 183 100 121 96 59 c 0
 96 57 96 56 96 54 c 0
 96 43 94 31 93 20 c 1
 108 19 138 16 141 16 c 0
 170 13 199 11 228 11 c 0
 252 11 277 12 301 14 c 0
 354 19 406 27 459 35 c 0
 464 36 470 36 475 37 c 1
 476 37 l 2
 488 37 496 3 496 -24 c 0
 496 -40 493 -54 486 -55 c 2
 472 -56 l 1
 417 -63 363 -71 308 -76 c 0
 278 -78 249 -80 219 -80 c 0
 191 -80 164 -79 136 -76 c 1
 107 -74 64 -78 38 -63 c 0
 30 -59 24 -52 17 -46 c 1
 13 -39 8 -32 5 -24 c 0
 1 -14 0 -4 0 7 c 0
 0 27 4 47 4 66 c 1
 9 128 13 189 17 251 c 0
 22 326 27 401 27 477 c 0
 27 480 27 483 27 486 c 0
 25 591 21 604 21 617 c 0
 21 628 49 635 75 635 c 2
EndSplineSet
Validated: 1
EndChar

StartChar: M
Encoding: 77 77 13
Width: 880
VWidth: 0
Flags: HMW
LayerCount: 2
Fore
SplineSet
564 698 m 0
 587 698 606 678 622 652 c 1
 645 599 660 542 677 487 c 0
 701 410 731 334 762 259 c 0
 786 202 813 147 839 91 c 0
 849 70 866 27 866 21 c 0
 866 7 819 -10 793 -10 c 0
 784 -10 778 -9 777 -4 c 0
 772 16 764 34 756 53 c 0
 731 110 704 167 680 225 c 0
 648 302 617 379 591 459 c 0
 581 489 573 519 563 549 c 1
 556 531 549 513 543 494 c 0
 525 439 509 383 497 327 c 0
 491 302 478 220 456 206 c 0
 442 197 425 196 409 191 c 1
 399 196 388 201 379 208 c 0
 358 224 345 282 336 306 c 1
 315 376 297 447 280 518 c 0
 276 534 273 551 269 567 c 1
 258 536 248 505 238 474 c 0
 205 374 171 275 139 175 c 1
 122 117 103 60 93 0 c 1
 90 -5 94 -16 94 -18 c 0
 94 -31 53 -43 26 -43 c 0
 13 -43 3 -40 2 -34 c 0
 1 -26 0 -17 0 -9 c 0
 0 0 1 8 3 17 c 0
 16 80 36 142 55 203 c 1
 88 303 121 401 153 501 c 0
 172 561 189 622 215 679 c 0
 216 681 219 683 223 683 c 0
 230 683 240 679 250 674 c 1
 265 685 298 696 317 696 c 0
 325 696 331 694 332 690 c 0
 345 640 356 589 368 539 c 0
 381 481 396 423 413 366 c 1
 426 418 440 470 456 521 c 0
 467 557 481 593 494 628 c 0
 501 647 509 664 522 679 c 1
 537 692 551 698 564 698 c 0
EndSplineSet
Validated: 1
EndChar

StartChar: hyphen
Encoding: 45 45 14
Width: 430
VWidth: 0
Flags: HMW
LayerCount: 2
Fore
SplineSet
45 274 m 1
 84 269 124 269 163 269 c 0
 230 269 297 268 364 262 c 0
 372 261 375 246 375 229 c 0
 375 203 368 171 357 171 c 2
 356 171 l 1
 297 177 238 179 179 179 c 0
 173 179 168 179 162 179 c 0
 141 179 121 178 100 178 c 0
 76 178 53 179 29 181 c 0
 23 182 20 192 20 206 c 0
 20 233 31 274 44 274 c 2
 45 274 l 1
EndSplineSet
Validated: 1
EndChar

StartChar: underscore
Encoding: 95 95 15
Width: 708
VWidth: 0
Flags: HMW
LayerCount: 2
Fore
SplineSet
50 -38 m 0
 77 -46 104 -48 132 -49 c 0
 137 -49 141 -49 146 -49 c 0
 193 -49 241 -47 288 -45 c 0
 309 -44 330 -44 351 -44 c 0
 385 -44 419 -44 453 -46 c 0
 490 -48 527 -51 563 -55 c 0
 574 -56 583 -58 594 -58 c 0
 599 -58 605 -58 610 -57 c 0
 614 -57 624 -54 625 -54 c 2
 627 -54 l 2
 641 -54 654 -99 654 -126 c 0
 654 -137 651 -145 646 -146 c 0
 637 -148 628 -149 619 -150 c 0
 612 -151 604 -151 597 -151 c 0
 582 -151 567 -149 552 -147 c 0
 518 -143 484 -140 449 -138 c 0
 415 -136 381 -134 347 -134 c 0
 328 -134 310 -135 291 -136 c 0
 239 -138 187 -141 135 -141 c 0
 133 -141 131 -141 129 -141 c 0
 95 -140 60 -137 27 -128 c 0
 22 -127 20 -120 20 -110 c 0
 20 -83 35 -37 49 -37 c 0
 50 -37 49 -38 50 -38 c 0
EndSplineSet
Validated: 1
EndChar

StartChar: N
Encoding: 78 78 16
Width: 647
VWidth: 0
Flags: HMW
LayerCount: 2
Fore
SplineSet
603 673 m 0
 603 671 603 670 603 668 c 0
 603 664 603 660 603 657 c 0
 603 651 603 646 602 640 c 0
 599 604 595 566 590 530 c 0
 580 458 569 387 558 316 c 0
 546 238 534 159 517 81 c 0
 510 49 502 -5 478 -30 c 0
 471 -37 461 -42 453 -48 c 1
 443 -49 434 -51 424 -51 c 0
 422 -51 420 -51 418 -51 c 0
 379 -46 361 3 345 32 c 1
 312 101 284 171 252 240 c 1
 219 308 184 375 144 439 c 1
 142 423 140 407 138 391 c 0
 125 292 110 192 99 93 c 1
 97 51 91 9 91 -34 c 0
 91 -47 92 -59 93 -72 c 1
 94 -72 l 1
 94 -73 l 0
 94 -87 49 -101 22 -101 c 0
 12 -101 4 -99 3 -94 c 0
 2 -89 1 -83 0 -78 c 1
 0 -71 0 -64 0 -57 c 0
 0 -3 6 50 11 103 c 1
 23 203 38 302 50 401 c 0
 56 455 62 508 62 562 c 0
 62 564 62 566 62 568 c 0
 62 576 79 581 98 582 c 1
 114 594 134 605 145 605 c 0
 148 605 151 604 152 602 c 0
 172 569 192 535 212 501 c 0
 256 429 295 355 332 279 c 1
 363 213 391 146 423 80 c 1
 425 88 426 94 428 102 c 0
 445 177 458 254 470 330 c 0
 481 401 491 472 500 543 c 0
 505 578 507 612 509 647 c 0
 510 651 509 673 510 654 c 1
 511 667 555 681 582 681 c 0
 593 681 602 679 603 673 c 0
EndSplineSet
Validated: 1
EndChar

StartChar: O
Encoding: 79 79 17
Width: 728
VWidth: 0
Flags: HMW
LayerCount: 2
Fore
SplineSet
286 533 m 0
 285 533 285 533 284 533 c 0
 273 533 263 526 254 521 c 0
 206 492 171 447 141 401 c 1
 89 309 89 244 89 227 c 0
 89 217 90 206 91 196 c 0
 98 152 118 111 157 87 c 0
 164 83 172 80 179 76 c 1
 201 68 224 65 246 65 c 0
 287 65 329 76 369 90 c 1
 441 120 491 163 537 225 c 1
 567 271 581 314 581 365 c 0
 581 373 581 382 580 390 c 0
 573 438 545 474 510 505 c 1
 477 532 439 547 398 556 c 0
 390 558 383 558 376 558 c 0
 368 558 361 558 353 557 c 1
 352 557 l 2
 341 557 334 588 334 614 c 0
 334 632 337 648 345 649 c 0
 355 650 366 650 376 650 c 0
 390 650 405 649 419 646 c 0
 475 633 528 610 572 572 c 1
 627 521 660 471 670 395 c 0
 671 383 672 372 672 360 c 0
 672 290 644 224 609 171 c 1
 600 160 592 148 583 137 c 0
 533 79 468 35 398 6 c 1
 383 1 369 -5 354 -9 c 0
 319 -19 283 -25 248 -25 c 0
 210 -25 173 -19 137 -4 c 1
 125 3 112 9 101 17 c 0
 42 58 11 122 2 192 c 1
 2 205 0 218 0 231 c 0
 0 233 0 234 0 236 c 0
 2 312 29 385 66 450 c 1
 105 509 149 565 211 602 c 1
 236 615 262 625 288 625 c 0
 301 625 315 623 328 617 c 0
 331 615 332 611 332 606 c 0
 332 583 305 532 289 532 c 0
 288 532 287 533 286 533 c 0
EndSplineSet
Validated: 1
EndChar

StartChar: P
Encoding: 80 80 18
Width: 562
VWidth: 0
Flags: HMW
LayerCount: 2
Fore
SplineSet
152 677 m 1
 221 677 288 665 353 644 c 1
 407 624 456 592 487 543 c 0
 493 534 497 524 502 515 c 1
 513 489 520 461 520 433 c 0
 520 410 515 388 506 366 c 0
 502 356 496 347 491 338 c 1
 447 277 385 254 314 239 c 1
 294 236 275 234 255 234 c 0
 212 234 169 241 126 248 c 0
 120 249 118 259 118 272 c 0
 118 298 129 337 141 337 c 2
 142 337 l 1
 179 330 216 324 253 324 c 0
 267 324 282 325 296 327 c 0
 339 336 383 349 412 384 c 1
 423 401 429 419 429 437 c 0
 429 449 426 460 421 473 c 1
 400 516 370 541 325 558 c 1
 271 576 214 586 157 586 c 0
 156 586 155 586 154 586 c 0
 137 586 118 586 100 583 c 1
 100 567 101 552 101 536 c 0
 101 519 100 502 100 485 c 0
 98 396 93 309 90 220 c 0
 90 203 90 186 90 169 c 0
 90 124 92 78 97 33 c 0
 102 -6 105 -10 105 -15 c 0
 105 -28 62 -42 35 -42 c 0
 23 -42 15 -40 14 -34 c 0
 10 -15 7 5 5 24 c 0
 1 67 0 109 0 152 c 0
 0 175 0 199 1 222 c 0
 4 310 9 398 10 486 c 0
 10 530 9 573 5 616 c 0
 5 622 14 627 27 630 c 1
 22 642 21 653 26 656 c 0
 65 676 109 676 152 677 c 1
EndSplineSet
Validated: 1
EndChar

StartChar: Q
Encoding: 81 81 19
Width: 667
VWidth: 0
Flags: HMW
LayerCount: 2
Fore
SplineSet
388 647 m 1
 401 646 414 646 427 644 c 0
 492 632 538 587 563 527 c 0
 567 515 571 503 574 491 c 0
 580 466 582 441 582 416 c 0
 582 377 577 338 566 300 c 1
 548 248 523 199 491 154 c 1
 501 144 509 134 509 127 c 0
 509 125 508 124 507 123 c 0
 503 118 499 113 494 108 c 1
 505 101 516 93 527 86 c 0
 557 65 588 46 615 21 c 0
 616 20 617 17 617 15 c 0
 617 -3 573 -47 555 -47 c 0
 553 -47 551 -46 550 -45 c 0
 529 -22 500 -9 476 10 c 0
 458 23 439 35 421 48 c 1
 411 42 401 38 391 33 c 0
 324 3 253 -20 179 -20 c 0
 178 -20 176 -20 175 -20 c 0
 163 -19 152 -19 140 -17 c 0
 82 -7 39 28 17 82 c 0
 14 92 10 102 8 112 c 0
 3 135 0 159 0 183 c 0
 0 221 6 258 14 295 c 0
 18 309 22 323 27 337 c 0
 54 413 99 481 156 537 c 0
 168 548 179 558 192 568 c 0
 249 613 315 644 388 647 c 1
382 556 m 1
 315 551 263 513 215 470 c 1
 156 413 122 348 100 270 c 1
 94 244 91 217 91 191 c 0
 91 164 95 136 104 110 c 1
 120 77 150 72 183 70 c 1
 231 70 276 83 320 100 c 1
 320 103 321 105 323 106 c 0
 328 109 332 112 336 116 c 1
 335 117 334 119 333 120 c 0
 270 185 259 230 259 240 c 0
 259 253 297 263 324 263 c 0
 339 263 350 260 351 253 c 0
 358 225 380 203 399 183 c 1
 435 227 462 276 480 330 c 1
 488 359 492 385 492 411 c 0
 492 440 488 469 477 499 c 1
 456 543 429 555 382 556 c 1
EndSplineSet
Validated: 1
EndChar

StartChar: R
Encoding: 82 82 20
Width: 487
VWidth: 0
Flags: HMW
LayerCount: 2
Fore
SplineSet
110 635 m 2
 137 635 176 625 176 612 c 0
 176 611 l 1
 181 614 187 618 193 621 c 0
 211 629 230 631 248 631 c 0
 275 631 302 625 328 615 c 1
 368 597 406 570 430 532 c 0
 435 524 438 515 443 507 c 1
 453 484 458 460 458 437 c 0
 458 408 451 379 436 352 c 0
 430 341 423 332 416 322 c 0
 368 261 300 227 228 204 c 0
 220 202 213 200 205 198 c 1
 209 195 214 190 218 187 c 0
 258 152 297 117 336 81 c 0
 370 50 402 18 433 -15 c 0
 447 -31 462 -45 475 -62 c 1
 484 -79 480 -69 485 -92 c 1
 485 -103 460 -108 435 -108 c 0
 415 -108 395 -105 392 -97 c 1
 392 -99 379 -84 368 -76 c 1
 339 -44 307 -15 275 14 c 0
 237 49 198 83 159 117 c 0
 141 132 124 146 104 158 c 1
 97 107 92 55 92 4 c 0
 92 -12 93 -14 94 -18 c 1
 89 -34 42 -62 21 -62 c 0
 17 -62 13 -61 11 -58 c 0
 4 -41 0 -25 0 -7 c 0
 0 -4 0 -2 0 1 c 0
 2 71 10 142 21 211 c 0
 35 301 51 390 65 480 c 0
 72 528 79 576 83 625 c 0
 84 632 95 635 109 635 c 2
 110 635 l 2
251 539 m 0
 245 539 239 539 233 537 c 0
 229 536 223 536 222 531 c 0
 221 524 208 520 191 520 c 0
 182 520 172 521 163 523 c 1
 160 504 157 486 154 467 c 0
 144 404 133 341 122 278 c 1
 148 280 175 283 201 290 c 0
 254 306 304 330 340 373 c 1
 355 394 367 414 367 438 c 0
 367 446 365 455 362 464 c 1
 348 493 326 516 296 529 c 0
 282 535 266 539 251 539 c 0
EndSplineSet
Validated: 1
EndChar

StartChar: S
Encoding: 83 83 21
Width: 627
VWidth: 0
Flags: HMW
LayerCount: 2
Fore
SplineSet
391 554 m 0
 383 567 372 576 358 582 c 1
 349 585 340 586 331 586 c 0
 313 586 295 582 278 577 c 0
 235 564 196 541 164 510 c 0
 162 507 143 486 150 486 c 0
 158 486 147 498 161 489 c 0
 212 454 269 427 323 397 c 0
 395 358 459 309 513 248 c 1
 540 213 562 172 562 128 c 0
 562 117 560 106 557 94 c 0
 554 83 548 73 544 62 c 1
 500 -8 430 -29 353 -44 c 1
 327 -48 302 -50 276 -50 c 0
 218 -50 160 -41 103 -32 c 0
 71 -26 40 -20 8 -13 c 0
 3 -12 0 -4 0 7 c 0
 0 33 13 76 26 76 c 0
 27 76 l 0
 57 69 87 61 118 56 c 0
 169 47 222 40 274 40 c 0
 295 40 315 41 336 44 c 1
 381 53 430 63 461 100 c 1
 468 111 471 121 471 131 c 0
 471 151 459 168 445 188 c 1
 399 242 342 285 280 319 c 0
 217 353 151 382 94 426 c 1
 77 446 66 453 61 481 c 0
 60 486 60 490 60 495 c 0
 60 527 80 554 102 577 c 1
 146 617 197 648 255 665 c 1
 282 672 308 678 335 678 c 0
 356 678 377 674 398 665 c 1
 427 650 452 632 470 604 c 0
 471 603 471 601 471 600 c 0
 471 584 420 551 399 551 c 0
 395 551 392 552 391 554 c 0
EndSplineSet
Validated: 1
EndChar

StartChar: T
Encoding: 84 84 22
Width: 704
VWidth: 0
Flags: HMW
LayerCount: 2
Fore
SplineSet
552 677 m 2
 575 677 598 676 621 670 c 1
 642 658 l 2
 644 657 645 654 645 651 c 0
 645 631 612 585 595 581 c 1
 582 587 566 587 552 587 c 0
 550 587 548 587 546 587 c 0
 513 587 480 584 447 580 c 0
 430 578 412 575 395 572 c 1
 395 571 l 2
 395 519 400 467 403 415 c 0
 408 332 418 248 433 166 c 0
 439 135 451 96 451 94 c 0
 451 80 405 64 379 64 c 0
 370 64 363 66 362 71 c 0
 355 97 349 124 345 151 c 0
 331 236 320 322 314 408 c 0
 310 458 305 507 302 557 c 1
 262 549 223 540 184 529 c 1
 147 517 107 506 77 480 c 0
 76 478 73 477 70 477 c 0
 50 477 0 514 0 531 c 0
 0 532 0 534 1 535 c 0
 42 580 101 598 157 615 c 1
 248 639 342 655 435 668 c 0
 473 673 512 677 550 677 c 2
 552 677 l 2
EndSplineSet
Validated: 1
EndChar

StartChar: U
Encoding: 85 85 23
Width: 642
VWidth: 0
Flags: HMW
LayerCount: 2
Fore
SplineSet
144 526 m 0
 126 508 119 483 110 460 c 1
 95 415 89 367 89 320 c 0
 89 298 90 277 92 255 c 1
 101 201 115 144 155 104 c 0
 161 98 168 93 175 88 c 0
 196 75 216 70 237 70 c 0
 267 70 297 81 328 95 c 1
 396 132 437 181 472 249 c 1
 494 296 501 347 501 398 c 0
 501 410 501 422 500 434 c 0
 496 475 484 513 467 550 c 0
 463 559 458 568 453 576 c 0
 452 577 452 578 452 579 c 0
 452 595 503 626 525 626 c 0
 529 626 533 625 534 622 c 0
 540 611 546 600 551 588 c 0
 571 540 586 491 590 439 c 0
 591 428 591 416 591 405 c 0
 591 337 581 270 551 208 c 0
 544 195 538 182 530 169 c 0
 490 102 433 48 364 12 c 1
 350 6 336 0 322 -5 c 0
 294 -14 266 -20 237 -20 c 0
 208 -20 178 -15 151 -2 c 0
 138 4 127 13 115 20 c 1
 105 29 93 38 84 48 c 0
 34 102 13 176 3 247 c 1
 1 272 0 298 0 323 c 0
 0 380 6 436 24 491 c 1
 39 532 56 574 91 603 c 0
 92 604 94 604 95 604 c 0
 112 604 147 555 147 534 c 0
 147 531 146 527 144 526 c 0
EndSplineSet
Validated: 1
EndChar

StartChar: V
Encoding: 86 86 24
Width: 782
VWidth: 0
Flags: HMW
LayerCount: 2
Fore
SplineSet
648 652 m 0
 665 652 699 602 699 581 c 0
 699 577 698 574 696 573 c 0
 682 562 670 549 658 536 c 0
 630 503 605 467 583 430 c 0
 542 359 504 286 469 212 c 0
 435 140 403 67 370 -5 c 0
 363 -18 350 -43 337 -52 c 0
 322 -62 309 -66 297 -66 c 0
 274 -66 255 -51 240 -26 c 1
 214 22 192 72 170 121 c 0
 133 207 99 294 69 383 c 0
 47 446 27 509 1 570 c 0
 1 571 0 571 0 572 c 0
 0 587 51 612 75 612 c 0
 81 612 85 610 86 607 c 0
 110 543 131 477 153 412 c 0
 182 325 215 240 252 156 c 0
 267 123 282 91 299 59 c 1
 329 123 359 187 389 250 c 0
 425 326 463 401 505 475 c 0
 529 518 557 559 588 596 c 0
 603 614 618 630 636 645 c 1
 644 651 l 2
 645 652 647 652 648 652 c 0
EndSplineSet
Validated: 1
EndChar

StartChar: W
Encoding: 87 87 25
Width: 828
VWidth: 0
Flags: HMW
LayerCount: 2
Fore
SplineSet
795 632 m 0
 795 630 795 629 794 628 c 0
 791 622 782 600 782 596 c 0
 782 595 l 1
 768 547 754 499 739 452 c 0
 711 366 683 280 654 194 c 0
 632 130 611 65 584 3 c 1
 567 -31 547 -56 517 -56 c 0
 505 -56 492 -52 476 -43 c 1
 446 -18 424 14 406 48 c 0
 380 100 359 153 343 209 c 0
 343 211 341 212 341 214 c 1
 333 193 327 172 320 151 c 0
 306 109 294 65 273 25 c 1
 263 11 257 -3 240 -11 c 0
 230 -16 219 -18 210 -18 c 0
 186 -18 165 -4 150 18 c 1
 120 66 100 119 82 172 c 1
 57 254 38 338 27 423 c 1
 19 477 12 530 0 583 c 1
 0 585 l 2
 0 598 43 610 70 610 c 0
 82 610 91 608 92 602 c 0
 101 547 107 491 115 435 c 0
 125 355 143 276 168 199 c 1
 180 167 191 134 207 103 c 1
 217 128 225 154 233 179 c 0
 247 222 261 264 279 305 c 1
 289 325 300 363 326 368 c 0
 329 369 333 369 337 369 c 0
 348 369 359 367 370 366 c 1
 377 359 386 353 392 345 c 0
 409 324 422 262 430 235 c 0
 444 185 463 136 487 90 c 1
 494 80 500 69 507 58 c 1
 531 112 550 168 570 224 c 0
 600 308 627 393 653 479 c 0
 667 526 680 573 693 620 c 0
 699 642 705 665 718 684 c 0
 719 686 722 687 725 687 c 0
 746 687 795 649 795 632 c 0
EndSplineSet
Validated: 1
EndChar

StartChar: X
Encoding: 88 88 26
Width: 704
VWidth: 0
Flags: HMW
LayerCount: 2
Fore
SplineSet
247 648 m 2
 248 648 l 2
 257 648 263 646 264 641 c 0
 278 591 296 542 314 493 c 0
 325 464 336 435 348 407 c 1
 389 454 431 502 474 547 c 1
 506 579 537 612 577 634 c 0
 578 634 578 635 579 635 c 0
 595 635 623 583 623 560 c 0
 623 555 621 552 618 550 c 0
 587 533 562 506 537 482 c 1
 485 429 436 375 388 319 c 1
 400 293 413 267 426 242 c 0
 459 178 497 117 536 57 c 0
 548 40 559 19 574 5 c 0
 576 4 576 1 576 -1 c 0
 576 -20 533 -66 515 -66 c 0
 513 -66 511 -65 510 -64 c 0
 489 -43 475 -17 459 8 c 0
 420 71 381 136 347 202 c 0
 340 216 333 231 326 245 c 1
 271 179 219 110 170 39 c 0
 145 2 121 -37 98 -75 c 0
 92 -84 88 -94 83 -103 c 0
 81 -106 78 -107 74 -107 c 0
 52 -107 0 -76 0 -60 c 0
 0 -59 0 -57 1 -56 c 0
 7 -46 13 -36 20 -26 c 0
 45 13 69 53 96 91 c 0
 153 172 215 250 279 326 c 0
 281 328 282 330 284 332 c 1
 265 375 247 417 230 461 c 0
 222 481 174 610 174 616 c 0
 174 630 221 648 247 648 c 2
EndSplineSet
Validated: 1
EndChar

StartChar: Y
Encoding: 89 89 27
Width: 611
VWidth: 0
Flags: HMW
LayerCount: 2
Fore
SplineSet
80 673 m 0
 102 635 129 601 156 566 c 0
 199 510 249 461 303 415 c 0
 327 395 353 376 378 357 c 1
 395 409 411 461 427 513 c 0
 442 561 457 609 479 654 c 0
 480 657 484 658 488 658 c 0
 510 658 561 626 561 610 c 0
 561 609 561 608 560 607 c 0
 540 568 527 526 513 485 c 0
 482 390 450 294 419 199 c 0
 393 121 370 42 353 -39 c 0
 349 -59 344 -80 344 -101 c 0
 344 -110 326 -114 306 -114 c 0
 280 -114 252 -107 252 -96 c 0
 254 -70 258 -44 264 -19 c 0
 284 64 308 145 335 226 c 0
 340 241 345 257 350 272 c 1
 345 270 342 269 339 271 c 0
 308 296 275 321 244 347 c 0
 186 397 132 450 85 510 c 0
 56 547 27 584 1 623 c 0
 0 624 0 626 0 627 c 0
 0 643 51 677 72 677 c 0
 76 677 79 675 80 673 c 0
EndSplineSet
Validated: 1
EndChar

StartChar: Z
Encoding: 90 90 28
Width: 679
VWidth: 0
Flags: HMW
LayerCount: 2
Fore
SplineSet
38 640 m 2
 39 640 l 1
 78 634 118 630 157 625 c 0
 223 617 289 609 354 600 c 0
 401 593 448 587 495 580 c 0
 528 575 561 564 567 525 c 0
 569 515 564 506 562 496 c 1
 535 451 492 416 454 381 c 0
 391 323 328 267 264 211 c 0
 212 165 159 120 112 69 c 1
 112 68 l 0
 112 60 159 61 169 59 c 1
 235 55 301 54 367 52 c 0
 427 50 488 48 548 47 c 0
 571 47 594 46 617 46 c 0
 620 46 622 46 625 46 c 0
 630 46 630 47 631 47 c 0
 641 47 647 21 647 -4 c 0
 647 -26 642 -47 633 -47 c 0
 627 -47 631 -47 624 -47 c 0
 598 -46 572 -45 546 -44 c 0
 485 -42 426 -40 365 -38 c 0
 298 -36 230 -35 163 -32 c 0
 125 -30 73 -30 39 -11 c 0
 31 -6 24 0 17 6 c 1
 12 15 5 24 2 34 c 0
 0 39 0 45 0 50 c 0
 0 82 26 110 46 132 c 0
 96 184 151 231 205 278 c 0
 268 333 332 389 393 447 c 0
 410 463 426 479 442 495 c 1
 408 501 376 506 342 511 c 0
 277 520 212 527 147 534 c 0
 106 538 66 543 25 547 c 0
 18 548 16 559 16 574 c 0
 16 601 26 640 38 640 c 2
EndSplineSet
Validated: 1
EndChar

StartChar: bracketleft
Encoding: 91 91 29
Width: 382
VWidth: 0
Flags: HMW
LayerCount: 2
Fore
SplineSet
222 746 m 0
 223 746 225 746 226 746 c 0
 246 746 265 745 285 744 c 0
 304 743 324 742 342 737 c 0
 346 736 348 730 348 722 c 0
 348 696 329 648 314 648 c 2
 313 648 l 2
 312 648 287 652 281 652 c 0
 280 652 l 1
 261 653 243 654 224 654 c 0
 207 654 190 653 173 651 c 0
 153 648 131 645 113 634 c 1
 112 612 112 590 112 568 c 0
 112 546 112 523 112 501 c 0
 112 425 113 348 116 272 c 0
 118 208 123 144 127 80 c 0
 130 42 132 4 133 -34 c 0
 133 -39 134 -44 134 -49 c 1
 142 -49 151 -49 159 -49 c 0
 162 -49 165 -49 168 -49 c 0
 173 -49 177 -49 182 -49 c 0
 210 -48 239 -46 267 -42 c 0
 275 -41 282 -39 290 -38 c 1
 291 -38 l 2
 303 -38 313 -75 313 -102 c 0
 313 -118 310 -130 303 -131 c 0
 295 -132 286 -133 278 -134 c 0
 247 -137 215 -140 184 -141 c 0
 164 -142 145 -141 125 -143 c 0
 118 -144 111 -151 104 -152 c 0
 95 -154 89 -154 85 -154 c 0
 74 -154 72 -149 49 -136 c 1
 42 -118 38 -112 38 -101 c 0
 38 -97 39 -91 40 -84 c 0
 41 -72 41 -62 41 -50 c 0
 41 -45 40 -41 40 -36 c 0
 40 1 38 37 36 74 c 0
 32 139 28 204 26 269 c 0
 24 346 23 423 22 500 c 0
 21 552 20 604 20 656 c 0
 20 665 39 669 60 669 c 0
 61 669 61 669 62 669 c 1
 54 680 48 691 48 698 c 0
 48 701 48 703 50 704 c 0
 82 728 121 736 159 742 c 0
 180 745 201 746 222 746 c 0
EndSplineSet
Validated: 1
EndChar

StartChar: backslash
Encoding: 92 92 30
Width: 504
VWidth: 0
Flags: HMW
LayerCount: 2
Fore
SplineSet
106 718 m 0
 125 670 144 622 163 575 c 0
 198 492 237 411 275 329 c 0
 310 253 345 176 382 100 c 1
 401 64 418 27 442 -6 c 0
 443 -7 443 -9 443 -10 c 0
 443 -27 394 -62 373 -62 c 0
 370 -62 367 -61 366 -59 c 0
 341 -21 320 20 300 61 c 0
 264 137 231 214 195 291 c 0
 156 374 116 457 80 541 c 0
 60 587 42 634 21 680 c 0
 21 681 20 681 20 682 c 0
 20 697 71 723 95 723 c 0
 101 723 105 721 106 718 c 0
EndSplineSet
Validated: 1
EndChar

StartChar: bracketright
Encoding: 93 93 31
Width: 399
VWidth: 0
Flags: HMW
LayerCount: 2
Fore
SplineSet
180 751 m 0
 190 751 200 751 210 750 c 0
 235 747 260 740 277 720 c 0
 281 715 284 709 288 703 c 1
 298 678 300 650 300 623 c 0
 300 610 299 598 299 585 c 0
 297 527 296 467 296 409 c 0
 296 343 296 277 294 211 c 0
 292 154 288 97 286 40 c 0
 285 19 285 -3 285 -24 c 0
 285 -37 286 -51 286 -64 c 0
 286 -78 288 -91 289 -105 c 1
 289 -106 l 2
 289 -114 272 -121 252 -123 c 1
 250 -129 247 -132 243 -132 c 0
 239 -132 234 -132 230 -132 c 0
 203 -132 176 -133 149 -135 c 0
 116 -137 84 -139 51 -141 c 0
 41 -141 36 -116 36 -92 c 0
 36 -69 40 -47 50 -47 c 0
 81 -47 113 -45 144 -43 c 0
 160 -42 177 -42 193 -41 c 1
 193 -13 194 15 195 43 c 0
 198 100 201 156 203 213 c 0
 205 279 205 344 205 410 c 0
 205 469 207 526 208 585 c 0
 208 593 208 601 208 609 c 0
 208 625 208 641 206 657 c 0
 205 657 203 658 202 658 c 0
 194 659 186 659 178 659 c 0
 162 659 147 657 131 654 c 0
 106 649 82 645 59 635 c 0
 58 635 58 634 57 634 c 0
 42 634 20 684 20 709 c 0
 20 716 21 721 25 722 c 0
 54 733 85 739 115 745 c 0
 137 749 158 751 180 751 c 0
EndSplineSet
Validated: 1
EndChar

StartChar: asciicircum
Encoding: 94 94 32
Width: 445
VWidth: 0
Flags: HMW
LayerCount: 2
Fore
SplineSet
305 575 m 0
 309 570 312 564 316 559 c 1
 333 527 346 493 361 460 c 0
 371 438 381 416 392 394 c 0
 392 393 393 392 393 391 c 0
 393 376 343 349 320 349 c 0
 315 349 310 351 309 354 c 0
 298 377 287 399 277 422 c 0
 266 446 256 470 245 494 c 1
 217 474 191 451 166 428 c 0
 142 405 117 383 97 357 c 0
 96 355 93 354 90 354 c 0
 70 354 20 391 20 408 c 0
 20 409 20 411 21 412 c 0
 46 442 74 469 103 495 c 0
 136 525 170 554 207 580 c 0
 224 591 241 598 257 598 c 0
 274 598 290 591 305 575 c 0
EndSplineSet
Validated: 1
EndChar

StartChar: a
Encoding: 97 97 33
Width: 485
VWidth: 0
Flags: HMW
LayerCount: 2
Fore
SplineSet
420 276 m 0
 413 251 408 225 403 200 c 0
 395 160 390 120 390 79 c 0
 390 71 390 64 390 56 c 0
 391 28 397 14 397 9 c 0
 397 -4 355 -16 328 -16 c 0
 316 -16 308 -14 307 -8 c 0
 303 12 300 32 299 53 c 1
 299 54 l 1
 291 48 282 42 273 37 c 0
 233 15 188 -6 142 -6 c 0
 132 -6 122 -5 111 -3 c 0
 99 0 88 6 77 10 c 1
 68 18 57 24 49 33 c 0
 28 57 20 85 20 114 c 0
 20 146 29 178 40 207 c 0
 46 220 51 233 58 245 c 0
 93 309 145 363 209 398 c 1
 221 403 232 409 244 413 c 0
 265 420 288 424 310 424 c 0
 338 424 366 417 391 403 c 1
 398 397 404 393 410 387 c 0
 426 370 433 349 433 328 c 0
 433 315 430 300 425 287 c 0
 423 283 422 280 420 276 c 0
322 262 m 1
 316 271 313 281 313 287 c 0
 313 290 314 292 316 293 c 0
 323 298 329 306 334 313 c 1
 336 319 338 325 340 331 c 1
 339 330 337 329 335 329 c 0
 327 332 318 333 310 333 c 0
 288 333 266 324 245 315 c 1
 185 282 149 230 121 169 c 1
 118 158 109 134 109 115 c 0
 109 100 114 87 129 85 c 0
 132 85 135 85 138 85 c 0
 171 85 201 100 229 116 c 1
 256 133 278 156 299 179 c 0
 301 181 304 181 307 181 c 1
 309 193 311 205 313 217 c 0
 316 232 319 247 322 262 c 1
EndSplineSet
Validated: 1
EndChar

StartChar: b
Encoding: 98 98 34
Width: 496
VWidth: 0
Flags: HMW
LayerCount: 2
Fore
SplineSet
88 638 m 0
 89 638 89 638 90 638 c 0
 117 638 160 625 160 612 c 0
 160 601 155 612 143 459 c 0
 141 425 137 390 135 356 c 1
 136 357 138 357 139 358 c 0
 166 369 193 373 221 373 c 0
 246 373 273 369 298 364 c 1
 350 349 398 320 425 271 c 0
 430 261 434 251 438 241 c 1
 444 219 447 198 447 179 c 0
 447 134 431 94 405 48 c 1
 365 -10 318 -41 252 -63 c 1
 217 -73 181 -76 144 -76 c 0
 135 -76 127 -76 118 -76 c 0
 109 -76 105 -57 105 -36 c 0
 105 -11 112 16 122 16 c 0
 125 16 132 15 149 15 c 0
 174 15 200 17 224 24 c 0
 266 37 302 57 327 94 c 1
 344 121 357 151 357 182 c 0
 357 190 356 198 354 206 c 0
 341 244 317 263 279 275 c 1
 261 279 243 282 225 282 c 0
 209 282 194 280 179 275 c 0
 173 273 166 271 164 265 c 1
 163 258 151 255 136 255 c 0
 134 255 131 255 128 255 c 1
 126 233 125 210 123 188 c 0
 119 137 112 87 112 36 c 0
 112 27 91 23 70 23 c 0
 46 23 20 29 20 39 c 0
 20 60 29 144 34 196 c 0
 42 286 48 376 53 466 c 0
 56 521 59 576 68 630 c 0
 69 635 77 638 88 638 c 0
EndSplineSet
Validated: 1
EndChar

StartChar: c
Encoding: 99 99 35
Width: 445
VWidth: 0
Flags: HMW
LayerCount: 2
Fore
SplineSet
366 310 m 0
 357 314 348 316 338 316 c 0
 326 316 312 314 300 311 c 0
 245 296 203 260 164 220 c 1
 148 199 111 158 111 124 c 0
 111 117 112 111 115 105 c 1
 144 93 175 92 206 92 c 0
 210 92 215 92 219 92 c 0
 268 93 317 99 365 111 c 1
 366 111 l 2
 379 111 393 68 393 42 c 0
 393 31 390 24 385 23 c 0
 330 11 275 3 219 2 c 1
 217 2 214 2 212 2 c 0
 153 2 84 3 44 52 c 0
 36 61 32 73 26 84 c 1
 23 100 20 107 20 123 c 0
 20 185 62 238 99 283 c 1
 151 336 209 382 282 401 c 1
 302 405 322 407 342 407 c 0
 367 407 391 403 414 391 c 0
 417 390 417 386 417 382 c 0
 417 360 385 309 369 309 c 0
 368 309 367 309 366 310 c 0
EndSplineSet
Validated: 1
EndChar

StartChar: d
Encoding: 100 100 36
Width: 510
VWidth: 0
Flags: HMW
LayerCount: 2
Fore
SplineSet
448 412 m 0
 437 316 428 220 423 123 c 0
 422 103 421 83 421 63 c 0
 421 31 422 -2 426 -34 c 1
 426 -45 394 -53 368 -53 c 0
 351 -53 336 -51 335 -43 c 0
 334 -35 334 -27 334 -19 c 1
 329 -22 322 -24 302 -33 c 1
 290 -36 279 -41 267 -43 c 0
 251 -46 235 -48 219 -48 c 0
 173 -48 128 -35 89 -9 c 1
 79 0 69 7 61 17 c 0
 32 50 20 91 20 132 c 0
 20 154 23 176 29 198 c 1
 34 210 38 223 44 235 c 0
 72 294 121 339 177 372 c 1
 218 391 254 405 295 405 c 0
 312 405 329 403 348 398 c 1
 356 394 l 1
 359 421 l 1
 364 476 369 531 375 585 c 0
 376 592 387 594 401 594 c 0
 428 594 467 584 467 571 c 1
 467 571 466 571 448 412 c 0
342 294 m 0
 337 304 326 308 316 311 c 0
 308 313 301 314 294 314 c 0
 267 314 241 303 216 291 c 1
 163 259 134 224 114 166 c 1
 111 152 110 140 110 129 c 0
 110 102 119 82 148 61 c 1
 170 49 192 43 215 43 c 0
 235 43 256 48 276 54 c 1
 303 67 291 60 316 77 c 0
 320 80 326 76 332 71 c 1
 332 90 333 109 334 128 c 0
 337 182 342 236 347 290 c 1
 345 291 343 292 342 294 c 0
EndSplineSet
Validated: 1
EndChar

StartChar: e
Encoding: 101 101 37
Width: 491
VWidth: 0
Flags: HMW
LayerCount: 2
Fore
SplineSet
308 358 m 0
 269 358 233 338 200 316 c 1
 176 296 153 273 136 247 c 1
 145 240 159 240 170 239 c 0
 171 239 172 239 173 239 c 0
 219 239 262 254 303 274 c 1
 325 288 365 309 367 339 c 1
 358 347 343 351 331 355 c 1
 323 356 315 358 308 358 c 0
310 448 m 2
 327 448 344 446 361 442 c 1
 371 438 381 435 390 431 c 0
 443 405 458 361 458 337 c 0
 458 329 457 321 456 313 c 1
 453 304 451 295 447 287 c 0
 426 243 383 215 342 192 c 1
 288 167 232 148 172 148 c 0
 168 148 164 148 160 148 c 0
 142 150 127 153 112 158 c 1
 119 135 140 123 165 113 c 1
 190 106 215 103 240 103 c 0
 269 103 298 107 327 112 c 0
 357 117 386 127 414 139 c 0
 415 139 415 139 416 139 c 0
 431 139 453 90 453 66 c 0
 453 60 452 55 448 54 c 0
 413 40 378 28 341 22 c 0
 307 17 273 13 239 13 c 0
 202 13 166 18 130 30 c 1
 119 35 108 39 97 45 c 0
 44 75 20 120 20 177 c 0
 20 183 20 189 21 195 c 0
 24 207 25 219 29 231 c 0
 50 296 97 349 150 391 c 1
 162 399 173 407 185 414 c 0
 224 436 266 448 309 448 c 2
 310 448 l 2
EndSplineSet
Validated: 1
EndChar

StartChar: f
Encoding: 102 102 38
Width: 476
VWidth: 0
Flags: HMW
LayerCount: 2
Fore
SplineSet
380 655 m 0
 382 655 383 655 385 655 c 0
 417 650 448 641 474 621 c 0
 476 620 476 617 476 614 c 0
 476 594 438 545 421 545 c 0
 419 545 417 545 416 546 c 0
 403 556 390 562 374 563 c 1
 343 560 323 535 305 513 c 1
 279 475 263 432 252 388 c 1
 263 388 276 388 287 387 c 0
 303 386 296 386 310 385 c 0
 318 384 322 368 322 349 c 0
 322 323 314 292 303 292 c 0
 301 292 299 293 281 294 c 0
 266 295 251 296 236 297 c 1
 235 293 235 289 234 285 c 0
 230 249 229 214 229 178 c 0
 229 120 233 61 238 3 c 0
 246 -78 260 -145 260 -149 c 0
 260 -162 221 -173 194 -173 c 0
 181 -173 170 -170 169 -164 c 0
 161 -111 154 -58 149 -5 c 0
 144 55 141 116 141 176 c 0
 141 216 143 257 147 297 c 0
 147 298 147 299 147 300 c 1
 129 300 110 301 92 301 c 0
 73 301 54 301 35 300 c 0
 25 300 20 324 20 347 c 0
 20 370 25 394 35 394 c 0
 75 393 115 392 155 391 c 0
 158 391 160 391 163 391 c 1
 177 455 197 517 234 571 c 0
 242 581 250 591 259 600 c 0
 291 634 333 655 380 655 c 0
EndSplineSet
Validated: 1
EndChar

StartChar: g
Encoding: 103 103 39
Width: 463
VWidth: 0
Flags: HMW
LayerCount: 2
Fore
SplineSet
241 306 m 2
 198 306 166 291 134 259 c 1
 119 240 111 221 111 202 c 0
 111 189 115 176 124 162 c 1
 148 136 181 131 215 131 c 0
 222 131 227 131 234 131 c 1
 240 132 247 133 253 134 c 1
 252 139 252 145 252 150 c 0
 252 170 256 189 265 189 c 0
 283 191 297 202 309 214 c 0
 317 223 324 232 327 242 c 0
 328 247 328 253 329 258 c 0
 329 262 329 264 328 268 c 0
 315 293 286 300 260 305 c 0
 254 306 249 306 243 306 c 2
 241 306 l 2
245 396 m 0
 257 396 268 395 280 394 c 1
 291 391 303 390 314 386 c 0
 343 377 368 361 387 340 c 1
 410 335 434 324 434 314 c 0
 434 313 434 313 434 312 c 0
 429 292 425 273 422 253 c 1
 422 240 420 229 416 217 c 0
 416 216 415 215 415 214 c 0
 405 150 392 87 376 24 c 0
 361 -36 338 -93 301 -143 c 1
 273 -177 237 -195 195 -205 c 1
 194 -206 l 1
 181 -206 167 -163 167 -136 c 0
 167 -125 170 -116 175 -115 c 0
 196 -111 214 -104 228 -87 c 0
 259 -48 276 -2 289 46 c 0
 289 48 290 49 290 51 c 1
 274 46 257 42 238 41 c 0
 228 41 218 40 208 40 c 0
 206 40 203 40 201 40 c 0
 152 42 101 57 65 92 c 0
 56 101 50 111 42 121 c 1
 37 132 31 142 27 154 c 0
 22 169 20 184 20 199 c 0
 20 246 42 289 73 325 c 1
 82 333 91 342 101 350 c 0
 143 381 194 396 245 396 c 0
EndSplineSet
Validated: 1
EndChar

StartChar: h
Encoding: 104 104 40
Width: 438
VWidth: 0
Flags: HMW
LayerCount: 2
Fore
SplineSet
55 631 m 0
 56 631 56 631 57 631 c 0
 83 631 114 624 114 613 c 0
 114 603 110 592 110 509 c 0
 110 477 111 444 112 412 c 0
 113 363 115 315 117 267 c 1
 124 283 131 298 141 312 c 0
 147 320 154 328 160 336 c 1
 168 342 174 350 183 355 c 0
 199 365 217 370 234 370 c 0
 257 370 280 362 300 346 c 0
 308 340 315 330 322 323 c 1
 363 269 380 202 397 137 c 0
 407 99 425 27 425 24 c 0
 425 11 381 -4 355 -4 c 0
 345 -4 337 -2 336 3 c 0
 327 40 318 77 309 114 c 0
 296 164 284 217 255 261 c 0
 251 266 247 269 244 274 c 0
 239 281 242 284 230 277 c 1
 193 238 184 180 171 130 c 1
 165 100 160 71 154 41 c 0
 153 34 146 -1 140 -6 c 0
 126 -18 107 -25 91 -34 c 1
 77 -25 62 -18 50 -6 c 0
 45 -1 42 23 41 29 c 0
 38 57 37 87 35 115 c 0
 31 213 27 312 24 410 c 0
 22 466 20 522 20 578 c 0
 20 592 20 605 20 619 c 1
 21 627 37 631 55 631 c 0
EndSplineSet
Validated: 1
EndChar

StartChar: i
Encoding: 105 105 41
Width: 205
VWidth: 0
Flags: HMW
LayerCount: 2
Fore
SplineSet
102 562 m 0
 107 556 113 551 119 546 c 0
 120 545 121 542 121 540 c 0
 121 521 78 476 60 476 c 0
 58 476 56 477 55 478 c 0
 49 484 43 490 37 495 c 0
 36 496 35 498 35 500 c 0
 35 519 79 564 97 564 c 0
 99 564 101 563 102 562 c 0
112 220 m 0
 112 212 112 205 112 197 c 0
 112 169 115 140 119 112 c 0
 122 98 120 105 123 93 c 1
 123 92 l 2
 123 79 80 65 53 65 c 0
 42 65 33 67 32 73 c 0
 29 89 30 81 27 99 c 0
 23 131 20 164 20 197 c 0
 20 206 21 215 21 224 c 0
 22 261 24 298 28 335 c 0
 29 341 40 345 54 345 c 0
 81 345 121 334 121 321 c 0
 121 318 115 295 112 220 c 0
EndSplineSet
Validated: 1
EndChar

StartChar: j
Encoding: 106 106 42
Width: 292
VWidth: 0
Flags: HMW
LayerCount: 2
Fore
SplineSet
192 618 m 0
 202 608 212 598 220 586 c 0
 221 585 221 583 221 582 c 0
 221 565 171 528 151 528 c 0
 148 528 145 529 144 531 c 0
 138 539 132 546 125 553 c 0
 124 554 123 556 123 558 c 0
 123 576 168 620 187 620 c 0
 189 620 191 619 192 618 c 0
207 406 m 0
 220 361 223 315 226 269 c 0
 227 255 227 242 227 228 c 0
 227 170 220 113 210 56 c 0
 199 -4 178 -61 152 -116 c 0
 133 -155 109 -190 73 -215 c 0
 72 -216 71 -216 70 -216 c 0
 54 -216 20 -166 20 -145 c 0
 20 -141 21 -138 23 -137 c 0
 47 -127 57 -95 70 -76 c 1
 93 -29 112 20 122 72 c 0
 131 122 137 172 137 223 c 0
 137 236 137 250 136 263 c 0
 129 358 118 372 118 377 c 0
 118 392 168 412 193 412 c 0
 200 412 206 410 207 406 c 0
EndSplineSet
Validated: 1
EndChar

StartChar: k
Encoding: 107 107 43
Width: 459
VWidth: 0
Flags: HMW
LayerCount: 2
Fore
SplineSet
384 -59 m 2
 382 -58 359 -47 358 -47 c 0
 313 -29 267 -10 222 10 c 0
 184 27 146 43 111 66 c 1
 112 47 115 28 118 10 c 1
 118 9 l 2
 118 -3 80 -13 53 -13 c 0
 39 -13 28 -10 27 -4 c 0
 20 46 20 97 20 147 c 0
 20 157 20 167 20 177 c 0
 20 184 20 190 20 197 c 0
 21 290 22 383 23 476 c 0
 23 527 24 579 27 630 c 0
 28 638 44 641 62 641 c 0
 89 641 120 633 120 622 c 1
 115 573 114 524 113 475 c 0
 111 404 110 331 109 260 c 1
 130 281 154 299 180 315 c 0
 219 339 260 364 305 375 c 1
 306 375 l 2
 318 375 328 337 328 310 c 0
 328 295 326 283 319 282 c 0
 286 273 256 255 228 237 c 0
 196 216 164 194 144 161 c 0
 143 159 142 157 142 154 c 0
 141 147 146 154 147 154 c 0
 151 153 153 149 156 147 c 0
 188 124 225 109 260 93 c 0
 303 73 347 55 391 39 c 0
 406 34 421 28 435 20 c 0
 437 19 438 16 438 12 c 0
 438 -9 404 -59 387 -59 c 0
 386 -59 385 -59 384 -59 c 2
EndSplineSet
Validated: 1
EndChar

StartChar: l
Encoding: 108 108 44
Width: 218
VWidth: 0
Flags: HMW
LayerCount: 2
Fore
SplineSet
194 613 m 0
 170 557 160 495 149 435 c 0
 130 326 118 216 111 106 c 0
 109 69 109 64 109 54 c 0
 109 47 109 38 109 15 c 0
 109 6 88 2 67 2 c 0
 44 2 20 7 20 17 c 0
 21 79 21 47 24 112 c 1
 33 225 44 339 62 451 c 0
 74 521 85 591 112 657 c 0
 113 660 116 661 121 661 c 0
 143 661 195 632 195 616 c 0
 195 615 194 614 194 613 c 0
EndSplineSet
Validated: 1
EndChar

StartChar: m
Encoding: 109 109 45
Width: 575
VWidth: 0
Flags: HMW
LayerCount: 2
Fore
SplineSet
350 97 m 2
 350 98 349 101 348 104 c 1
 348 102 350 97 350 97 c 2
442 369 m 1
 454 365 467 364 478 357 c 0
 511 335 506 281 508 247 c 0
 510 200 514 153 520 106 c 0
 523 82 527 58 527 34 c 0
 527 21 527 8 524 -5 c 0
 523 -10 515 -12 505 -12 c 0
 478 -12 433 3 433 16 c 0
 433 17 433 17 433 18 c 1
 436 19 435 19 435 26 c 0
 435 28 435 30 435 32 c 0
 435 53 432 75 430 96 c 0
 425 138 421 180 418 222 c 1
 397 185 380 147 366 107 c 0
 361 94 349 48 333 47 c 0
 324 46 316 45 309 45 c 0
 270 45 262 59 257 91 c 0
 252 128 248 165 239 201 c 0
 235 218 233 222 227 238 c 0
 226 240 217 258 214 265 c 1
 210 260 207 254 204 251 c 1
 179 209 164 164 148 118 c 0
 140 97 133 71 119 53 c 0
 112 45 107 33 96 31 c 0
 82 28 71 27 63 27 c 0
 37 27 36 40 22 66 c 1
 21 76 20 87 20 97 c 0
 20 130 25 164 26 197 c 1
 28 227 29 258 29 288 c 0
 29 312 28 324 28 328 c 0
 28 338 52 343 76 343 c 0
 99 343 122 339 122 329 c 0
 122 316 121 303 121 290 c 1
 122 292 123 294 124 296 c 0
 145 328 173 362 215 362 c 0
 216 362 219 362 220 362 c 0
 230 361 239 358 248 356 c 1
 256 351 264 346 271 340 c 0
 300 315 313 276 323 239 c 1
 331 254 339 269 348 284 c 1
 366 308 385 349 415 362 c 0
 424 366 433 367 442 369 c 1
EndSplineSet
Validated: 1
EndChar

StartChar: n
Encoding: 110 110 46
Width: 508
VWidth: 0
Flags: HMW
LayerCount: 2
Fore
SplineSet
260 416 m 2
 296 416 329 399 353 372 c 0
 360 364 366 354 372 346 c 0
 405 293 417 232 428 171 c 0
 434 137 441 73 441 70 c 0
 441 59 408 51 382 51 c 0
 365 51 350 54 349 62 c 0
 346 93 343 124 338 155 c 0
 330 202 322 251 298 293 c 1
 288 307 277 325 259 325 c 0
 258 325 256 324 255 324 c 0
 218 309 203 268 190 233 c 1
 174 179 164 123 152 68 c 1
 148 57 142 32 132 25 c 0
 115 13 100 7 87 7 c 0
 62 7 45 29 37 62 c 1
 28 114 27 166 25 218 c 0
 23 264 21 310 20 356 c 0
 20 366 44 371 67 371 c 0
 90 371 114 366 114 356 c 0
 114 343 113 330 113 317 c 0
 113 307 113 296 113 286 c 1
 129 326 151 364 186 390 c 0
 194 396 203 400 212 405 c 1
 222 408 230 412 240 414 c 0
 246 415 253 416 259 416 c 2
 260 416 l 2
EndSplineSet
Validated: 1
EndChar

StartChar: o
Encoding: 111 111 47
Width: 457
VWidth: 0
Flags: HMW
LayerCount: 2
Fore
SplineSet
220 315 m 1
 204 311 191 301 178 291 c 0
 141 259 120 218 111 171 c 0
 111 167 110 164 110 161 c 0
 110 129 122 114 153 100 c 1
 169 94 185 91 201 91 c 0
 225 91 250 98 273 108 c 1
 303 125 326 149 331 183 c 1
 331 184 331 185 331 186 c 0
 331 219 314 247 293 271 c 1
 278 286 262 292 242 292 c 0
 239 292 237 291 234 291 c 0
 227 291 222 301 220 315 c 1
232 410 m 0
 233 410 233 410 234 410 c 0
 236 410 238 410 240 410 c 0
 247 409 250 398 251 383 c 1
 255 383 257 383 261 383 c 0
 301 379 335 358 363 330 c 1
 400 285 422 243 422 188 c 0
 422 180 421 171 420 163 c 0
 418 153 416 144 413 134 c 0
 395 84 354 48 308 24 c 1
 298 20 288 14 277 11 c 0
 254 4 229 1 205 1 c 0
 173 1 141 7 110 20 c 1
 100 26 89 30 80 37 c 0
 38 68 20 113 20 162 c 0
 20 171 21 181 22 190 c 1
 25 201 27 213 30 224 c 0
 47 279 80 327 123 365 c 1
 156 389 191 409 232 410 c 0
EndSplineSet
Validated: 1
EndChar

StartChar: p
Encoding: 112 112 48
Width: 435
VWidth: 0
Flags: HMW
LayerCount: 2
Fore
SplineSet
142 314 m 0
 140 314 138 314 136 314 c 1
 133 290 131 265 129 241 c 0
 125 200 122 159 120 118 c 1
 158 122 196 129 232 144 c 1
 260 157 293 171 306 202 c 0
 307 205 306 208 306 211 c 0
 306 237 288 258 268 274 c 1
 230 299 188 313 142 314 c 0
142 406 m 0
 209 404 260 386 317 351 c 1
 357 321 391 280 397 228 c 0
 397 225 398 221 398 218 c 0
 398 211 397 205 397 198 c 1
 384 125 334 91 271 61 c 1
 222 40 169 32 117 26 c 1
 117 21 117 15 117 10 c 0
 117 7 117 4 117 1 c 0
 117 -45 120 -92 125 -138 c 0
 127 -157 127 -159 127 -161 c 0
 127 -173 95 -180 68 -180 c 0
 50 -180 35 -177 34 -169 c 0
 33 -155 34 -162 33 -146 c 0
 30 -101 27 -57 27 -12 c 0
 27 -4 27 3 27 11 c 0
 28 90 33 169 39 248 c 0
 41 273 42 299 45 324 c 1
 32 340 20 363 20 375 c 0
 20 379 21 382 23 383 c 0
 35 390 48 395 61 398 c 0
 63 399 65 400 68 400 c 0
 92 405 117 406 142 406 c 0
EndSplineSet
Validated: 1
EndChar

StartChar: q
Encoding: 113 113 49
Width: 511
VWidth: 0
Flags: HMW
LayerCount: 2
Fore
SplineSet
316 346 m 0
 279 346 245 331 213 312 c 1
 170 281 135 239 118 188 c 0
 115 179 113 170 111 161 c 0
 110 152 110 144 110 137 c 0
 110 105 121 86 156 69 c 1
 174 63 192 60 210 60 c 0
 239 60 268 66 296 75 c 1
 324 87 311 81 336 95 c 0
 337 96 338 96 339 96 c 0
 342 146 346 195 352 245 c 0
 352 248 354 252 354 255 c 1
 340 270 328 289 328 299 c 0
 328 302 329 304 331 305 c 0
 341 314 349 325 351 339 c 1
 350 346 342 344 336 345 c 0
 329 346 323 346 316 346 c 0
318 437 m 2
 336 437 353 435 371 430 c 1
 380 426 389 423 397 418 c 0
 416 406 429 390 436 371 c 1
 452 361 466 349 466 341 c 0
 466 340 467 339 466 338 c 0
 452 305 447 269 442 233 c 0
 433 163 428 93 426 23 c 0
 426 19 426 13 426 9 c 0
 426 -37 433 -83 442 -128 c 0
 451 -169 453 -169 453 -173 c 0
 453 -187 406 -204 380 -204 c 0
 371 -204 363 -202 362 -197 c 0
 358 -180 354 -162 351 -145 c 0
 343 -99 337 -53 336 -6 c 1
 332 -7 328 -10 322 -12 c 0
 285 -23 247 -30 209 -30 c 0
 176 -30 143 -24 111 -10 c 1
 82 7 72 10 51 37 c 0
 29 67 20 102 20 138 c 0
 20 154 21 169 24 185 c 1
 28 198 31 211 36 224 c 0
 61 292 108 349 168 390 c 0
 180 397 192 404 204 410 c 0
 239 427 278 437 317 437 c 2
 318 437 l 2
EndSplineSet
Validated: 1
EndChar

StartChar: r
Encoding: 114 114 50
Width: 456
VWidth: 0
Flags: HMW
LayerCount: 2
Fore
SplineSet
36 57 m 1
 35 57 35 56 35 55 c 0
 35 54 37 49 37 49 c 1
 37 49 37 52 37 53 c 0
 37 54 36 56 36 57 c 1
314 453 m 0
 349 453 384 446 418 436 c 0
 425 433 433 431 440 428 c 0
 444 427 445 421 445 415 c 0
 445 391 423 342 408 342 c 0
 407 342 407 342 406 342 c 0
 401 344 396 346 391 348 c 0
 366 356 340 363 314 363 c 0
 300 363 287 361 273 357 c 0
 231 343 194 320 168 283 c 1
 143 244 125 203 121 157 c 0
 121 154 121 151 121 148 c 0
 122 132 123 117 125 101 c 0
 125 99 130 57 130 48 c 0
 130 42 65 44 37 43 c 1
 31 70 29 98 29 125 c 0
 29 133 30 142 30 150 c 0
 28 188 25 225 24 263 c 0
 22 310 21 358 20 405 c 0
 20 414 42 419 64 419 c 0
 88 419 114 413 114 403 c 0
 114 399 113 386 113 361 c 1
 148 400 189 424 242 443 c 1
 266 450 290 453 314 453 c 0
EndSplineSet
Validated: 1
EndChar

StartChar: s
Encoding: 115 115 51
Width: 444
VWidth: 0
Flags: HMW
LayerCount: 2
Fore
SplineSet
271 420 m 0
 272 420 272 420 273 420 c 0
 290 420 308 417 325 412 c 1
 354 400 379 385 400 361 c 0
 401 360 401 358 401 356 c 0
 401 338 355 295 336 295 c 0
 334 295 331 296 330 298 c 0
 319 311 307 321 291 326 c 0
 284 328 276 328 269 328 c 0
 245 328 221 320 198 313 c 1
 176 303 141 293 119 275 c 1
 121 274 122 273 125 271 c 0
 130 268 135 264 140 261 c 0
 187 235 234 211 279 182 c 1
 312 158 345 129 360 89 c 0
 363 82 364 74 366 67 c 1
 366 63 367 59 367 55 c 0
 367 16 344 -17 306 -32 c 0
 298 -35 290 -37 282 -39 c 0
 257 -43 233 -45 208 -45 c 0
 174 -45 140 -42 106 -39 c 1
 72 -34 l 2
 65 -33 62 -21 62 -6 c 0
 62 20 71 55 83 55 c 2
 84 55 l 1
 115 51 l 2
 144 48 172 46 201 46 c 0
 220 46 239 47 258 50 c 0
 269 52 270 56 273 48 c 0
 274 45 274 46 275 47 c 1
 275 73 246 91 229 106 c 1
 185 136 136 159 90 185 c 1
 55 208 20 233 20 274 c 0
 20 282 21 291 24 300 c 0
 27 308 33 315 37 323 c 1
 42 329 48 335 54 340 c 0
 87 369 130 384 170 400 c 1
 203 410 237 420 271 420 c 0
EndSplineSet
Validated: 1
EndChar

StartChar: t
Encoding: 116 116 52
Width: 518
VWidth: 0
Flags: HMW
LayerCount: 2
Fore
SplineSet
235 477 m 0
 235 476 235 476 235 475 c 0
 230 455 226 435 222 415 c 1
 251 418 280 421 309 423 c 0
 320 424 331 425 342 425 c 0
 352 425 357 401 357 378 c 0
 357 354 352 331 342 331 c 1
 333 332 325 331 316 331 c 0
 279 329 241 326 204 323 c 1
 196 277 190 231 188 185 c 1
 188 151 191 115 215 88 c 1
 240 69 272 67 302 65 c 0
 308 65 315 65 321 65 c 0
 353 65 385 68 417 71 c 0
 433 73 426 72 439 74 c 1
 440 74 l 2
 452 74 461 38 461 11 c 0
 461 -5 458 -17 451 -18 c 0
 435 -20 443 -19 426 -21 c 0
 391 -24 357 -27 322 -27 c 0
 313 -27 305 -26 296 -26 c 0
 239 -22 184 -13 143 31 c 1
 138 38 132 45 127 53 c 0
 102 94 97 143 97 189 c 1
 99 231 105 272 111 313 c 1
 86 310 62 308 37 306 c 0
 26 306 20 333 20 358 c 0
 20 379 24 399 33 399 c 0
 64 400 96 404 127 407 c 1
 133 438 138 470 145 501 c 0
 146 506 153 507 162 507 c 0
 188 507 235 491 235 477 c 0
EndSplineSet
Validated: 1
EndChar

StartChar: u
Encoding: 117 117 53
Width: 445
VWidth: 0
Flags: HMW
LayerCount: 2
Fore
SplineSet
73 408 m 1
 74 409 l 1
 93 409 139 366 139 348 c 0
 139 346 138 344 137 343 c 0
 121 324 117 300 113 276 c 0
 112 269 111 261 111 254 c 0
 111 226 119 199 135 175 c 1
 156 150 185 144 216 144 c 0
 219 144 224 144 227 144 c 0
 262 148 294 162 321 183 c 1
 321 192 320 201 320 210 c 0
 320 231 321 252 323 273 c 0
 327 314 331 355 343 394 c 0
 344 398 349 400 357 400 c 0
 382 400 432 380 432 366 c 0
 432 356 423 357 414 265 c 0
 412 247 412 228 412 210 c 0
 412 196 412 182 413 168 c 1
 418 161 420 154 417 150 c 0
 416 149 415 148 414 147 c 1
 415 139 415 131 416 123 c 0
 422 71 426 65 426 59 c 0
 426 46 385 35 358 35 c 0
 345 35 335 37 334 43 c 0
 332 56 331 68 329 81 c 1
 298 66 265 56 228 53 c 0
 220 53 213 53 205 53 c 0
 201 53 198 53 194 53 c 0
 139 57 90 83 57 127 c 1
 52 136 46 143 42 152 c 0
 26 184 20 220 20 255 c 0
 20 267 21 279 22 291 c 1
 29 332 41 373 68 406 c 0
 69 407 71 408 73 408 c 1
EndSplineSet
Validated: 1
EndChar

StartChar: v
Encoding: 118 118 54
Width: 485
VWidth: 0
Flags: HMW
LayerCount: 2
Fore
SplineSet
111 370 m 0
 120 322 132 274 147 228 c 1
 164 184 184 140 223 111 c 0
 228 108 233 107 238 107 c 0
 254 107 268 119 281 129 c 1
 321 164 345 210 364 258 c 0
 376 290 382 323 384 357 c 0
 385 365 401 369 419 369 c 0
 445 369 476 363 476 351 c 0
 476 331 465 270 448 225 c 1
 422 161 389 100 335 55 c 1
 326 49 318 42 309 37 c 0
 285 23 262 16 239 16 c 0
 214 16 189 23 165 39 c 1
 158 45 150 51 143 58 c 0
 104 97 80 149 61 200 c 1
 45 249 20 344 20 348 c 0
 20 362 65 377 92 377 c 0
 102 377 110 375 111 370 c 0
EndSplineSet
Validated: 1
EndChar

StartChar: w
Encoding: 119 119 55
Width: 619
VWidth: 0
Flags: HMW
LayerCount: 2
Fore
SplineSet
422 462 m 0
 428 457 434 452 440 447 c 0
 482 404 515 355 531 296 c 0
 533 285 536 275 537 264 c 0
 538 258 538 252 538 246 c 0
 538 200 520 158 486 125 c 1
 478 119 471 112 463 107 c 0
 442 94 419 87 396 87 c 0
 374 87 352 93 331 105 c 1
 324 111 317 116 311 122 c 0
 309 124 307 125 305 127 c 1
 295 115 284 105 272 95 c 1
 238 72 204 54 166 54 c 0
 153 54 140 57 126 61 c 0
 116 64 107 70 97 74 c 1
 89 80 80 86 73 93 c 0
 36 130 24 184 20 234 c 0
 20 242 20 250 20 258 c 0
 20 299 23 340 35 380 c 0
 36 384 42 386 49 386 c 0
 74 386 123 366 123 351 c 0
 123 350 123 350 123 349 c 0
 113 320 111 289 111 258 c 0
 111 251 111 244 111 237 c 0
 114 204 120 165 152 148 c 1
 157 147 161 146 165 146 c 0
 185 146 203 158 219 170 c 1
 244 191 261 218 274 248 c 1
 274 250 l 1
 273 248 273 249 274 252 c 0
 275 260 277 265 278 265 c 0
 296 265 311 266 323 266 c 0
 359 266 371 263 371 250 c 0
 371 244 368 237 364 227 c 0
 364 225 364 222 364 220 c 0
 364 203 370 187 386 179 c 0
 389 178 392 178 395 178 c 0
 408 178 418 187 428 196 c 1
 441 211 446 227 446 244 c 0
 446 255 445 266 442 278 c 0
 430 319 405 353 375 382 c 0
 371 385 367 388 363 391 c 0
 361 392 361 395 361 398 c 0
 361 417 401 464 418 464 c 0
 420 464 421 463 422 462 c 0
EndSplineSet
Validated: 1
EndChar

StartChar: x
Encoding: 120 120 56
Width: 446
VWidth: 0
Flags: HMW
LayerCount: 2
Fore
SplineSet
399 369 m 0
 399 363 398 358 394 357 c 0
 357 340 327 312 297 285 c 0
 289 277 281 269 273 261 c 1
 292 230 308 196 324 163 c 0
 350 106 370 47 389 -13 c 0
 395 -32 400 -50 405 -69 c 0
 405 -70 405 -70 405 -71 c 0
 405 -85 360 -100 334 -100 c 0
 324 -100 317 -98 316 -93 c 0
 312 -75 306 -58 301 -40 c 0
 284 16 267 72 243 125 c 0
 233 147 223 168 211 189 c 1
 194 166 177 143 161 119 c 1
 142 86 119 53 112 15 c 0
 112 14 113 13 113 12 c 0
 112 5 99 3 84 3 c 0
 57 3 20 12 20 24 c 2
 20 25 l 1
 21 29 21 33 22 37 c 0
 35 84 59 128 86 169 c 1
 109 202 133 236 158 267 c 1
 151 276 143 284 135 292 c 1
 112 311 86 331 55 331 c 0
 54 331 54 331 53 331 c 2
 52 331 l 2
 40 331 32 366 32 393 c 0
 32 410 36 423 43 424 c 0
 45 424 47 424 49 424 c 0
 108 424 148 399 193 362 c 1
 202 353 211 344 219 335 c 1
 225 341 230 345 236 351 c 0
 273 386 312 420 358 443 c 0
 359 443 359 444 360 444 c 0
 376 444 399 393 399 369 c 0
EndSplineSet
Validated: 1
EndChar

StartChar: y
Encoding: 121 121 57
Width: 553
VWidth: 0
Flags: HMW
LayerCount: 2
Fore
SplineSet
401 385 m 1
 427 383 454 373 473 355 c 1
 474 352 474 350 474 347 c 0
 474 328 460 309 457 290 c 1
 417 156 367 25 343 -113 c 1
 335 -134 348 -176 316 -176 c 0
 315 -176 315 -176 314 -176 c 0
 291 -175 257 -177 244 -155 c 1
 251 -100 263 -46 277 8 c 1
 280 13 282 17 282 20 c 0
 282 25 277 26 271 26 c 0
 264 26 254 24 246 24 c 0
 244 24 242 25 240 25 c 0
 238 25 236 25 234 25 c 0
 185 25 136 42 99 76 c 1
 46 122 20 191 20 260 c 0
 20 284 24 309 30 332 c 1
 37 348 42 383 62 383 c 0
 65 383 70 381 74 379 c 0
 95 367 121 351 127 326 c 1
 115 306 111 282 111 259 c 0
 111 250 112 241 113 232 c 0
 120 192 142 152 178 130 c 1
 198 120 220 115 242 115 c 0
 267 115 291 121 313 132 c 1
 332 196 353 260 371 324 c 1
 382 343 376 380 401 385 c 1
EndSplineSet
Validated: 1
EndChar

StartChar: z
Encoding: 122 122 58
Width: 525
VWidth: 0
Flags: HMW
LayerCount: 2
Fore
SplineSet
115 425 m 0
 116 425 115 425 116 425 c 0
 156 413 197 405 238 397 c 0
 292 386 345 374 392 346 c 1
 398 340 406 336 411 329 c 0
 425 312 431 294 431 276 c 0
 431 255 423 233 410 214 c 0
 404 206 396 200 390 192 c 1
 343 145 284 111 227 78 c 0
 217 72 208 67 198 61 c 1
 221 63 245 65 268 67 c 0
 324 71 381 74 437 76 c 0
 442 76 447 76 452 76 c 0
 467 76 483 75 498 74 c 0
 506 73 509 58 509 41 c 0
 509 15 502 -18 490 -18 c 2
 489 -18 l 1
 475 -16 461 -15 447 -15 c 0
 444 -15 442 -15 439 -15 c 0
 384 -16 330 -20 275 -24 c 0
 219 -28 164 -33 108 -36 c 0
 95 -36 72 -36 60 -30 c 0
 33 -16 20 1 20 21 c 0
 20 38 30 57 48 73 c 1
 90 105 136 130 182 156 c 0
 231 184 280 212 321 251 c 0
 324 255 328 259 331 263 c 0
 333 265 335 268 337 269 c 0
 338 270 347 258 347 263 c 0
 347 265 344 266 343 268 c 1
 307 293 262 298 220 308 c 1
 176 317 132 324 89 335 c 0
 84 336 83 343 83 351 c 0
 83 377 101 425 115 425 c 0
EndSplineSet
Validated: 1
EndChar

StartChar: braceleft
Encoding: 123 123 59
Width: 308
VWidth: 0
Flags: HMW
LayerCount: 2
Fore
SplineSet
202 727 m 1
 206 726 l 1
 209 723 l 1
 218 707 225 687 225 667 c 0
 225 656 223 645 218 635 c 1
 179 619 166 574 164 536 c 0
 163 527 164 519 164 510 c 0
 164 486 165 461 165 437 c 0
 165 402 162 368 144 337 c 1
 136 330 132 323 132 317 c 0
 132 304 147 292 157 278 c 0
 178 250 185 216 185 182 c 0
 185 169 184 156 182 143 c 0
 177 102 174 62 174 21 c 0
 174 -20 177 -61 183 -102 c 1
 186 -114 191 -129 191 -141 c 0
 191 -154 185 -164 165 -167 c 1
 154 -172 140 -176 127 -176 c 0
 111 -176 98 -170 98 -150 c 0
 98 -149 98 -147 98 -146 c 1
 87 -91 82 -36 82 20 c 0
 82 54 84 88 87 122 c 0
 88 141 93 162 93 181 c 0
 93 199 89 216 76 231 c 1
 59 254 22 262 20 295 c 0
 20 297 20 300 20 302 c 0
 20 338 56 360 68 392 c 1
 72 411 73 431 73 451 c 0
 73 474 71 496 71 519 c 0
 71 540 73 562 78 583 c 1
 89 648 135 712 202 727 c 1
EndSplineSet
Validated: 1
EndChar

StartChar: bar
Encoding: 124 124 60
Width: 225
VWidth: 0
Flags: HMW
LayerCount: 2
Fore
SplineSet
130 722 m 0
 131 698 132 673 132 649 c 0
 132 619 131 588 130 558 c 0
 126 468 120 379 115 289 c 0
 112 226 110 162 110 99 c 0
 110 88 110 78 110 67 c 0
 110 24 113 -18 116 -61 c 0
 117 -66 115 -77 119 -81 c 1
 119 -83 l 0
 119 -99 70 -123 45 -123 c 0
 39 -123 34 -121 33 -117 c 0
 27 -101 23 -84 23 -67 c 0
 21 -25 20 16 20 58 c 0
 20 61 20 64 20 67 c 0
 20 143 22 219 26 294 c 0
 31 383 38 471 41 560 c 0
 41 577 41 594 41 611 c 0
 41 696 37 707 37 718 c 0
 37 729 66 735 91 735 c 0
 112 735 130 731 130 722 c 0
EndSplineSet
Validated: 1
EndChar

StartChar: braceright
Encoding: 125 125 61
Width: 328
VWidth: 0
Flags: HMW
LayerCount: 2
Fore
SplineSet
34 782 m 0
 72 781 108 773 144 761 c 1
 180 747 215 724 230 686 c 0
 233 678 234 669 236 661 c 0
 236 658 236 654 236 651 c 0
 236 606 213 567 189 530 c 1
 176 508 159 489 150 465 c 0
 148 457 149 450 151 442 c 0
 158 422 165 402 171 382 c 0
 176 362 178 343 178 323 c 0
 178 304 177 286 175 267 c 0
 168 214 160 162 154 109 c 0
 149 64 147 20 142 -25 c 0
 139 -57 134 -89 125 -120 c 0
 124 -124 122 -127 121 -131 c 0
 120 -135 114 -137 108 -137 c 0
 84 -137 34 -114 34 -99 c 0
 34 -98 33 -98 36 -92 c 1
 44 -67 47 -42 50 -16 c 0
 55 29 59 74 64 119 c 0
 70 171 77 223 83 275 c 0
 84 289 86 304 86 318 c 0
 86 331 84 344 81 357 c 0
 75 379 66 399 60 421 c 0
 57 433 56 445 56 457 c 0
 56 472 58 486 64 501 c 0
 76 529 94 554 111 580 c 0
 124 600 138 621 145 644 c 0
 146 645 146 647 146 648 c 0
 146 661 122 669 114 673 c 1
 89 682 63 688 37 688 c 2
 36 688 l 2
 25 688 20 715 20 740 c 0
 20 762 25 782 34 782 c 0
EndSplineSet
Validated: 1
EndChar

StartChar: exclam
Encoding: 33 33 62
Width: 252
VWidth: 0
Flags: HMW
LayerCount: 2
Fore
SplineSet
107 70 m 0
 113 53 122 36 130 20 c 0
 130 19 131 18 131 17 c 0
 131 2 80 -27 57 -27 c 0
 52 -27 49 -25 48 -22 c 0
 33 8 20 35 20 37 c 0
 20 52 71 75 95 75 c 0
 101 75 106 74 107 70 c 0
183 541 m 0
 166 502 154 461 142 420 c 0
 127 370 117 320 117 268 c 0
 117 265 117 263 117 260 c 0
 118 226 125 209 125 203 c 0
 125 190 84 179 57 179 c 0
 44 179 34 182 33 188 c 0
 29 212 26 235 26 259 c 0
 26 323 36 385 55 446 c 0
 68 490 81 536 97 579 c 0
 98 582 103 583 109 583 c 0
 133 583 184 559 184 544 c 0
 184 543 183 542 183 541 c 0
EndSplineSet
Validated: 1
EndChar

StartChar: quotedbl
Encoding: 34 34 63
Width: 342
VWidth: 0
Flags: HMW
LayerCount: 2
Fore
SplineSet
266 640 m 0
 266 603 270 566 274 529 c 1
 274 528 l 2
 274 516 240 509 214 509 c 0
 197 509 184 512 183 519 c 0
 178 563 174 607 173 651 c 0
 173 660 193 664 215 664 c 0
 240 664 266 658 266 648 c 0
 266 645 266 644 266 640 c 0
112 593 m 0
 112 579 113 565 115 551 c 1
 120 532 117 541 124 523 c 0
 124 522 124 522 124 521 c 0
 124 507 76 488 51 488 c 0
 43 488 38 489 37 493 c 0
 27 522 31 508 24 538 c 1
 21 558 20 577 20 597 c 0
 20 618 22 639 26 660 c 0
 27 665 35 667 46 667 c 0
 73 667 117 654 117 640 c 0
 117 639 112 618 112 593 c 0
EndSplineSet
Validated: 1
EndChar

StartChar: numbersign
Encoding: 35 35 64
Width: 796
VWidth: 0
Flags: HMW
LayerCount: 2
Fore
SplineSet
328 342 m 2
 315 342 303 341 290 341 c 1
 280 296 272 251 263 206 c 1
 309 208 356 208 402 208 c 1
 411 252 420 295 429 338 c 1
 396 340 363 342 330 342 c 2
 328 342 l 2
507 646 m 0
 531 646 582 622 582 606 c 0
 582 606 582 605 582 604 c 1
 567 557 557 508 546 460 c 0
 543 446 540 432 537 418 c 1
 548 416 560 415 571 413 c 0
 577 412 579 402 579 390 c 0
 579 363 567 322 554 322 c 2
 553 322 l 1
 541 325 529 327 517 329 c 1
 508 288 499 248 491 207 c 1
 547 206 603 203 658 199 c 0
 694 196 676 198 709 195 c 0
 717 194 720 180 720 162 c 0
 720 136 713 104 702 104 c 2
 701 104 l 1
 669 107 686 106 651 109 c 0
 592 114 532 118 473 119 c 1
 458 42 448 -37 443 -116 c 0
 443 -124 442 -132 442 -140 c 0
 442 -148 424 -152 404 -152 c 0
 379 -152 351 -146 351 -135 c 1
 352 -126 352 -118 353 -109 c 0
 360 -33 370 44 384 119 c 1
 338 119 292 117 246 115 c 0
 246 114 246 113 246 112 c 0
 241 78 236 45 235 11 c 0
 235 7 234 3 234 -1 c 0
 234 -11 235 -22 240 -30 c 1
 240 -31 240 -31 240 -32 c 0
 240 -46 192 -65 167 -65 c 0
 159 -65 153 -63 152 -59 c 0
 150 -51 147 -44 146 -36 c 0
 144 -24 143 -12 143 1 c 0
 143 37 150 73 155 109 c 1
 123 106 91 102 60 92 c 0
 59 92 59 92 58 92 c 0
 43 92 20 143 20 167 c 0
 20 173 21 178 25 179 c 0
 72 194 121 197 169 201 c 0
 170 201 171 201 172 201 c 0
 181 246 189 291 198 336 c 1
 173 334 149 330 125 324 c 0
 124 324 125 324 124 324 c 0
 110 324 94 369 94 396 c 0
 94 406 97 413 102 414 c 0
 140 422 178 426 217 428 c 1
 227 479 236 530 246 581 c 0
 247 586 255 588 265 588 c 0
 292 588 337 574 337 560 c 0
 337 559 336 558 336 558 c 1
 326 516 318 473 309 431 c 1
 315 431 320 432 326 432 c 0
 367 432 407 431 448 428 c 1
 452 445 455 461 459 478 c 0
 470 532 479 588 495 641 c 0
 496 644 501 646 507 646 c 0
EndSplineSet
Validated: 1
EndChar

StartChar: dollar
Encoding: 36 36 65
Width: 566
VWidth: 0
Flags: HMW
LayerCount: 2
Fore
SplineSet
295 158 m 1
 293 142 291 126 289 110 c 0
 284 71 280 32 277 -7 c 1
 288 -7 299 -5 310 -3 c 0
 338 3 369 10 388 34 c 1
 391 41 393 47 393 53 c 0
 393 71 382 88 370 102 c 1
 348 125 323 143 295 158 c 1
225 332 m 1
 211 326 197 318 184 309 c 1
 183 307 180 306 178 304 c 1
 183 302 189 298 195 296 c 0
 204 293 212 289 221 286 c 1
 223 301 224 317 225 332 c 1
265 554 m 0
 292 554 327 545 327 533 c 0
 327 523 325 514 322 437 c 1
 343 435 362 432 382 423 c 0
 385 421 387 418 387 413 c 0
 387 390 359 338 343 338 c 0
 342 338 341 339 340 339 c 0
 332 342 324 344 316 345 c 1
 313 314 311 285 307 254 c 1
 354 233 396 204 434 167 c 1
 462 135 485 96 485 53 c 0
 485 47 484 41 483 35 c 0
 482 25 478 15 476 6 c 1
 447 -56 394 -77 331 -92 c 0
 312 -96 293 -97 274 -97 c 1
 274 -98 274 -100 274 -101 c 0
 275 -130 276 -133 276 -137 c 0
 276 -148 245 -156 219 -156 c 0
 201 -156 185 -153 184 -145 c 0
 183 -134 183 -129 183 -126 c 0
 183 -122 183 -121 183 -115 c 0
 183 -112 183 -107 183 -100 c 0
 183 -96 183 -91 183 -87 c 1
 164 -83 146 -78 128 -73 c 0
 92 -61 58 -46 24 -30 c 0
 21 -29 20 -25 20 -20 c 0
 20 3 47 53 62 53 c 0
 63 53 63 52 64 52 c 0
 93 38 123 23 154 13 c 0
 165 10 176 7 188 4 c 1
 191 43 196 83 201 122 c 0
 204 146 207 169 210 193 c 1
 176 204 135 218 112 235 c 0
 104 241 97 248 90 255 c 1
 86 265 79 274 77 284 c 0
 76 289 76 293 76 298 c 0
 76 335 106 365 134 386 c 1
 164 405 197 421 231 430 c 1
 232 468 232 505 234 543 c 0
 235 550 249 554 265 554 c 0
EndSplineSet
Validated: 1
EndChar

StartChar: percent
Encoding: 37 37 66
Width: 748
VWidth: 0
Flags: HMW
LayerCount: 2
Fore
SplineSet
623 198 m 1
 644 182 656 179 666 152 c 0
 669 143 671 134 671 125 c 0
 671 94 652 66 632 43 c 1
 584 -2 529 -38 462 -44 c 1
 436 -42 422 -44 399 -29 c 0
 370 -10 360 20 360 51 c 0
 360 59 361 67 362 75 c 1
 373 116 390 155 418 187 c 0
 419 188 421 189 423 189 c 0
 442 189 487 145 487 127 c 0
 487 125 486 122 485 121 c 0
 467 102 457 77 451 52 c 1
 453 46 453 46 457 46 c 1
 459 47 463 48 465 48 c 0
 506 56 540 80 569 109 c 0
 572 113 575 117 578 122 c 0
 580 125 582 135 579 133 c 0
 573 129 580 122 573 121 c 1
 554 127 535 128 516 128 c 0
 507 128 502 148 502 170 c 0
 502 194 508 220 518 220 c 0
 539 220 587 217 623 198 c 1
162 470 m 1
 161 462 159 456 154 455 c 1
 138 448 129 432 121 418 c 0
 118 412 111 394 111 380 c 0
 111 372 114 366 121 365 c 1
 146 367 168 376 190 387 c 1
 205 397 247 425 247 447 c 0
 247 449 247 450 247 451 c 1
 241 448 249 452 244 446 c 0
 243 445 217 451 214 452 c 0
 205 454 196 454 187 454 c 0
 183 454 178 454 174 454 c 0
 169 454 165 460 162 470 c 1
140 548 m 2
 148 548 155 533 159 514 c 1
 160 532 165 547 173 547 c 0
 194 547 215 546 236 542 c 1
 280 531 326 512 337 462 c 0
 339 453 338 443 338 433 c 1
 336 424 334 414 331 406 c 0
 313 360 271 330 231 305 c 1
 199 290 163 275 127 275 c 0
 110 275 92 278 75 287 c 0
 65 292 58 300 49 306 c 1
 43 314 37 322 32 331 c 0
 24 347 20 364 20 381 c 0
 20 410 30 439 42 465 c 1
 65 503 93 538 139 548 c 1
 140 548 l 2
496 551 m 2
 497 551 l 2
 515 551 557 505 557 486 c 0
 557 484 557 481 555 480 c 0
 523 452 498 417 473 383 c 0
 412 296 355 206 299 116 c 0
 251 37 204 -43 166 -128 c 0
 163 -136 160 -144 157 -152 c 0
 156 -156 151 -157 145 -157 c 0
 121 -157 72 -134 72 -119 c 0
 72 -116 74 -113 84 -90 c 0
 126 -3 175 80 225 162 c 0
 282 254 339 346 400 436 c 0
 428 476 456 515 492 549 c 0
 493 550 494 551 496 551 c 2
EndSplineSet
Validated: 1
EndChar

StartChar: ampersand
Encoding: 38 38 67
Width: 518
VWidth: 0
Flags: HMW
LayerCount: 2
Fore
SplineSet
264 541 m 1
 277 541 290 499 290 472 c 0
 290 460 288 450 282 449 c 0
 245 440 214 418 185 395 c 1
 156 368 127 338 114 300 c 1
 115 300 116 301 117 301 c 0
 141 308 164 318 186 330 c 1
 192 335 198 340 204 344 c 0
 205 345 227 359 231 359 c 1
 231 359 287 311 287 294 c 0
 287 284 276 277 256 264 c 0
 251 261 245 258 240 255 c 0
 215 235 196 209 179 182 c 1
 169 160 156 133 156 107 c 0
 156 96 158 84 165 74 c 1
 180 65 197 63 215 63 c 0
 238 63 262 68 283 71 c 0
 293 73 302 75 312 77 c 1
 308 87 305 97 301 107 c 0
 282 160 269 214 269 233 c 0
 269 245 302 252 329 252 c 0
 347 252 361 249 362 241 c 0
 364 205 375 171 387 137 c 0
 391 126 395 114 400 103 c 1
 411 102 424 73 429 49 c 1
 435 39 441 30 448 20 c 0
 449 19 449 17 449 16 c 0
 449 0 400 -35 380 -35 c 0
 377 -35 374 -34 373 -32 c 0
 367 -23 361 -13 355 -4 c 1
 336 -9 317 -13 297 -17 c 1
 269 -21 239 -27 210 -27 c 0
 171 -27 133 -19 103 9 c 0
 94 17 88 28 81 38 c 1
 77 49 72 59 69 70 c 0
 66 81 65 93 65 104 c 0
 65 139 76 175 91 207 c 1
 85 208 78 209 70 212 c 0
 35 226 20 256 20 289 c 0
 20 296 21 304 22 312 c 1
 25 321 27 329 30 338 c 0
 50 389 89 430 129 466 c 1
 170 498 213 528 264 541 c 1
EndSplineSet
Validated: 1
EndChar

StartChar: quotesingle
Encoding: 39 39 68
Width: 210
VWidth: 0
Flags: HMW
LayerCount: 2
Fore
SplineSet
96 518 m 0
 95 516 92 515 89 515 c 0
 69 515 20 550 20 566 c 0
 20 567 20 569 21 570 c 0
 41 599 61 628 74 661 c 0
 75 665 80 666 86 666 c 0
 110 666 161 643 161 628 c 0
 161 619 128 562 96 518 c 0
EndSplineSet
Validated: 1
EndChar

StartChar: parenleft
Encoding: 40 40 69
Width: 277
VWidth: 0
Flags: HMW
LayerCount: 2
Fore
SplineSet
182 501 m 1
 160 480 148 453 136 426 c 1
 119 381 109 332 109 284 c 0
 109 271 109 258 111 245 c 0
 112 233 116 222 118 211 c 0
 129 162 155 123 190 89 c 0
 191 88 192 86 192 84 c 0
 192 66 149 24 131 24 c 0
 129 24 127 25 126 26 c 0
 76 78 46 124 29 196 c 1
 27 211 24 226 22 241 c 0
 21 255 20 270 20 284 c 0
 20 344 32 404 53 461 c 1
 74 511 99 565 151 590 c 0
 152 590 152 590 153 590 c 0
 168 590 188 541 188 516 c 0
 188 509 186 502 182 501 c 1
EndSplineSet
Validated: 1
EndChar

StartChar: parenright
Encoding: 41 41 70
Width: 278
VWidth: 0
Flags: HMW
LayerCount: 2
Fore
SplineSet
125 619 m 0
 151 579 166 534 180 488 c 1
 193 441 198 395 198 350 c 0
 198 308 194 266 187 222 c 1
 172 141 139 67 98 -3 c 0
 97 -5 94 -7 90 -7 c 0
 69 -7 20 24 20 39 c 0
 20 40 20 41 21 42 c 0
 57 102 86 166 99 236 c 0
 105 273 109 309 109 346 c 0
 109 385 104 424 93 462 c 0
 82 499 69 535 47 567 c 0
 46 568 46 569 46 570 c 0
 46 587 96 622 117 622 c 0
 120 622 124 621 125 619 c 0
EndSplineSet
Validated: 1
EndChar

StartChar: asterisk
Encoding: 42 42 71
Width: 379
VWidth: 0
Flags: HMW
LayerCount: 2
Fore
SplineSet
232 625 m 0
 232 620 232 615 232 610 c 0
 232 603 233 595 233 588 c 1
 245 596 257 603 270 609 c 0
 271 609 271 609 272 609 c 0
 287 609 311 558 311 534 c 0
 311 528 310 523 306 522 c 0
 290 516 275 506 262 495 c 1
 268 488 275 481 281 474 c 0
 293 460 306 446 319 433 c 0
 320 432 321 430 321 428 c 0
 321 410 277 367 259 367 c 0
 257 367 255 368 254 369 c 0
 240 383 225 397 212 412 c 0
 201 425 189 438 178 451 c 1
 163 437 150 421 136 406 c 0
 122 390 107 375 94 358 c 0
 93 356 91 356 88 356 c 0
 68 356 20 395 20 412 c 0
 20 414 20 415 21 416 c 0
 36 434 52 452 68 469 c 0
 72 473 76 477 80 481 c 1
 65 487 50 493 35 496 c 0
 30 497 28 504 28 514 c 0
 28 541 42 587 56 587 c 0
 57 587 57 586 58 586 c 0
 87 578 115 567 142 555 c 1
 140 578 139 601 139 624 c 0
 139 625 139 626 139 627 c 0
 139 636 159 641 181 641 c 0
 206 641 232 635 232 625 c 0
EndSplineSet
Validated: 1
EndChar

StartChar: plus
Encoding: 43 43 72
Width: 716
VWidth: 0
Flags: HMW
LayerCount: 2
Fore
SplineSet
312 520 m 2
 337 520 362 514 362 504 c 0
 362 495 360 468 360 414 c 0
 360 383 361 350 362 319 c 0
 362 314 362 311 362 306 c 1
 369 306 377 306 384 306 c 0
 448 306 511 304 575 304 c 0
 612 304 624 305 636 305 c 0
 646 305 651 281 651 257 c 0
 651 235 646 213 637 213 c 0
 626 213 614 213 603 213 c 0
 594 213 584 213 575 213 c 0
 512 214 447 216 384 216 c 0
 377 216 372 216 365 216 c 1
 367 168 369 120 372 72 c 0
 375 17 380 -11 380 -20 c 0
 380 -31 348 -39 322 -39 c 0
 305 -39 290 -36 289 -28 c 0
 286 3 284 34 282 66 c 0
 279 115 278 166 276 215 c 1
 241 214 206 211 171 207 c 0
 133 202 94 197 58 184 c 0
 57 184 57 184 56 184 c 0
 41 184 20 234 20 259 c 0
 20 266 22 271 26 272 c 0
 69 286 115 292 160 297 c 0
 198 301 235 303 273 304 c 1
 273 308 272 313 272 317 c 0
 270 380 269 444 269 507 c 0
 269 516 290 520 311 520 c 2
 312 520 l 2
EndSplineSet
Validated: 1
EndChar

StartChar: comma
Encoding: 44 44 73
Width: 249
VWidth: 0
Flags: HMW
LayerCount: 2
Fore
SplineSet
179 56 m 0
 160 32 142 7 123 -18 c 0
 104 -42 113 -30 94 -55 c 0
 93 -57 91 -58 88 -58 c 0
 68 -58 20 -21 20 -4 c 0
 20 -2 20 -1 21 -0 c 0
 40 26 31 13 49 37 c 0
 68 62 87 87 105 113 c 0
 106 115 108 116 111 116 c 0
 131 116 180 77 180 60 c 0
 180 58 180 57 179 56 c 0
EndSplineSet
Validated: 1
EndChar

StartChar: period
Encoding: 46 46 74
Width: 422
VWidth: 0
Flags: HMW
LayerCount: 2
Fore
SplineSet
189 75 m 0
 191 42 206 13 206 10 c 0
 206 -5 156 -27 132 -27 c 0
 126 -27 121 -26 120 -22 c 0
 110 4 96 49 96 67 c 0
 96 79 129 86 156 86 c 0
 174 86 188 83 189 75 c 0
EndSplineSet
Validated: 1
EndChar

StartChar: slash
Encoding: 47 47 75
Width: 472
VWidth: 0
Flags: HMW
LayerCount: 2
Fore
SplineSet
423 651 m 0
 400 607 378 563 355 519 c 0
 304 421 252 322 204 222 c 0
 166 144 133 64 106 -18 c 0
 105 -22 99 -24 92 -24 c 0
 67 -24 20 -5 20 9 c 0
 20 14 64 134 126 261 c 0
 175 361 225 459 275 559 c 0
 297 603 319 647 339 692 c 0
 341 695 344 696 349 696 c 0
 372 696 424 669 424 653 c 0
 424 652 423 652 423 651 c 0
EndSplineSet
Validated: 1
EndChar

StartChar: zero
Encoding: 48 48 76
Width: 563
VWidth: 0
Flags: HMW
LayerCount: 2
Fore
SplineSet
224 298 m 0
 204 288 187 275 170 260 c 0
 147 240 131 216 119 189 c 0
 114 176 112 163 112 150 c 0
 112 134 115 119 123 104 c 1
 144 74 179 69 213 67 c 1
 267 68 316 88 360 118 c 1
 395 146 413 178 418 222 c 1
 418 223 418 224 418 226 c 0
 418 256 406 280 383 299 c 1
 358 317 327 323 297 323 c 0
 293 323 290 322 286 322 c 0
 263 319 274 321 252 315 c 1
 250 315 l 2
 237 315 222 360 222 386 c 0
 222 396 224 403 229 404 c 0
 265 412 247 410 283 414 c 0
 285 414 288 414 290 414 c 0
 346 414 399 403 444 367 c 1
 451 360 460 354 466 347 c 0
 496 313 509 270 509 225 c 0
 509 220 509 213 509 208 c 0
 507 198 505 188 503 178 c 0
 489 123 455 77 410 43 c 1
 347 1 284 -24 207 -24 c 2
 206 -24 l 1
 194 -23 183 -23 171 -21 c 0
 115 -12 68 17 40 66 c 0
 36 75 31 84 28 93 c 0
 22 111 20 129 20 147 c 0
 20 174 26 201 35 226 c 1
 53 266 77 302 110 330 c 0
 133 350 157 369 185 383 c 0
 186 383 186 384 187 384 c 0
 202 384 229 332 229 309 c 0
 229 304 227 299 224 298 c 0
EndSplineSet
Validated: 1
EndChar

StartChar: one
Encoding: 49 49 77
Width: 260
VWidth: 0
Flags: HMW
LayerCount: 2
Fore
SplineSet
129 427 m 0
 130 427 129 427 130 427 c 0
 145 427 160 422 172 407 c 0
 179 399 179 386 182 376 c 1
 178 344 168 313 160 282 c 0
 147 230 136 176 128 123 c 0
 123 88 120 53 120 17 c 0
 120 3 120 -4 120 -6 c 0
 120 -16 96 -21 72 -21 c 0
 50 -21 29 -16 29 -7 c 0
 29 -3 29 1 29 5 c 0
 29 49 31 93 38 137 c 0
 47 193 58 249 71 304 c 0
 71 305 71 308 72 312 c 1
 68 310 65 308 61 306 c 0
 60 306 59 306 58 306 c 0
 43 306 20 357 20 381 c 0
 20 387 21 392 25 393 c 0
 47 402 70 411 92 419 c 0
 104 423 117 427 129 427 c 0
EndSplineSet
Validated: 1
EndChar

StartChar: two
Encoding: 50 50 78
Width: 526
VWidth: 0
Flags: HMW
LayerCount: 2
Fore
SplineSet
234 530 m 2
 263 530 291 525 323 516 c 1
 376 496 418 456 429 399 c 0
 431 387 430 375 431 363 c 1
 425 279 378 210 328 146 c 0
 294 104 254 68 212 35 c 1
 239 36 265 37 292 38 c 0
 318 39 342 39 368 39 c 0
 390 39 411 39 433 39 c 0
 438 39 442 39 447 39 c 0
 456 39 461 18 461 -4 c 0
 461 -28 455 -54 445 -54 c 0
 444 -54 442 -54 431 -54 c 0
 402 -53 374 -52 345 -52 c 0
 328 -52 312 -52 295 -53 c 0
 242 -55 188 -57 135 -62 c 0
 121 -63 105 -65 88 -65 c 0
 60 -65 31 -59 21 -28 c 0
 20 -25 20 -22 20 -19 c 0
 20 -8 25 4 27 15 c 1
 31 20 35 26 40 30 c 0
 61 50 91 58 114 76 c 1
 167 112 217 151 257 201 c 0
 294 248 331 298 340 359 c 1
 340 360 340 362 340 363 c 0
 340 396 329 414 296 428 c 1
 275 435 255 439 234 439 c 0
 217 439 199 436 182 430 c 1
 160 420 137 408 122 389 c 0
 121 387 117 386 114 386 c 0
 93 386 44 422 44 439 c 0
 44 440 44 442 45 443 c 0
 71 476 107 497 145 514 c 1
 176 525 204 530 233 530 c 2
 234 530 l 2
EndSplineSet
Validated: 1
EndChar

StartChar: three
Encoding: 51 51 79
Width: 560
VWidth: 0
Flags: HMW
LayerCount: 2
Fore
SplineSet
161 408 m 1
 197 404 235 402 271 399 c 0
 317 395 362 390 408 385 c 0
 433 382 458 380 482 372 c 1
 487 369 493 367 497 363 c 0
 511 348 517 335 517 322 c 0
 517 301 500 282 479 266 c 1
 447 244 412 227 378 208 c 0
 374 206 371 203 367 201 c 1
 405 179 440 153 470 121 c 1
 495 91 509 55 509 17 c 0
 509 7 508 -4 506 -15 c 0
 504 -25 499 -36 496 -46 c 1
 471 -101 426 -141 370 -164 c 0
 358 -169 344 -173 332 -177 c 0
 302 -185 272 -188 242 -188 c 0
 184 -188 128 -175 70 -158 c 1
 25 -141 l 2
 21 -140 20 -135 20 -129 c 0
 20 -106 41 -58 55 -58 c 0
 56 -58 56 -58 57 -58 c 0
 70 -63 82 -68 95 -73 c 1
 142 -87 190 -98 239 -98 c 0
 261 -98 283 -96 305 -91 c 1
 348 -78 389 -58 410 -16 c 0
 415 -4 417 8 417 19 c 0
 417 33 413 45 403 58 c 1
 379 85 349 105 318 123 c 0
 303 131 286 140 269 143 c 0
 250 146 229 150 221 173 c 0
 218 182 217 189 217 196 c 0
 217 216 229 228 245 239 c 0
 274 257 304 271 334 288 c 0
 341 292 347 295 354 299 c 1
 324 302 293 305 263 307 c 0
 227 310 190 313 154 315 c 0
 146 316 142 331 142 350 c 0
 142 374 149 408 161 408 c 1
EndSplineSet
Validated: 1
EndChar

StartChar: four
Encoding: 52 52 80
Width: 606
VWidth: 0
Flags: HMW
LayerCount: 2
Fore
SplineSet
271 318 m 0
 271 317 271 315 270 314 c 0
 248 280 226 247 205 213 c 0
 180 174 157 134 133 95 c 1
 156 96 179 98 202 99 c 0
 240 102 279 104 317 107 c 1
 322 133 328 158 333 184 c 0
 344 235 352 287 370 336 c 0
 371 339 375 341 381 341 c 0
 405 341 456 315 456 300 c 0
 456 299 455 299 455 298 c 0
 439 255 430 210 420 166 c 0
 416 148 413 131 409 113 c 1
 428 114 447 114 466 114 c 0
 476 114 488 114 498 114 c 0
 511 113 504 114 516 112 c 0
 522 111 525 101 525 88 c 0
 525 61 514 19 501 19 c 2
 499 19 l 1
 499 20 l 1
 497 20 495 21 493 21 c 0
 478 22 463 22 448 22 c 0
 429 22 409 22 390 21 c 1
 384 -10 378 -41 372 -72 c 1
 366 -110 369 -92 364 -126 c 0
 363 -133 351 -136 337 -136 c 0
 310 -136 273 -126 273 -114 c 2
 273 -113 l 1
 279 -76 276 -96 283 -56 c 0
 288 -33 292 -8 297 15 c 1
 267 13 238 10 208 8 c 0
 178 6 148 3 117 3 c 0
 100 3 83 3 67 6 c 1
 58 10 47 12 40 19 c 0
 25 33 20 48 20 63 c 0
 20 83 30 104 42 123 c 0
 71 169 99 215 128 261 c 0
 149 296 170 330 191 365 c 0
 192 367 195 368 199 368 c 0
 220 368 271 334 271 318 c 0
EndSplineSet
Validated: 1
EndChar

StartChar: five
Encoding: 53 53 81
Width: 596
VWidth: 0
Flags: HMW
LayerCount: 2
Fore
SplineSet
421 410 m 0
 423 410 424 410 426 410 c 0
 447 410 468 409 489 408 c 0
 505 408 519 405 534 400 c 0
 538 399 540 393 540 387 c 0
 540 363 517 312 502 312 c 0
 501 312 500 313 499 313 c 1
 506 314 483 317 483 316 c 1
 460 318 438 319 415 319 c 0
 390 319 365 318 340 317 c 0
 323 316 307 314 290 312 c 1
 279 287 269 261 260 235 c 1
 271 234 281 233 292 231 c 0
 341 223 389 207 431 180 c 0
 440 174 449 167 458 160 c 0
 526 99 537 43 537 14 c 0
 537 4 536 -5 535 -15 c 1
 515 -94 463 -131 393 -165 c 1
 347 -184 301 -191 254 -191 c 0
 224 -191 193 -189 162 -184 c 0
 116 -176 71 -161 26 -147 c 0
 22 -146 20 -141 20 -133 c 0
 20 -108 38 -61 52 -61 c 0
 53 -61 53 -61 54 -61 c 0
 94 -74 134 -88 175 -95 c 0
 201 -99 227 -102 253 -102 c 0
 287 -102 321 -96 354 -83 c 1
 390 -66 429 -45 444 -6 c 1
 445 0 445 5 445 10 c 0
 445 41 427 65 403 87 c 1
 366 115 326 134 280 140 c 0
 266 142 252 144 238 144 c 0
 232 144 225 143 219 142 c 0
 214 141 210 140 205 140 c 0
 177 140 148 162 148 188 c 0
 148 193 149 197 151 202 c 0
 157 223 165 243 172 263 c 0
 181 288 190 314 200 339 c 1
 198 350 196 361 196 371 c 0
 196 384 198 394 204 395 c 0
 247 402 291 404 334 407 c 1
 363 408 392 410 421 410 c 0
EndSplineSet
Validated: 1
EndChar

StartChar: six
Encoding: 54 54 82
Width: 508
VWidth: 0
Flags: HMW
LayerCount: 2
Fore
SplineSet
331 526 m 0
 297 505 272 473 247 442 c 0
 191 370 151 290 122 204 c 1
 116 179 109 151 109 123 c 0
 109 102 114 81 126 63 c 0
 129 59 133 56 136 52 c 1
 149 44 162 41 176 41 c 0
 198 41 219 49 240 57 c 1
 283 77 321 106 342 149 c 1
 344 156 346 161 346 167 c 0
 346 183 337 196 323 207 c 1
 298 223 270 227 242 227 c 0
 232 227 223 226 213 225 c 0
 206 224 198 223 191 222 c 1
 190 221 l 1
 178 221 167 260 167 287 c 0
 167 300 169 310 175 311 c 0
 185 313 196 314 206 316 c 0
 216 317 227 317 237 317 c 0
 290 317 342 307 386 273 c 1
 393 266 402 259 408 251 c 0
 427 226 436 199 436 170 c 0
 436 149 432 126 423 105 c 1
 418 96 413 87 407 78 c 0
 374 29 324 -4 271 -28 c 1
 238 -40 205 -49 172 -49 c 0
 146 -49 119 -43 93 -27 c 0
 82 -21 74 -12 64 -4 c 1
 57 6 49 15 43 26 c 0
 27 56 20 87 20 120 c 0
 20 158 28 196 38 232 c 1
 44 248 49 264 55 280 c 0
 85 358 127 430 176 497 c 1
 208 538 241 580 285 608 c 0
 286 609 288 609 289 609 c 0
 305 609 335 557 335 535 c 0
 335 531 334 528 331 526 c 0
EndSplineSet
Validated: 1
EndChar

StartChar: seven
Encoding: 55 55 83
Width: 516
VWidth: 0
Flags: HMW
LayerCount: 2
Fore
SplineSet
315 431 m 2
 317 431 l 2
 353 431 388 429 422 419 c 1
 454 406 466 387 466 363 c 0
 466 351 463 337 457 322 c 0
 435 273 414 224 394 174 c 0
 372 120 350 65 331 10 c 1
 333 2 334 -7 334 -16 c 0
 334 -39 329 -63 319 -63 c 0
 317 -63 312 -63 307 -63 c 1
 295 -100 283 -137 275 -175 c 0
 274 -180 266 -183 255 -183 c 0
 228 -183 185 -169 185 -156 c 0
 185 -147 209 -73 212 -63 c 1
 185 -64 181 -65 178 -65 c 0
 167 -65 162 -37 162 -12 c 0
 162 9 166 29 175 29 c 0
 188 29 201 29 214 29 c 0
 224 29 233 29 243 29 c 1
 264 89 288 149 311 208 c 0
 328 251 345 294 363 337 c 1
 345 339 327 339 309 340 c 1
 254 340 200 336 146 329 c 0
 111 325 76 322 41 316 c 1
 40 316 l 2
 28 316 20 350 20 377 c 0
 20 394 24 408 31 409 c 0
 66 413 101 416 136 420 c 0
 193 426 251 430 308 431 c 0
 310 431 313 431 315 431 c 2
EndSplineSet
Validated: 1
EndChar

StartChar: eight
Encoding: 56 56 84
Width: 559
VWidth: 0
Flags: HMW
LayerCount: 2
Fore
SplineSet
244 260 m 1
 213 222 183 184 154 145 c 1
 140 124 135 117 123 96 c 0
 119 89 117 79 112 73 c 0
 111 71 107 73 107 70 c 1
 124 43 175 40 203 36 c 0
 205 36 208 36 210 36 c 0
 262 36 314 44 362 65 c 0
 385 76 413 88 424 113 c 1
 424 114 424 116 424 117 c 0
 424 151 385 175 362 194 c 1
 324 219 284 239 244 260 c 1
268 471 m 1
 233 470 200 458 170 441 c 1
 164 441 150 423 150 419 c 0
 150 418 150 419 151 419 c 0
 152 419 153 419 155 420 c 1
 175 402 197 388 220 375 c 1
 222 377 224 380 226 382 c 0
 249 411 272 440 294 470 c 1
 286 471 277 471 269 471 c 2
 268 471 l 1
268 562 m 0
 305 562 341 560 376 546 c 0
 379 545 381 540 381 534 c 0
 381 520 372 496 362 479 c 1
 377 468 390 454 390 446 c 0
 390 445 390 443 389 442 c 0
 382 432 386 438 378 427 c 0
 353 395 328 363 302 332 c 1
 339 313 376 293 411 270 c 1
 452 240 497 204 511 153 c 0
 514 143 513 133 515 123 c 1
 514 113 515 102 512 92 c 0
 498 36 450 7 402 -17 c 1
 339 -45 270 -54 202 -54 c 1
 154 -50 101 -43 61 -13 c 0
 53 -7 47 0 40 6 c 1
 35 15 28 24 25 34 c 0
 22 44 20 55 20 65 c 0
 20 113 54 158 80 196 c 1
 107 232 135 268 163 303 c 1
 123 326 84 353 65 397 c 1
 63 407 60 416 60 426 c 0
 60 469 92 501 126 522 c 1
 170 546 217 561 268 562 c 0
EndSplineSet
Validated: 1
EndChar

StartChar: nine
Encoding: 57 57 85
Width: 493
VWidth: 0
Flags: HMW
LayerCount: 2
Fore
SplineSet
301 95 m 1
 303 109 l 2
 310 156 315 203 323 249 c 0
 324 252 326 253 329 254 c 1
 328 257 326 260 324 263 c 0
 312 278 295 285 276 289 c 0
 273 289 271 290 268 290 c 0
 234 290 206 271 180 250 c 1
 144 217 119 177 111 129 c 1
 111 127 l 0
 111 100 127 90 150 80 c 1
 167 74 185 72 202 72 c 0
 224 72 245 75 266 80 c 0
 278 83 290 89 301 95 c 1
413 221 m 1
 405 180 399 138 393 96 c 0
 391 81 388 65 386 50 c 0
 386 47 386 45 385 43 c 0
 379 -1 374 -46 373 -90 c 0
 373 -134 375 -119 375 -138 c 0
 375 -148 348 -155 323 -155 c 0
 303 -155 283 -151 283 -142 c 0
 282 -120 282 -118 282 -112 c 0
 282 -108 283 -102 283 -87 c 0
 284 -61 286 -34 288 -8 c 1
 287 -8 l 1
 258 -15 230 -19 201 -19 c 0
 171 -19 140 -15 110 -3 c 1
 101 2 92 5 83 11 c 0
 41 38 20 81 20 129 c 0
 20 135 20 141 21 147 c 0
 23 157 25 168 28 178 c 0
 45 234 81 282 124 321 c 1
 170 357 213 381 268 381 c 0
 278 381 287 381 298 379 c 0
 339 368 377 349 402 313 c 1
 417 288 427 261 427 232 c 0
 427 227 422 223 413 221 c 1
EndSplineSet
Validated: 1
EndChar

StartChar: colon
Encoding: 58 58 86
Width: 256
VWidth: 0
Flags: HMW
LayerCount: 2
Fore
SplineSet
102 117 m 0
 125 101 148 85 170 68 c 0
 172 67 172 64 172 61 c 0
 172 41 135 -8 118 -8 c 0
 116 -8 115 -8 114 -7 c 0
 92 9 71 25 48 40 c 0
 46 41 45 44 45 47 c 0
 45 68 81 118 98 118 c 0
 99 118 101 118 102 117 c 0
79 490 m 0
 100 475 123 461 144 446 c 0
 148 443 153 439 157 436 c 0
 159 435 159 432 159 429 c 0
 159 410 119 363 102 363 c 0
 100 363 99 363 98 364 c 0
 96 366 93 368 91 370 c 0
 69 386 45 399 23 414 c 0
 21 415 20 418 20 421 c 0
 20 441 58 491 75 491 c 0
 77 491 78 491 79 490 c 0
EndSplineSet
Validated: 1
EndChar

StartChar: semicolon
Encoding: 59 59 87
Width: 255
VWidth: 0
Flags: HMW
LayerCount: 2
Fore
SplineSet
116 -53 m 0
 112 -62 109 -70 105 -79 c 0
 104 -83 99 -84 93 -84 c 0
 69 -84 20 -61 20 -47 c 0
 20 -43 28 -29 31 -20 c 0
 44 14 57 48 65 84 c 0
 66 89 73 91 82 91 c 0
 108 91 155 75 155 61 c 0
 155 58 139 6 116 -53 c 0
120 463 m 0
 130 443 144 426 157 408 c 0
 160 404 164 399 167 395 c 0
 168 394 168 392 168 391 c 0
 168 374 119 338 99 338 c 0
 96 338 93 339 92 341 c 0
 89 345 86 349 83 353 c 0
 66 375 49 397 36 422 c 0
 36 423 35 424 35 425 c 0
 35 441 87 468 110 468 c 0
 115 468 118 466 120 463 c 0
EndSplineSet
Validated: 1
EndChar

StartChar: less
Encoding: 60 60 88
Width: 452
VWidth: 0
Flags: HMW
LayerCount: 2
Fore
SplineSet
279 404 m 0
 298 404 344 361 344 343 c 0
 344 341 343 339 342 338 c 0
 311 307 280 277 250 246 c 0
 213 208 179 169 144 130 c 1
 138 121 130 113 122 105 c 1
 123 104 123 104 124 103 c 0
 136 93 141 90 154 80 c 0
 196 48 240 20 284 -8 c 1
 319 -29 355 -50 386 -77 c 0
 390 -81 393 -85 397 -89 c 0
 398 -90 398 -92 398 -94 c 0
 398 -112 352 -153 333 -153 c 0
 330 -153 328 -152 327 -150 c 0
 326 -149 325 -148 324 -147 c 0
 298 -122 266 -106 236 -86 c 1
 189 -57 143 -27 99 6 c 0
 73 26 34 48 23 82 c 0
 20 91 21 100 20 109 c 1
 22 116 23 124 26 131 c 0
 36 155 60 171 75 191 c 1
 111 231 148 270 185 309 c 0
 215 340 245 370 274 402 c 0
 275 403 277 404 279 404 c 0
EndSplineSet
Validated: 1
EndChar

StartChar: equal
Encoding: 61 61 89
Width: 626
VWidth: 0
Flags: HMW
LayerCount: 2
Fore
SplineSet
49 165 m 1
 84 158 120 158 155 158 c 0
 223 158 292 162 360 164 c 0
 413 166 465 167 518 167 c 0
 523 167 527 167 532 167 c 0
 541 167 546 146 546 125 c 0
 546 100 541 74 530 74 c 0
 526 74 521 75 517 75 c 0
 500 75 482 75 465 75 c 0
 431 75 397 75 363 74 c 0
 294 72 224 69 155 68 c 0
 143 68 132 67 120 67 c 0
 89 67 58 69 28 74 c 0
 23 75 20 82 20 93 c 0
 20 120 34 165 48 165 c 2
 49 165 l 1
71 328 m 0
 94 328 116 329 139 330 c 1
 203 336 268 342 332 346 c 0
 351 347 370 347 389 347 c 0
 425 347 462 346 498 344 c 0
 504 344 511 343 517 343 c 0
 525 343 529 325 529 305 c 0
 529 279 524 251 513 251 c 0
 512 251 l 0
 506 251 499 252 493 252 c 0
 456 254 418 257 381 257 c 0
 366 257 352 257 337 256 c 0
 273 253 210 246 146 239 c 0
 110 236 74 235 38 235 c 0
 37 235 36 235 35 235 c 0
 25 235 20 257 20 280 c 0
 20 304 26 329 36 329 c 0
 40 329 50 328 71 328 c 0
EndSplineSet
Validated: 1
EndChar

StartChar: greater
Encoding: 62 62 90
Width: 465
VWidth: 0
Flags: HMW
LayerCount: 2
Fore
SplineSet
131 392 m 1
 157 369 181 344 207 321 c 0
 243 289 281 260 318 229 c 0
 353 199 382 166 398 123 c 1
 400 114 401 105 401 97 c 0
 401 54 374 25 340 -5 c 1
 295 -40 246 -70 199 -102 c 0
 169 -123 138 -145 110 -168 c 0
 109 -169 108 -169 106 -169 c 0
 89 -169 50 -121 50 -101 c 0
 50 -98 51 -96 53 -95 c 0
 84 -72 116 -49 148 -27 c 0
 192 3 237 31 279 64 c 0
 288 72 304 85 310 94 c 1
 304 122 278 140 259 159 c 1
 222 191 183 221 146 253 c 0
 121 275 97 299 71 320 c 0
 69 321 69 323 69 326 c 0
 69 346 108 393 126 393 c 0
 128 393 131 392 131 392 c 1
EndSplineSet
Validated: 1
EndChar

StartChar: at
Encoding: 64 64 91
Width: 842
VWidth: 0
Flags: HMW
LayerCount: 2
Fore
SplineSet
350 302 m 1
 318 277 297 244 294 203 c 1
 295 180 307 169 329 165 c 0
 333 165 335 165 339 165 c 0
 370 165 398 177 425 193 c 0
 435 200 445 207 453 215 c 1
 452 220 451 226 451 231 c 1
 444 242 440 253 440 260 c 0
 440 263 440 266 442 267 c 0
 447 272 450 278 452 284 c 0
 452 285 453 285 453 286 c 0
 453 289 454 291 454 294 c 0
 452 308 442 318 430 324 c 0
 424 326 417 327 411 327 c 0
 389 327 369 314 350 302 c 1
383 616 m 1
 387 616 l 2
 465 616 538 603 607 563 c 0
 618 556 629 550 639 542 c 0
 688 505 723 454 745 397 c 1
 755 363 761 334 761 303 c 0
 761 276 756 248 745 219 c 1
 730 187 713 158 686 135 c 0
 669 121 651 108 631 99 c 0
 610 90 588 84 566 84 c 0
 553 84 540 86 527 91 c 1
 509 100 495 111 484 123 c 1
 480 120 475 117 471 114 c 0
 429 90 386 73 339 73 c 0
 327 73 315 74 302 77 c 0
 292 80 282 82 273 87 c 0
 225 110 203 159 203 211 c 0
 203 212 203 213 203 214 c 1
 205 224 206 235 208 245 c 0
 221 300 257 345 302 379 c 1
 312 385 321 392 331 397 c 0
 357 410 384 417 411 417 c 0
 434 417 459 412 481 400 c 1
 488 395 495 391 502 385 c 0
 518 371 530 355 537 336 c 1
 553 325 565 312 565 304 c 0
 565 303 565 301 564 300 c 0
 557 290 551 278 545 267 c 1
 544 266 l 1
 562 257 578 245 578 237 c 0
 578 236 577 235 577 234 c 0
 574 229 572 223 569 218 c 0
 563 208 557 199 551 190 c 1
 553 183 557 177 565 176 c 1
 575 176 585 180 594 184 c 0
 606 190 616 198 626 206 c 0
 642 220 653 239 662 258 c 0
 668 273 670 289 670 305 c 0
 670 327 665 349 658 371 c 1
 638 423 603 458 557 488 c 1
 507 517 450 526 393 526 c 0
 390 526 387 526 384 526 c 0
 317 522 259 492 206 453 c 1
 163 417 128 371 115 316 c 0
 112 305 112 295 110 284 c 0
 109 276 109 269 109 261 c 0
 109 211 121 162 148 119 c 0
 154 109 160 101 167 92 c 0
 218 33 285 9 359 -7 c 1
 384 -11 408 -14 432 -14 c 0
 498 -14 562 2 627 23 c 1
 671 40 l 2
 672 40 672 41 673 41 c 0
 687 41 709 -7 709 -30 c 0
 709 -36 707 -41 704 -42 c 0
 687 -49 671 -54 654 -61 c 0
 637 -67 620 -73 602 -78 c 0
 547 -93 490 -102 433 -102 c 0
 402 -102 371 -99 340 -94 c 1
 324 -90 308 -87 292 -83 c 0
 215 -62 145 -22 94 40 c 1
 85 53 76 65 68 78 c 0
 35 134 20 197 20 261 c 0
 20 274 21 286 22 299 c 1
 25 314 26 329 30 344 c 0
 49 417 95 478 153 525 c 1
 165 533 177 543 189 551 c 0
 248 589 313 612 383 616 c 1
EndSplineSet
Validated: 1
EndChar

StartChar: asciitilde
Encoding: 126 126 92
Width: 618
VWidth: 0
Flags: HMW
LayerCount: 2
Fore
SplineSet
22 291 m 0
 55 319 94 336 134 351 c 0
 169 364 205 370 241 370 c 0
 255 370 269 369 284 367 c 0
 324 360 355 337 387 314 c 0
 405 301 425 296 446 295 c 0
 448 295 448 295 450 295 c 0
 468 295 486 299 502 306 c 0
 505 307 507 309 510 310 c 0
 511 310 512 311 513 311 c 0
 529 311 557 259 557 237 c 0
 557 232 556 229 553 228 c 0
 548 225 543 223 538 220 c 0
 510 209 481 202 451 202 c 0
 447 202 442 203 438 203 c 0
 400 207 364 216 333 239 c 0
 313 253 295 270 271 276 c 0
 261 278 249 279 239 279 c 0
 214 279 190 274 166 266 c 1
 137 255 108 243 85 222 c 0
 84 221 82 220 80 220 c 0
 62 220 20 267 20 286 c 0
 20 288 20 290 22 291 c 0
EndSplineSet
Validated: 1
EndChar

StartChar: quotedblleft
Encoding: 8220 8220 94
Width: 292
VWidth: 0
Flags: MW
LayerCount: 2
Fore
SplineSet
89 702 m 0
 100 671 112 641 127 612 c 0
 136 593 148 575 160 557 c 0
 161 556 161 555 161 553 c 0
 161 537 111 504 91 504 c 0
 87 504 84 505 83 507 c 1
 69 528 56 549 45 571 c 0
 24 613 -0 670 -0 672 c 0
 -0 687 49 708 75 708 c 0
 82 708 87 706 89 702 c 0
233 662 m 0
 240 639 251 618 262 597 c 0
 262 596 263 595 263 594 c 0
 263 579 212 551 190 551 c 0
 185 551 181 552 180 555 c 1
 166 581 153 608 143 636 c 1
 143 637 143 637 143 638 c 0
 143 652 190 669 216 669 c 0
 225 669 232 667 233 662 c 0
EndSplineSet
Validated: 1
EndChar

StartChar: quotedblright
Encoding: 8221 8221 95
Width: 322
VWidth: 0
Flags: MW
LayerCount: 2
Fore
SplineSet
-0 631 m 0
 0 640 61 711 69 711 c 0
 86 711 126 662 126 642 c 0
 126 630 119 642 77 582 c 0
 76 580 73 579 70 579 c 0
 50 579 0 615 -0 631 c 0
281 684 m 0
 281 677 276 687 231 598 c 1
 209 548 213 548 200 548 c 0
 176 548 128 570 128 585 c 0
 128 586 134 604 148 637 c 1
 165 674 183 710 209 742 c 0
 210 744 213 744 215 744 c 0
 234 744 281 702 281 684 c 0
EndSplineSet
Validated: 1
EndChar

StartChar: quoteright
Encoding: 8217 8217 96
Width: 174
VWidth: 0
Flags: MW
LayerCount: 2
Fore
SplineSet
76 518 m 0
 75 516 72 515 69 515 c 0
 49 515 -0 550 -0 566 c 0
 -0 568 0 569 1 570 c 0
 21 599 41 628 54 661 c 0
 55 665 60 666 66 666 c 0
 90 666 141 643 141 628 c 0
 141 623 122 584 76 518 c 0
EndSplineSet
Validated: 1
EndChar

StartChar: quoteleft
Encoding: 8216 8216 97
Width: 176
VWidth: 0
Flags: MW
LayerCount: 2
Fore
SplineSet
78 671 m 0
 100 636 121 601 141 565 c 0
 142 564 142 563 142 562 c 0
 142 546 92 515 71 515 c 0
 67 515 64 516 62 519 c 1
 43 552 23 586 1 617 c 0
 0 618 -0 619 -0 621 c 0
 -0 638 50 674 71 674 c 0
 74 674 76 673 78 671 c 0
EndSplineSet
Validated: 1
EndChar

StartChar: cent
Encoding: 162 162 98
Width: 520
VWidth: 0
Flags: HW
LayerCount: 2
Fore
SplineSet
192 51 m 1x86
 189 68 l 1
 156 258 l 1
 133 231 114 200 100 167 c 1
 96 152 90 132 90 114 c 0
 90 99 94 85 106 74 c 0
 109 71 113 70 117 67 c 1
 141 57 166 52 192 51 c 1x86
319 333 m 0
 316 342 308 343 300 345 c 1
 298 345 296 345 294 345 c 0
 272 345 252 336 233 324 c 1
 275 83 l 1x2e
 280 56 l 1x46
 298 59 l 2
 332 64 365 73 398 83 c 0
 399 83 399 83 400 83 c 0
 413 83 429 37 429 12 c 0
 429 4 427 -3 423 -4 c 0x26
 386 -15 348 -25 309 -30 c 2
 295 -32 l 1x46
 323 -195 l 2
 323 -196 l 0
 323 -209 284 -219 258 -219 c 0
 245 -219 235 -216 234 -210 c 2
 207 -39 l 1
 204 -39 201 -39 198 -39 c 0
 162 -39 127 -34 94 -21 c 0
 81 -16 69 -9 57 -2 c 1
 47 7 36 15 28 26 c 0
 8 52 0 82 -0 113 c 0
 0 144 8 175 18 204 c 1
 24 216 28 228 34 240 c 0
 59 288 95 330 136 365 c 1
 130 397 l 1
 103 530 92 555 92 558 c 0
 92 572 140 590 166 590 c 0
 174 590 181 588 182 584 c 1
 196 529 206 474 216 418 c 1
 240 430 267 437 294 437 c 0
 306 437 318 436 330 433 c 1
 371 418 394 400 409 358 c 1
 409 357 409 357 409 356 c 0
 409 343 362 326 336 326 c 0x96
 327 326 320 328 319 333 c 0
EndSplineSet
Validated: 1
EndChar

StartChar: currency
Encoding: 164 164 99
Width: 763
VWidth: 0
Flags: HW
LayerCount: 2
Fore
SplineSet
290 318 m 0
 268 314 251 300 235 286 c 1
 201 252 180 210 168 164 c 1
 166 154 165 144 165 135 c 0
 165 111 173 92 197 74 c 1
 219 62 242 58 266 58 c 0
 291 58 317 63 342 68 c 1
 398 84 448 113 487 157 c 1
 499 172 503 187 503 203 c 0
 503 219 498 235 492 251 c 1
 474 290 444 318 407 338 c 1
 387 347 367 351 347 351 c 0
 331 351 316 348 300 345 c 1
 300 330 297 319 290 318 c 0
164 -29 m 0
 141 -57 118 -85 94 -112 c 0
 78 -130 86 -121 71 -138 c 0
 70 -140 67 -140 65 -140 c 0
 46 -140 0 -99 0 -81 c 0
 0 -79 1 -77 2 -76 c 0
 17 -59 9 -69 25 -51 c 0
 47 -26 69 -1 89 26 c 0
 90 28 93 29 96 29 c 0
 102 29 112 25 121 20 c 1
 118 23 114 26 111 29 c 0
 84 60 74 98 74 136 c 0
 74 154 76 171 80 189 c 1
 93 232 110 271 134 306 c 1
 116 325 98 345 83 366 c 0
 59 400 33 436 23 478 c 1
 23 479 l 0
 23 492 62 502 89 502 c 0
 104 502 115 499 116 492 c 1
 125 465 142 442 158 419 c 0
 170 403 182 388 196 373 c 1
 218 390 242 404 269 410 c 1
 268 423 271 433 277 434 c 0
 301 439 324 442 347 442 c 0
 382 442 417 435 452 418 c 0
 461 413 468 408 476 403 c 1
 494 424 514 444 534 463 c 0
 560 487 587 511 617 531 c 0
 618 532 620 532 621 532 c 0
 638 532 670 482 670 460 c 0
 670 456 669 454 667 452 c 0
 641 436 618 416 596 396 c 0
 577 379 560 360 543 341 c 1
 556 324 568 304 578 281 c 1
 581 271 586 260 589 250 c 0
 593 235 595 220 595 206 c 0
 595 166 580 128 554 95 c 1
 546 87 538 78 530 70 c 0
 520 60 509 52 497 44 c 1
 531 13 l 2
 551 -5 570 -23 589 -43 c 0
 590 -44 591 -46 591 -48 c 0
 591 -66 545 -108 527 -108 c 0
 525 -108 523 -107 522 -106 c 0
 505 -88 489 -71 470 -55 c 0
 451 -38 431 -20 412 -2 c 1
 395 -9 377 -15 360 -20 c 1
 327 -27 295 -32 264 -32 c 0
 225 -32 188 -24 151 -3 c 1
 162 -13 168 -23 164 -29 c 0
EndSplineSet
Validated: 1
EndChar

StartChar: yen
Encoding: 165 165 100
Width: 623
VWidth: 0
Flags: HW
LayerCount: 2
Fore
SplineSet
29 195 m 1xc6
 69 201 110 203 150 205 c 0
 174 206 198 207 223 208 c 1
 243 261 l 1
 228 261 213 262 198 262 c 0
 158 263 117 264 77 267 c 0
 69 268 66 282 66 299 c 0
 66 326 74 360 86 360 c 0
 87 360 l 0xae
 124 355 162 354 200 353 c 0
 211 353 222 352 233 352 c 1
 204 379 l 1
 161 421 120 465 84 514 c 0
 58 550 32 587 2 619 c 0
 1 620 0 622 0 624 c 0
 0 643 44 688 62 688 c 0
 64 688 66 687 67 686 c 1
 100 649 128 608 157 568 c 0
 189 523 227 483 267 445 c 0
 278 435 290 425 301 415 c 1
 327 485 l 2
 348 539 367 595 400 643 c 1
 401 645 403 645 406 645 c 0
 425 645 473 605 473 587 c 0
 473 585 472 583 471 582 c 1
 444 542 428 496 410 452 c 2
 370 350 l 1
 374 350 377 350 381 350 c 0
 420 348 460 346 497 330 c 1
 500 328 501 325 501 320 c 0
 501 297 474 245 458 245 c 0
 457 245 456 246 455 246 c 0
 434 257 402 256 377 259 c 0
 364 260 349 260 336 260 c 1
 317 208 l 1
 328 208 340 207 351 207 c 0
 380 206 410 202 439 198 c 0
 445 197 448 186 448 172 c 0
 448 145 438 108 426 108 c 0
 425 108 l 0
 399 112 373 116 347 117 c 0
 327 118 307 119 287 119 c 1xb6
 273 76 262 31 253 -13 c 1
 250 -35 251 -24 249 -44 c 0
 248 -51 236 -54 220 -54 c 0
 193 -54 157 -46 157 -34 c 0
 157 -26 162 -2 163 6 c 0
 171 43 181 81 192 117 c 1
 180 116 167 115 155 114 c 0
 120 112 85 111 50 104 c 0
 49 104 l 0
 36 104 22 148 22 175 c 0
 22 186 24 194 29 195 c 1xc6
EndSplineSet
Validated: 1
EndChar

StartChar: section
Encoding: 167 167 101
Width: 529
VWidth: 0
Flags: HW
LayerCount: 2
Fore
SplineSet
309 647 m 0xf0
 305 647 302 648 298 648 c 0
 261 642 l 0
 238 636 216 625 195 613 c 0
 176 601 156 588 145 568 c 1
 143 559 148 566 149 566 c 0
 152 565 155 562 157 560 c 0
 183 541 212 529 240 515 c 0
 281 496 319 473 353 444 c 1
 384 416 406 382 423 344 c 0
 433 321 438 299 438 276 c 0xe8
 438 261 436 246 432 230 c 1
 417 190 386 165 349 146 c 1
 340 142 l 1
 355 131 368 118 381 105 c 0
 406 79 421 48 428 13 c 1
 428 10 428 8 428 5 c 0
 428 -40 403 -66 366 -92 c 1
 327 -115 284 -129 240 -141 c 0
 208 -149 175 -153 142 -153 c 0
 128 -153 113 -152 98 -151 c 0
 90 -150 87 -136 87 -118 c 0
 87 -92 94 -60 105 -60 c 0
 106 -60 l 0
 117 -61 127 -61 137 -61 c 0
 163 -61 190 -58 216 -52 c 0
 250 -43 284 -33 315 -16 c 0
 322 -12 329 -4 336 -2 c 1
 336 15 323 29 314 41 c 1
 297 60 276 76 253 87 c 0
 224 101 194 112 162 119 c 0
 126 128 89 136 56 153 c 1
 21 175 0 200 0 238 c 0
 0 245 1 252 2 259 c 1
 15 300 39 334 70 364 c 0
 103 395 139 425 182 440 c 1
 183 441 l 1
 151 456 118 471 91 494 c 1
 67 518 54 541 54 568 c 0
 54 583 58 599 67 617 c 1
 88 649 116 674 149 693 c 0
 178 709 207 724 239 732 c 0
 260 737 281 741 302 741 c 0
 308 741 313 741 319 740 c 0
 327 739 330 725 330 708 c 0
 330 681 322 647 310 647 c 0
 309 647 l 0xf0
260 358 m 0
 256 359 251 359 247 359 c 0
 234 359 221 356 209 352 c 0
 179 341 156 320 133 298 c 1
 117 279 95 260 91 235 c 0
 91 234 91 233 92 233 c 0
 95 232 90 239 103 233 c 0
 129 221 157 216 184 209 c 0
 192 207 201 204 209 202 c 1
 211 205 213 208 216 208 c 0
 220 208 224 209 228 209 c 0
 255 212 282 217 307 228 c 0
 321 235 335 243 343 257 c 1
 345 263 346 268 346 274 c 0
 346 285 343 296 339 306 c 0
 328 331 313 355 293 374 c 0
 289 378 285 382 281 385 c 1
 276 370 268 358 261 358 c 0
 260 358 l 0
EndSplineSet
Validated: 1
EndChar

StartChar: guillemotleft
Encoding: 171 171 102
Width: 442
VWidth: 0
Flags: HW
LayerCount: 2
Fore
SplineSet
140 398 m 0
 160 398 209 360 209 343 c 0
 209 342 209 340 208 339 c 0
 187 310 169 279 151 248 c 0
 134 218 115 187 99 156 c 1
 114 144 128 131 141 118 c 0
 160 99 178 79 196 59 c 0
 204 51 211 43 219 35 c 0
 220 34 221 32 221 30 c 0
 221 11 176 -34 158 -34 c 0
 156 -34 154 -33 153 -32 c 0
 144 -23 136 -12 127 -3 c 0
 110 16 93 34 75 52 c 0
 60 66 46 81 29 92 c 1
 9 109 0 127 0 147 c 0
 0 160 4 173 11 187 c 1
 30 223 52 258 72 294 c 0
 92 328 111 362 133 395 c 0
 134 397 137 398 140 398 c 0
288 366 m 0
 289 366 l 0
 308 366 353 323 353 305 c 0
 353 303 352 301 351 300 c 0
 331 279 313 256 295 233 c 1
 285 218 271 205 261 189 c 1
 280 169 294 145 307 122 c 0
 321 96 336 72 353 48 c 0
 361 38 357 43 364 33 c 0
 365 32 365 31 365 29 c 0
 365 12 317 -27 297 -27 c 0
 294 -27 291 -26 290 -24 c 0
 282 -13 286 -19 277 -6 c 0
 259 20 243 48 227 76 c 0
 217 94 206 113 191 127 c 1
 172 143 160 160 160 181 c 0
 160 190 162 200 167 211 c 1
 182 240 203 265 223 291 c 0
 243 316 262 340 283 364 c 0
 284 365 286 366 288 366 c 0
EndSplineSet
Validated: 1
EndChar

StartChar: degree
Encoding: 176 176 103
Width: 448
VWidth: 0
Flags: HW
LayerCount: 2
Fore
SplineSet
163 546 m 0xb0
 146 537 133 521 124 504 c 1
 118 498 121 474 124 495 c 1
 153 495 179 501 206 512 c 1
 229 524 258 539 265 566 c 1
 263 573 253 578 247 582 c 0
 231 592 213 594 195 594 c 0
 186 594 182 612 182 632 c 0
 182 657 189 686 200 686 c 0xd0
 232 685 272 677 303 655 c 1
 335 629 355 601 355 565 c 0
 355 554 354 543 350 530 c 0
 347 523 343 515 339 508 c 0
 317 470 278 445 239 427 c 1
 205 414 170 404 135 404 c 0
 115 404 94 407 74 416 c 1
 66 422 58 427 51 434 c 0
 35 451 29 471 29 491 c 0
 29 511 35 533 45 551 c 1
 65 583 88 612 122 630 c 0
 123 630 124 631 125 631 c 0
 141 631 167 580 167 557 c 0
 167 552 166 548 163 546 c 0xb0
EndSplineSet
Validated: 1
EndChar

StartChar: acute
Encoding: 180 180 104
Width: 241
VWidth: 0
Flags: HW
LayerCount: 2
Fore
SplineSet
36 553 m 0
 65 580 95 606 126 630 c 0
 127 631 128 631 130 631 c 0
 147 631 185 583 185 564 c 0
 185 561 185 559 183 558 c 0
 155 536 127 512 102 486 c 0
 101 485 99 484 97 484 c 0
 79 484 34 529 34 548 c 0
 34 550 35 552 36 553 c 0
EndSplineSet
Validated: 1
EndChar

StartChar: paragraph
Encoding: 182 182 105
Width: 738
VWidth: 0
Flags: HW
LayerCount: 2
Fore
SplineSet
444 258 m 1
 450 326 457 394 464 462 c 0
 468 495 471 528 477 561 c 1
 462 558 446 554 431 550 c 0
 360 528 300 485 246 435 c 1
 217 402 182 364 182 318 c 0
 182 310 184 307 185 301 c 1
 199 268 234 259 266 252 c 1
 286 249 307 247 328 247 c 0
 367 247 405 252 444 258 c 1
659 372 m 0
 650 299 646 226 644 152 c 0
 644 139 644 126 644 113 c 0
 644 77 645 41 646 5 c 0
 646 1 646 -3 646 -7 c 0
 646 -18 620 -24 595 -24 c 0
 574 -24 553 -19 553 -10 c 0
 553 -6 553 -2 553 2 c 0
 553 23 552 44 552 65 c 0
 552 95 553 125 554 155 c 0
 557 231 561 307 569 383 c 0
 575 433 580 482 589 532 c 0
 590 535 592 537 595 538 c 1
 588 546 579 551 570 555 c 1
 562 521 557 487 553 452 c 0
 546 390 541 327 535 264 c 1
 544 249 551 222 551 205 c 0
 551 196 549 189 544 188 c 2
 528 184 l 1
 524 140 522 94 522 50 c 1
 523 47 523 44 523 41 c 0
 523 35 522 28 522 22 c 0
 522 16 523 10 526 5 c 0
 527 4 526 7 526 8 c 1
 526 7 527 7 527 6 c 0
 527 -9 475 -33 451 -33 c 0
 445 -33 441 -31 439 -28 c 1
 432 -6 430 16 430 39 c 0
 430 43 430 47 430 51 c 0
 431 89 433 128 436 166 c 1
 399 161 362 157 325 157 c 0
 244 164 l 1
 185 179 130 200 103 261 c 0
 98 272 97 284 94 295 c 1
 94 305 92 315 92 325 c 0
 92 327 92 328 92 330 c 0
 97 397 142 454 186 501 c 1
 251 561 322 612 407 638 c 1
 445 648 484 656 523 656 c 0
 546 656 569 653 592 646 c 1
 625 633 655 616 676 587 c 0
 677 586 677 584 677 583 c 0
 677 571 653 549 632 537 c 1
 656 532 680 521 680 511 c 0
 680 509 677 512 659 372 c 0
EndSplineSet
Validated: 1
EndChar

StartChar: periodcentered
Encoding: 183 183 106
Width: 232
VWidth: 0
Flags: HW
LayerCount: 2
Fore
SplineSet
89 318 m 0
 96 299 105 280 115 263 c 0
 119 255 125 248 130 241 c 0
 131 240 131 238 131 237 c 0
 131 220 81 184 61 184 c 0
 58 184 55 185 54 187 c 0
 47 197 41 207 35 217 c 0
 19 244 0 282 -0 288 c 0
 0 303 50 324 75 324 c 0
 82 324 87 322 89 318 c 0
EndSplineSet
Validated: 1
EndChar

StartChar: guillemotright
Encoding: 187 187 107
Width: 424
VWidth: 0
Flags: HW
LayerCount: 2
Fore
SplineSet
100 392 m 1
 108 371 120 352 131 332 c 0
 143 312 156 292 168 271 c 0
 178 255 182 237 182 219 c 0
 182 213 182 208 181 202 c 1
 174 172 161 144 149 115 c 0
 134 78 120 42 107 4 c 0
 101 -14 95 -34 89 -52 c 0
 87 -56 82 -58 75 -58 c 0
 50 -58 0 -37 -0 -22 c 0
 0 -20 14 15 20 34 c 0
 34 73 47 111 63 149 c 0
 72 171 81 194 88 217 c 1
 93 217 88 220 86 226 c 1
 75 246 63 265 51 285 c 0
 37 308 24 332 13 357 c 0
 13 358 12 358 12 359 c 0
 12 374 64 397 88 397 c 0
 94 397 98 396 100 392 c 1
259 422 m 0
 276 402 291 380 305 358 c 0
 318 337 329 316 340 294 c 0
 350 276 353 257 353 238 c 0
 353 229 352 220 351 211 c 1
 343 172 329 135 316 97 c 0
 301 53 285 8 271 -37 c 0
 267 -51 263 -65 259 -79 c 0
 258 -84 252 -85 243 -85 c 0
 217 -85 170 -68 170 -54 c 0
 170 -52 184 -9 184 -9 c 0
 199 36 214 81 229 126 c 0
 240 158 251 191 259 224 c 0
 261 235 262 244 256 254 c 1
 247 273 238 291 227 308 c 0
 215 327 203 345 188 362 c 0
 187 363 186 365 186 367 c 0
 186 384 234 424 253 424 c 0
 256 424 258 424 259 422 c 0
EndSplineSet
Validated: 1
EndChar

StartChar: multiply
Encoding: 215 215 108
Width: 604
VWidth: 0
Flags: HW
LayerCount: 2
Fore
SplineSet
509 398 m 1
 475 384 446 359 418 335 c 0
 390 310 362 284 336 257 c 1
 391 209 l 2
 434 172 475 135 514 94 c 0
 515 93 516 91 516 89 c 0
 516 71 470 29 452 29 c 0
 450 29 448 30 447 31 c 0
 411 70 372 106 332 141 c 2
 276 191 l 1
 231 139 l 1
 184 82 139 24 97 -37 c 0
 85 -56 90 -48 80 -65 c 0
 79 -67 76 -69 72 -69 c 0
 51 -69 0 -36 0 -20 c 0
 0 -19 0 -18 1 -17 c 0
 14 4 7 -7 22 15 c 0
 67 77 115 137 164 196 c 2
 210 250 l 1
 165 291 l 2
 134 319 104 349 69 372 c 0
 66 374 65 377 65 381 c 0
 65 403 96 454 112 454 c 0
 113 454 114 454 115 453 c 1
 155 425 191 391 227 357 c 2
 270 316 l 1
 299 346 328 376 359 404 c 0
 396 436 435 470 482 488 c 1
 483 488 483 488 484 488 c 0
 498 488 515 440 515 414 c 0
 515 405 514 399 509 398 c 1
EndSplineSet
Validated: 1
EndChar

StartChar: divide
Encoding: 247 247 109
Width: 625
VWidth: 0
Flags: HW
LayerCount: 2
Fore
SplineSet
271 513 m 1x00
 294 496 314 475 334 455 c 0
 346 443 340 450 351 438 c 0
 352 437 353 435 353 433 c 0
 353 415 307 373 288 373 c 0
 286 373 283 373 282 375 c 0
 274 384 278 379 269 389 c 0
 253 405 237 421 219 434 c 1
 217 436 216 438 216 442 c 0
 216 463 250 514 267 514 c 0
 268 514 270 514 271 513 c 1x00
11 284 m 0x80
 58 288 105 295 152 300 c 0
 233 309 314 313 396 314 c 0
 446 314 497 312 547 309 c 0
 555 309 559 292 559 273 c 0
 559 248 552 218 541 218 c 0
 527 218 484 225 397 225 c 1x40
 319 224 241 220 163 210 c 0
 116 204 68 198 21 191 c 0
 20 191 l 0
 8 191 0 225 0 252 c 0
 0 269 3 283 11 284 c 0x80
310 152 m 0
 328 130 348 110 368 91 c 0
 369 90 370 88 370 86 c 0
 370 68 326 23 308 23 c 0
 306 23 304 24 303 25 c 0
 282 46 261 67 241 89 c 0
 240 90 239 92 239 94 c 0
 239 112 285 154 304 154 c 0
 306 154 309 154 310 152 c 0
EndSplineSet
Validated: 1
EndChar

StartChar: endash
Encoding: 8211 8211 110
Width: 433
VWidth: 0
Flags: HW
LayerCount: 2
Fore
SplineSet
25 274 m 1
 64 269 104 269 143 269 c 0
 210 269 277 268 344 262 c 0
 352 261 355 247 355 229 c 0
 355 203 348 171 337 171 c 2
 336 171 l 1
 272 177 208 179 143 179 c 0
 121 179 98 178 76 178 c 0
 54 178 31 179 9 181 c 0
 3 182 0 192 -0 206 c 0
 0 234 11 274 24 274 c 2
 25 274 l 1
EndSplineSet
Validated: 1
EndChar

StartChar: arrowleft
Encoding: 8592 8592 111
Width: 1126
VWidth: 0
Flags: HW
LayerCount: 2
Fore
SplineSet
92 188 m 1
 87 184 82 178 88 181 c 1
 90 180 91 184 92 188 c 1
368 481 m 0
 383 481 408 430 408 406 c 0
 408 400 406 396 403 394 c 0
 368 377 335 354 303 332 c 0
 266 307 229 282 192 257 c 1
 233 254 275 250 316 248 c 0
 340 247 363 246 387 246 c 1
 640 258 l 1
 755 266 870 272 985 273 c 1
 1032 272 l 2
 1041 272 1045 252 1045 231 c 0
 1045 208 1040 184 1030 184 c 2
 985 184 l 2
 872 184 759 179 646 171 c 0
 554 164 461 157 368 157 c 0
 349 157 330 157 311 158 c 0
 260 160 211 164 160 165 c 0
 149 165 143 192 143 218 c 0
 143 220 143 222 143 224 c 1
 138 221 134 217 129 214 c 0
 120 208 109 201 100 194 c 1
 107 187 115 179 122 173 c 0
 158 144 198 123 240 104 c 0
 277 88 315 75 352 60 c 0
 356 58 360 57 364 55 c 0
 367 54 369 50 369 45 c 0
 369 22 342 -30 327 -30 c 0
 326 -30 325 -29 324 -29 c 0
 321 -28 320 -26 317 -25 c 0
 279 -9 240 4 203 21 c 0
 153 44 104 68 61 103 c 0
 33 127 0 158 -0 198 c 0
 0 200 0 201 0 203 c 0
 1 212 5 220 7 228 c 1
 11 234 15 240 19 245 c 0
 40 270 73 283 98 303 c 1
 150 337 201 372 252 407 c 0
 289 433 326 459 366 480 c 0
 367 480 367 481 368 481 c 0
EndSplineSet
Validated: 1
EndChar

StartChar: arrowup
Encoding: 8593 8593 112
Width: 481
VWidth: 0
Flags: HW
LayerCount: 2
Fore
SplineSet
257 786 m 0
 267 786 277 782 287 780 c 1
 294 774 303 770 309 763 c 0
 334 737 343 683 352 649 c 0
 364 599 375 549 389 500 c 0
 394 484 404 454 404 452 c 0
 404 438 356 419 331 419 c 0
 323 419 317 421 316 425 c 0
 311 442 305 459 300 476 c 0
 288 522 278 568 267 614 c 1
 267 595 267 576 267 557 c 0
 267 440 261 323 254 206 c 0
 247 104 240 3 234 -99 c 0
 232 -126 231 -153 231 -180 c 0
 231 -189 211 -193 190 -193 c 0
 166 -193 139 -187 139 -177 c 0
 139 -169 142 -127 144 -93 c 0
 152 8 161 109 168 211 c 0
 174 309 178 406 178 504 c 0
 178 521 178 539 178 556 c 0
 178 573 178 591 177 608 c 1
 167 598 157 588 148 577 c 0
 124 548 100 519 81 486 c 0
 80 484 77 482 73 482 c 0
 52 482 0 516 0 532 c 0
 0 533 0 534 1 535 c 0
 24 571 51 604 79 636 c 0
 111 674 146 708 182 742 c 1
 203 760 226 786 257 786 c 0
EndSplineSet
Validated: 1
EndChar

StartChar: arrowright
Encoding: 8594 8594 113
Width: 1075
VWidth: 0
Flags: HW
LayerCount: 2
Fore
SplineSet
915 256 m 1
 916 253 917 250 919 248 c 1
 919 248 920 249 920 250 c 0
 919 252 917 254 915 256 c 1
883 283 m 1
 883 266 880 249 875 240 c 1
 886 248 897 255 908 263 c 1
 907 264 904 266 903 267 c 0
 896 272 890 278 883 283 c 1
748 507 m 0
 751 507 753 506 755 504 c 0
 778 476 806 454 834 431 c 0
 875 399 919 371 960 340 c 1
 984 320 1007 296 1007 263 c 0
 1007 234 997 227 982 207 c 1
 938 168 886 140 835 110 c 0
 796 87 758 63 720 38 c 0
 719 37 717 37 716 37 c 0
 700 37 667 85 667 105 c 0
 667 108 668 112 670 113 c 0
 709 139 749 163 789 187 c 0
 815 202 841 218 866 234 c 1
 851 235 836 235 821 236 c 0
 742 239 664 241 585 241 c 2
 491 240 l 1
 386 237 281 231 177 218 c 0
 130 213 83 206 36 203 c 1
 34 201 32 200 30 200 c 0
 22 201 16 202 12 202 c 0
 11 202 10 202 9 202 c 0
 3 202 1 204 1 207 c 0
 1 211 4 218 7 231 c 1
 4 262 0 278 -0 287 c 0
 0 293 3 296 10 296 c 0
 13 296 17 295 22 295 c 0
 71 296 120 301 168 306 c 0
 274 317 381 324 488 327 c 0
 521 328 553 328 586 328 c 2
 824 324 l 1
 808 335 792 347 777 359 c 0
 743 386 710 414 682 446 c 0
 681 447 681 448 681 450 c 0
 681 467 728 506 748 507 c 0
EndSplineSet
Validated: 1
EndChar

StartChar: arrowdown
Encoding: 8595 8595 114
Width: 520
VWidth: 0
Flags: HW
LayerCount: 2
Fore
SplineSet
87 119 m 0
 99 90 115 63 130 35 c 0
 149 0 168 -34 192 -65 c 0
 194 -67 196 -70 198 -72 c 1
 206 -61 l 2
 222 -40 237 -18 252 4 c 0
 286 54 320 104 353 155 c 0
 362 169 371 182 378 197 c 0
 379 200 383 201 387 201 c 0
 409 201 460 171 460 156 c 0
 460 155 459 154 459 153 c 0
 450 136 441 120 430 104 c 0
 396 54 361 3 327 -47 c 0
 307 -77 275 -132 247 -155 c 0
 240 -161 231 -165 223 -170 c 1
 213 -172 203 -174 193 -174 c 0
 159 -173 137 -143 118 -120 c 1
 92 -85 70 -47 49 -9 c 0
 47 -5 1 80 1 86 c 0
 1 100 51 124 75 124 c 0
 81 124 86 123 87 119 c 0
237 703 m 0
 238 651 239 598 239 546 c 0
 239 487 239 427 239 368 c 0
 239 338 239 309 239 279 c 0
 239 216 242 153 248 90 c 0
 250 69 256 27 256 25 c 0
 256 13 220 4 193 4 c 0
 177 4 164 8 163 15 c 0
 161 37 159 60 157 82 c 0
 152 147 150 214 150 279 c 0
 150 368 150 456 149 545 c 0
 147 658 143 695 143 700 c 0
 143 711 170 717 195 717 c 0
 217 717 237 712 237 703 c 0
207 -82 m 1
 209 -84 212 -86 214 -87 c 2
 214 -87 210 -83 207 -82 c 1
EndSplineSet
Validated: 1
EndChar

StartChar: arrowboth
Encoding: 8596 8596 115
Width: 1664
VWidth: 0
Flags: HW
LayerCount: 2
Fore
SplineSet
1341 440 m 0
 1377 427 1410 411 1444 394 c 0
 1478 376 1511 354 1538 326 c 1
 1550 308 1555 293 1555 279 c 0
 1555 247 1525 225 1488 206 c 1
 1435 183 1381 163 1328 141 c 0
 1318 137 1307 132 1297 128 c 0
 1296 128 1295 127 1294 127 c 0
 1279 127 1256 175 1256 198 c 0
 1256 204 1258 208 1261 210 c 0
 1272 215 1282 219 1293 224 c 2
 1332 241 l 1
 1326 241 1321 241 1315 241 c 0
 1201 241 1087 242 973 243 c 1
 841 243 708 241 576 236 c 0
 476 232 378 227 278 226 c 1
 284 225 290 224 296 223 c 0
 302 222 305 211 305 198 c 0
 305 171 294 132 282 132 c 2
 281 132 l 1
 234 140 188 150 143 164 c 1
 102 178 60 192 25 218 c 1
 20 223 14 227 10 234 c 0
 3 246 0 257 0 267 c 0
 0 292 19 312 45 326 c 1
 78 342 110 358 143 374 c 0
 172 389 201 404 229 422 c 0
 230 423 232 423 233 423 c 0
 250 423 282 373 282 351 c 0
 282 347 281 345 279 343 c 2
 233 317 l 1
 243 317 253 316 263 316 c 0
 277 316 292 316 306 316 c 0
 395 316 484 320 573 323 c 0
 706 327 840 330 973 330 c 0
 1064 330 1156 329 1247 329 c 2
 1315 329 l 2
 1332 329 1349 329 1366 330 c 1
 1348 338 1330 346 1311 352 c 0
 1307 353 1305 358 1305 366 c 0
 1305 391 1324 440 1339 440 c 0
 1340 440 1340 440 1341 440 c 0
1487 339 m 1
 1490 340 1491 341 1491 341 c 1
 1491 341 1489 341 1487 339 c 1
EndSplineSet
Validated: 1
EndChar

StartChar: universal
Encoding: 8704 8704 116
Width: 703
VWidth: 0
Flags: W
HStem: -50 21G<257.5 284> 315 90<183 383>
VStem: -0 89<544 612.236> 543 81<688.762 738.271>
LayerCount: 2
Fore
SplineSet
153 401 m 1
 205 403 257 405 309 405 c 0
 344 405 379 403 414 400 c 1
 415 399 l 1
 432 444 l 2
 458 515 483 587 509 658 c 0
 520 686 530 716 543 743 c 1
 551 757 547 750 560 764 c 0
 561 765 563 766 565 766 c 0
 583 766 624 718 624 699 c 0
 624 698 624 696 623 695 c 0
 612 673 605 649 594 626 c 1
 566 556 540 485 514 414 c 0
 478 317 443 219 406 122 c 0
 391 83 362 1 332 -28 c 0
 325 -35 317 -40 309 -46 c 1
 299 -47 289 -50 279 -50 c 2
 273 -50 l 1
 242 -46 227 -12 214 12 c 0
 186 65 159 120 137 176 c 0
 103 263 75 352 47 442 c 0
 27 507 0 590 -0 593 c 0
 0 607 48 626 74 626 c 0
 82 626 88 624 89 620 c 0
 104 569 118 519 133 468 c 2
 153 401 l 1
625 698 m 1
 627 700 l 1
 626 701 l 1
 625 698 l 1
383 311 m 1
 359 313 334 315 309 315 c 0
 267 315 225 313 183 310 c 1
 195 276 207 241 220 208 c 0
 239 161 262 116 286 72 c 1
 299 99 311 128 323 156 c 1
 383 311 l 1
307 35 m 1
 308 33 310 31 312 29 c 1
 312 29 312 31 311 32 c 2
 307 35 l 1
EndSplineSet
Validated: 1
EndChar

StartChar: existential
Encoding: 8707 8707 117
Width: 604
VWidth: 0
Flags: HW
LayerCount: 2
Fore
SplineSet
98 365 m 1
 143 362 188 359 233 357 c 0
 278 355 322 352 367 348 c 0
 374 347 378 333 378 316 c 0
 378 290 370 258 359 258 c 2
 358 258 l 1
 315 262 272 265 229 267 c 0
 183 269 137 270 91 271 c 0
 83 272 79 289 79 308 c 0
 79 334 86 365 97 365 c 2
 98 365 l 1
26 50 m 1
 52 46 79 45 105 45 c 2
 131 45 l 2
 163 45 196 46 228 46 c 0
 260 46 292 45 324 45 c 0
 340 45 355 45 371 44 c 1
 371 47 371 49 373 60 c 0
 381 122 390 184 399 246 c 0
 410 321 422 396 429 471 c 0
 430 483 431 497 431 510 c 0
 431 525 429 541 423 554 c 1
 405 576 376 582 349 588 c 1
 306 595 261 600 217 600 c 0
 208 600 199 599 190 599 c 0
 156 597 120 596 87 588 c 1
 86 588 l 2
 73 588 59 632 59 659 c 0
 59 670 62 679 67 680 c 0
 106 687 146 688 186 690 c 0
 196 690 206 690 216 690 c 0
 266 690 315 686 364 678 c 0
 414 669 451 654 488 619 c 1
 515 587 521 549 521 510 c 0
 521 495 520 480 519 465 c 0
 511 387 498 310 487 233 c 0
 478 172 471 110 464 49 c 0
 462 27 463 38 461 18 c 0
 460 13 452 9 441 8 c 1
 441 -19 435 -52 423 -52 c 2
 422 -52 l 1
 389 -49 355 -46 322 -45 c 0
 298 -44 273 -44 249 -44 c 0
 210 -44 171 -45 131 -46 c 0
 116 -46 100 -47 85 -47 c 0
 60 -47 35 -46 9 -42 c 0
 3 -41 0 -31 0 -18 c 0
 0 9 12 50 25 50 c 2
 26 50 l 1
EndSplineSet
Validated: 1
EndChar

StartChar: element
Encoding: 8712 8712 118
Width: 652
VWidth: 0
Flags: HW
LayerCount: 2
Fore
SplineSet
430 539 m 0
 455 539 480 536 504 525 c 0
 507 523 508 519 508 514 c 0
 508 491 482 439 466 439 c 0
 465 439 464 440 463 440 c 0
 451 446 438 447 426 447 c 0
 419 447 411 447 404 446 c 0
 350 438 301 413 254 387 c 0
 219 367 187 343 159 314 c 1
 185 312 212 312 238 311 c 0
 299 310 359 309 419 306 c 0
 443 305 467 303 491 301 c 0
 498 300 502 287 502 271 c 0
 502 244 493 208 481 208 c 2
 480 208 l 1
 458 211 436 213 414 215 c 0
 354 219 295 219 235 220 c 0
 189 221 143 222 97 227 c 1
 93 216 91 206 91 195 c 0
 91 181 94 168 104 153 c 1
 131 121 174 115 213 110 c 0
 222 109 230 109 239 109 c 0
 287 109 335 118 382 129 c 0
 417 138 451 149 483 166 c 0
 493 172 489 169 496 174 c 0
 497 175 499 175 500 175 c 0
 517 175 549 125 549 103 c 0
 549 99 548 97 546 95 c 0
 532 87 540 91 525 83 c 0
 486 64 445 50 403 40 c 0
 350 28 295 18 240 18 c 0
 227 18 214 19 201 20 c 0
 129 29 68 47 24 110 c 1
 19 120 13 129 9 139 c 0
 3 156 0 174 -0 191 c 0
 0 230 14 268 34 302 c 0
 41 312 48 323 56 333 c 0
 98 387 152 431 210 466 c 1
 268 498 329 528 396 538 c 0
 408 539 419 539 430 539 c 0
EndSplineSet
Validated: 1
EndChar

StartChar: logicaland
Encoding: 8743 8743 119
Width: 502
VWidth: 0
Flags: HW
LayerCount: 2
Fore
SplineSet
1 112 m 0
 24 139 46 168 67 196 c 0
 96 236 124 275 153 314 c 0
 176 344 201 373 229 399 c 1
 246 413 266 421 285 421 c 0
 303 421 321 414 336 397 c 0
 342 391 345 382 349 375 c 1
 369 323 374 267 381 212 c 0
 388 159 397 106 411 54 c 0
 415 38 426 9 426 7 c 0
 426 -8 379 -27 354 -27 c 0
 346 -27 341 -25 339 -21 c 0
 333 -4 328 13 323 30 c 0
 309 86 298 143 291 200 c 0
 286 238 281 276 272 313 c 1
 255 296 241 278 226 259 c 0
 197 221 168 181 140 142 c 0
 118 112 97 82 74 53 c 0
 73 51 71 51 68 51 c 0
 48 51 0 91 -0 108 c 0
 0 110 0 111 1 112 c 0
289 329 m 1
 290 329 l 2
 292 329 296 333 296 333 c 2
 294 332 292 331 290 330 c 2
 289 329 l 1
EndSplineSet
Validated: 1
EndChar

StartChar: logicalor
Encoding: 8744 8744 120
Width: 586
VWidth: 0
Flags: HW
LayerCount: 2
Fore
SplineSet
510 327 m 1
 510 327 506 306 505 302 c 1
 484 272 462 244 439 216 c 0
 401 169 362 122 322 76 c 0
 292 43 258 -1 213 -13 c 0
 204 -16 194 -15 184 -16 c 1
 175 -14 166 -13 157 -10 c 0
 120 5 100 43 82 76 c 1
 58 127 41 179 28 234 c 0
 1 340 -0 340 -0 340 c 1
 0 355 48 375 74 375 c 0
 82 375 87 373 89 369 c 0
 99 332 107 294 116 256 c 0
 127 207 143 160 165 115 c 1
 172 103 175 96 183 85 c 0
 191 74 199 70 199 72 c 0
 199 73 197 75 196 76 c 0
 195 77 194 77 194 78 c 0
 194 80 196 80 197 81 c 0
 200 84 203 85 206 88 c 0
 224 103 239 120 255 137 c 0
 294 181 331 227 368 273 c 0
 389 300 409 327 428 355 c 0
 438 371 451 385 467 395 c 0
 471 397 476 398 480 400 c 0
 481 400 481 400 482 400 c 0
 496 400 510 354 510 327 c 1
EndSplineSet
Validated: 1
EndChar

StartChar: intersection
Encoding: 8745 8745 121
Width: 574
VWidth: 0
Flags: HW
LayerCount: 2
Fore
SplineSet
9 72 m 0
 2 94 0 116 -0 138 c 0
 0 158 2 178 4 197 c 0
 13 267 35 333 61 398 c 1
 86 452 117 504 162 544 c 0
 170 552 180 559 189 566 c 1
 220 586 254 601 290 601 c 0
 300 601 310 600 320 598 c 0
 352 590 359 582 385 563 c 1
 443 507 466 430 484 354 c 1
 500 282 505 208 509 135 c 0
 510 115 510 94 510 74 c 0
 510 54 510 33 509 13 c 0
 509 5 493 1 474 1 c 0
 448 1 417 8 417 20 c 0
 417 27 420 48 420 90 c 0
 420 104 419 117 419 131 c 0
 416 199 411 266 397 333 c 1
 384 389 369 447 330 491 c 1
 315 505 303 511 290 511 c 0
 277 511 263 505 245 494 c 1
 200 460 167 415 144 363 c 1
 121 306 102 248 95 187 c 0
 93 172 92 158 92 143 c 0
 92 131 93 118 96 106 c 1
 96 104 l 0
 96 88 47 66 22 66 c 0
 15 66 10 68 9 72 c 0
EndSplineSet
Validated: 1
EndChar

StartChar: union
Encoding: 8746 8746 122
Width: 574
VWidth: 0
Flags: HW
LayerCount: 2
Fore
SplineSet
122 343 m 0
 110 308 104 272 99 236 c 0
 94 200 90 164 90 128 c 0
 90 104 92 80 95 56 c 1
 101 23 112 -8 143 -25 c 0
 152 -29 162 -30 171 -30 c 0
 191 -30 211 -23 230 -16 c 0
 273 2 304 35 332 71 c 1
 364 116 383 168 396 221 c 0
 400 240 402 259 402 279 c 0
 402 299 400 318 395 337 c 0
 392 345 389 353 384 360 c 0
 383 361 383 363 383 364 c 0
 383 381 433 413 455 413 c 0
 459 413 461 412 463 410 c 0
 473 394 480 376 485 358 c 0
 491 332 494 306 494 280 c 0
 494 253 491 226 484 199 c 0
 467 134 444 71 404 16 c 1
 365 -34 321 -78 261 -102 c 1
 229 -113 199 -121 169 -121 c 0
 144 -121 118 -116 92 -102 c 1
 84 -96 75 -91 68 -85 c 0
 30 -52 13 -4 5 45 c 1
 2 72 0 98 0 125 c 0
 0 166 4 208 10 249 c 0
 16 293 21 338 36 381 c 0
 37 384 41 386 47 386 c 0
 71 386 123 361 123 346 c 0
 123 345 122 344 122 343 c 0
EndSplineSet
Validated: 1
EndChar

StartChar: integral
Encoding: 8747 8747 123
Width: 556
VWidth: 0
Flags: W
HStem: -57 20G<61.5 77.5> 606 117<394.301 455.916>
VStem: 232 91<79.5185 320.469 325.062 612.99> 244 92<126.877 515.469>
LayerCount: 2
Fore
SplineSet
424 608 m 0xe0
 416 617 407 623 396 628 c 0
 387 631 377 631 367 629 c 0
 357 626 349 618 343 610 c 0
 332 593 329 572 326 553 c 0
 324 540 323 528 323 515 c 0xe0
 323 495 325 475 327 455 c 0
 332 411 336 367 336 323 c 0
 336 269 329 215 321 161 c 0
 313 109 300 59 285 9 c 0
 274 -27 259 -62 239 -94 c 0
 223 -119 201 -137 175 -150 c 0
 160 -157 144 -160 129 -160 c 0
 115 -160 101 -157 87 -154 c 1
 53 -144 27 -124 8 -94 c 1
 5 -87 0 -74 -0 -73 c 0
 0 -59 49 -37 74 -37 c 0
 81 -37 86 -38 87 -42 c 0
 87 -43 88 -45 88 -46 c 0
 92 -56 100 -60 110 -64 c 1
 118 -66 125 -69 133 -66 c 0
 144 -61 154 -53 161 -43 c 0
 177 -19 188 8 197 36 c 0
 211 81 224 128 231 175 c 0
 238 224 244 273 244 323 c 0xd0
 244 364 241 405 236 446 c 0
 234 470 232 494 232 518 c 0
 232 534 233 551 235 568 c 0
 241 604 248 640 271 670 c 1
 293 695 319 714 352 721 c 0
 361 722 371 723 380 723 c 0
 399 723 417 720 435 712 c 0
 458 701 479 688 496 668 c 0
 497 667 498 665 498 663 c 0
 498 646 450 606 430 606 c 0
 427 606 425 606 424 608 c 0xe0
EndSplineSet
Validated: 1
EndChar

StartChar: proportional
Encoding: 8733 8733 124
Width: 856
VWidth: 0
Flags: HW
LayerCount: 2
Fore
SplineSet
660 388 m 0
 642 388 626 379 610 371 c 0
 580 354 557 330 533 306 c 1
 569 271 608 239 649 211 c 0
 682 189 716 167 749 144 c 0
 759 137 769 129 778 121 c 0
 780 120 780 118 780 115 c 0
 780 96 740 49 722 49 c 0
 720 49 718 50 717 51 c 0
 710 57 703 62 695 68 c 0
 663 92 630 114 597 136 c 0
 552 167 510 200 471 238 c 1
 432 196 l 2
 391 152 345 115 295 82 c 0
 247 51 193 33 137 28 c 0
 135 28 133 28 131 28 c 0
 92 28 52 38 26 70 c 0
 20 77 16 85 11 93 c 1
 3 113 0 133 -0 153 c 0
 0 186 8 218 19 250 c 0
 37 301 67 344 104 383 c 0
 141 421 186 444 237 456 c 0
 248 458 259 459 270 459 c 0
 315 459 358 442 398 419 c 1
 422 404 444 386 465 368 c 1
 466 369 l 2
 497 401 529 431 568 453 c 1
 597 468 627 481 661 482 c 0
 671 482 676 460 676 437 c 0
 676 413 670 388 660 388 c 0
404 301 m 1
 388 315 371 328 353 340 c 1
 327 355 300 367 271 367 c 0
 266 367 262 367 257 366 c 0
 224 359 194 344 170 320 c 0
 142 292 120 260 106 222 c 1
 99 200 92 177 92 153 c 0
 92 148 92 142 93 137 c 0
 94 120 117 121 130 120 c 1
 172 122 210 137 245 159 c 0
 289 188 330 220 366 259 c 2
 404 301 l 1
EndSplineSet
Validated: 1
EndChar

StartChar: infinity
Encoding: 8734 8734 125
Width: 946
VWidth: 0
Flags: HW
LayerCount: 2
Fore
SplineSet
540 318 m 1
 556 307 574 296 591 286 c 0
 632 264 674 244 720 233 c 0
 727 232 735 230 742 230 c 0
 750 230 757 232 763 238 c 1
 777 258 782 281 782 305 c 0
 782 309 782 313 782 317 c 0
 778 344 769 369 746 386 c 1
 730 396 713 401 695 401 c 0
 684 401 673 399 662 396 c 0
 620 382 583 358 551 328 c 2
 540 318 l 1
434 400 m 1
 461 378 l 1
 467 373 l 1
 488 394 l 2
 529 434 577 463 631 483 c 1
 652 489 674 493 696 493 c 0
 720 493 743 488 766 479 c 0
 774 476 782 471 790 467 c 1
 840 434 861 389 872 332 c 0
 873 323 874 314 874 305 c 0
 874 264 863 226 842 190 c 1
 812 152 783 139 743 139 c 0
 732 139 719 140 706 142 c 0
 650 154 597 179 547 206 c 0
 522 220 498 236 475 253 c 1
 420 196 l 1
 372 151 322 108 260 83 c 1
 228 72 198 64 167 64 c 0
 141 64 115 69 89 82 c 0
 81 87 73 92 66 97 c 0
 27 126 6 169 1 217 c 0
 1 225 0 233 -0 241 c 0
 0 243 0 245 0 247 c 0
 5 305 36 356 74 398 c 1
 127 449 181 484 255 495 c 1
 262 495 269 496 276 496 c 0
 325 496 361 485 401 448 c 1
 414 433 425 417 434 400 c 1
377 328 m 1
 368 328 361 330 360 335 c 0
 359 338 358 341 357 344 c 1
 348 351 339 358 329 365 c 0
 327 366 325 367 323 368 c 0
 318 371 319 381 324 393 c 1
 310 402 294 405 278 405 c 0
 272 405 267 404 261 404 c 0
 211 396 172 366 137 332 c 1
 109 302 92 268 92 228 c 0
 92 225 92 222 92 219 c 0
 97 192 112 173 136 161 c 1
 147 157 157 155 168 155 c 0
 189 155 210 162 230 169 c 1
 279 190 319 226 358 262 c 1
 403 308 l 1
 377 328 l 1
EndSplineSet
Validated: 1
EndChar

StartChar: lessequal
Encoding: 8804 8804 126
Width: 478
VWidth: 0
Flags: HW
LayerCount: 2
Fore
SplineSet
41 165 m 0
 84 145 121 115 158 86 c 0
 201 52 247 21 293 -8 c 0
 299 -12 304 -15 310 -19 c 0
 312 -20 313 -24 313 -27 c 0
 313 -47 280 -97 264 -97 c 0
 263 -97 262 -97 261 -96 c 0
 255 -92 249 -89 243 -85 c 0
 195 -54 148 -21 103 14 c 0
 72 38 41 62 5 78 c 0
 2 80 0 84 0 90 c 0
 0 114 24 166 39 166 c 0
 40 166 40 165 41 165 c 0
350 447 m 0
 310 423 270 399 231 375 c 0
 194 352 157 333 122 309 c 1
 123 308 124 307 125 306 c 0
 139 295 154 285 168 275 c 0
 205 249 240 222 276 195 c 0
 301 176 327 158 353 141 c 0
 361 136 369 131 377 126 c 0
 379 124 380 122 380 118 c 0
 380 97 348 47 331 47 c 0
 330 47 328 47 327 48 c 0
 319 53 310 58 302 63 c 0
 274 82 247 101 221 122 c 0
 186 149 151 175 115 200 c 0
 82 223 47 244 26 279 c 1
 24 286 20 293 19 301 c 0
 19 304 18 308 18 311 c 0
 18 341 39 364 63 380 c 0
 102 406 144 427 184 452 c 0
 222 476 260 500 298 525 c 0
 299 526 301 526 302 526 c 0
 319 526 353 476 353 455 c 0
 353 451 352 449 350 447 c 0
EndSplineSet
Validated: 1
EndChar

StartChar: greaterequal
Encoding: 8805 8805 127
Width: 448
VWidth: 0
Flags: HW
LayerCount: 2
Fore
SplineSet
269 275 m 1
 269 272 270 270 272 269 c 0
 273 269 271 270 271 271 c 2
 269 275 l 1
103 550 m 0
 129 527 155 506 181 484 c 0
 218 454 255 424 290 392 c 0
 313 370 334 347 351 320 c 0
 359 306 362 294 362 282 c 0
 362 262 352 244 335 227 c 1
 305 204 274 184 243 162 c 0
 208 137 174 108 143 78 c 0
 129 64 116 49 104 34 c 0
 103 32 101 32 98 32 c 0
 78 32 30 72 30 89 c 0
 30 91 31 93 32 94 c 0
 47 111 63 129 80 145 c 0
 115 178 150 209 189 237 c 2
 260 287 l 1
 250 300 238 313 227 325 c 1
 194 356 159 385 124 413 c 0
 97 435 70 457 43 478 c 0
 41 479 41 481 41 484 c 0
 41 504 81 552 98 552 c 0
 100 552 102 551 103 550 c 0
387 83 m 0
 352 63 316 43 281 22 c 0
 232 -7 183 -37 134 -67 c 1
 120 -80 85 -91 73 -105 c 0
 72 -105 71 -106 70 -106 c 0
 50 -106 0 -68 -0 -51 c 0
 0 -49 0 -48 1 -47 c 0
 4 -44 8 -40 11 -37 c 0
 34 -18 62 -4 87 12 c 1
 136 41 186 70 235 100 c 0
 270 121 304 142 339 164 c 0
 340 165 341 165 342 165 c 0
 358 165 391 113 391 91 c 0
 391 87 389 84 387 83 c 0
EndSplineSet
Validated: 1
EndChar

StartChar: uni9178
Encoding: 37240 37240 128
Width: 1020
VWidth: 0
Flags: HMW
LayerCount: 2
Fore
SplineSet
884 440 m 2
 946 387 l 2
 956 379 964 369 973 360 c 0
 974 359 975 357 975 355 c 0
 975 338 933 297 915 297 c 0
 913 297 911 298 910 299 c 0
 885 325 856 349 828 372 c 0
 826 373 825 374 825 377 c 0
 825 395 863 441 880 441 c 0
 882 441 883 441 884 440 c 2
702 88 m 1
 755 29 l 1
 757 27 l 1
 760 30 l 1
 791 58 822 86 850 117 c 1
 796 115 746 104 702 88 c 1
629 509 m 1
 627 505 626 504 626 503 c 2
 627 502 l 2
 628 502 629 505 629 509 c 1
864 668 m 0
 888 623 919 582 945 539 c 0
 946 538 946 537 946 536 c 0
 946 521 898 490 878 490 c 0
 874 490 871 491 870 493 c 2
 831 555 l 1
 832 548 833 540 833 531 c 0
 833 508 827 483 817 483 c 1
 809 484 802 484 794 484 c 0
 732 484 674 465 615 465 c 0
 603 465 592 466 580 468 c 0
 555 472 542 494 542 518 c 0
 542 535 548 553 561 566 c 1
 601 627 642 688 695 737 c 0
 696 738 697 738 699 738 c 0
 716 738 756 694 756 676 c 0
 756 674 755 672 754 671 c 0
 718 639 689 600 662 559 c 1
 670 560 l 2
 715 566 758 571 806 571 c 0
 810 571 815 571 820 571 c 2
 821 571 l 1
 787 624 l 2
 786 625 786 627 786 628 c 0
 786 643 835 672 856 672 c 0
 860 672 863 670 864 668 c 0
181 138 m 2
 264 158 l 2
 292 165 320 170 349 171 c 1
 340 183 333 197 330 214 c 0
 324 246 320 277 319 309 c 1
 297 307 276 305 255 302 c 1
 248 203 l 2
 248 192 248 189 248 186 c 0
 248 184 248 183 248 179 c 0
 248 177 248 174 248 171 c 0
 248 161 224 156 201 156 c 0
 181 156 161 159 161 168 c 2
 161 169 l 1
 168 284 l 1
 157 281 146 277 136 273 c 1
 136 262 135 251 135 240 c 0
 135 154 146 68 161 17 c 1
 161 15 l 2
 161 12 160 9 157 7 c 1
 182 13 206 19 231 24 c 2
 471 77 l 1
 475 106 476 136 476 166 c 0
 476 172 476 178 476 184 c 0
 476 227 474 276 455 304 c 1
 440 310 424 313 407 314 c 1
 408 287 410 260 415 233 c 0
 418 215 435 216 452 214 c 0
 459 213 462 199 462 183 c 0
 462 158 455 126 444 126 c 2
 443 126 l 1
 418 128 396 134 378 145 c 1
 379 139 379 133 379 126 c 0
 379 104 374 82 361 82 c 0
 360 82 359 82 357 83 c 1
 301 82 252 64 204 53 c 1
 202 52 l 1
 189 52 175 96 175 121 c 0
 175 130 176 137 181 138 c 2
682 402 m 2
 613 259 l 2
 612 255 606 254 600 254 c 0
 589 254 572 258 558 265 c 1
 562 237 564 208 564 179 c 0
 564 156 563 133 561 110 c 1
 577 154 598 194 618 235 c 0
 633 267 651 299 677 324 c 0
 678 325 679 326 681 326 c 0
 698 326 736 281 736 262 c 0
 736 260 735 258 734 257 c 0
 713 232 696 204 682 173 c 1
 742 192 809 204 882 205 c 0
 883 205 883 205 884 205 c 0
 916 205 954 197 964 169 c 0
 967 161 968 153 968 146 c 0
 968 113 943 87 923 67 c 0
 889 33 857 -2 821 -35 c 1
 834 -45 847 -54 862 -62 c 0
 886 -75 911 -81 938 -85 c 0
 944 -86 947 -97 947 -110 c 0
 947 -136 937 -172 925 -172 c 2
 924 -172 l 1
 887 -166 851 -156 818 -137 c 0
 795 -124 773 -108 753 -91 c 1
 706 -127 653 -157 591 -175 c 0
 590 -175 590 -175 589 -175 c 0
 577 -175 564 -133 564 -108 c 0
 564 -98 566 -91 571 -90 c 0
 618 -78 656 -56 691 -29 c 1
 690 -28 l 1
 663 3 637 34 607 61 c 1
 589 64 568 70 559 78 c 1
 558 65 l 2
 557 58 546 55 531 55 c 0
 529 55 526 55 524 55 c 1
 528 43 530 30 530 19 c 0
 530 8 528 0 523 -1 c 2
 249 -61 l 2
 209 -70 168 -78 129 -91 c 0
 128 -91 128 -91 127 -91 c 0
 113 -91 95 -45 95 -21 c 0
 95 -17 96 -14 97 -11 c 1
 96 -11 95 -11 94 -11 c 0
 85 -11 77 -10 76 -5 c 0
 64 40 50 136 50 213 c 0
 50 215 50 217 50 219 c 0
 50 225 50 231 50 237 c 0
 50 247 50 258 50 268 c 0
 50 299 50 330 54 361 c 0
 55 367 65 370 78 370 c 0
 93 370 110 366 123 361 c 1
 139 366 156 371 173 375 c 1
 182 529 l 1
 159 525 137 520 114 516 c 1
 113 516 l 2
 101 516 91 553 91 579 c 0
 91 592 94 602 100 603 c 0
 182 615 266 636 354 639 c 0
 359 639 366 638 371 638 c 0
 378 637 382 617 382 596 c 0
 382 573 377 550 363 550 c 0
 361 550 358 551 356 552 c 1
 327 551 300 549 272 545 c 1
 261 389 l 1
 281 391 301 393 321 395 c 1
 323 426 326 458 328 489 c 0
 328 495 339 497 352 497 c 0
 378 497 415 487 415 475 c 1
 412 450 410 426 409 401 c 1
 435 400 460 396 485 387 c 0
 516 375 535 351 545 322 c 1
 559 351 l 1
 604 444 l 2
 605 447 609 448 613 448 c 0
 634 448 683 420 683 405 c 0
 683 404 682 403 682 402 c 2
EndSplineSet
Validated: 1
EndChar

StartChar: uni559D
Encoding: 21917 21917 129
Width: 915
VWidth: 0
Flags: HMW
LayerCount: 2
Fore
SplineSet
757 -10 m 1
 760 -10 764 -10 767 -10 c 2
 772 -10 l 1
 773 -2 773 5 774 13 c 1
 769 5 763 -4 757 -10 c 1
639 133 m 1
 689 113 735 86 777 57 c 1
 779 78 780 99 780 120 c 0
 780 138 779 156 777 175 c 1
 779 175 l 1
 780 175 l 1
 780 176 769 181 766 181 c 2
 765 181 l 1
 742 184 719 185 697 185 c 0
 687 185 677 184 667 184 c 1
 668 181 669 179 669 177 c 0
 669 176 669 174 668 173 c 2
 639 133 l 1
523 -24 m 1
 603 -23 l 2
 643 -22 682 -15 723 -12 c 1
 683 15 640 43 590 58 c 1
 580 41 571 23 562 5 c 0
 561 2 560 0 560 0 c 1
 560 0 561 1 562 2 c 1
 561 -3 552 -6 541 -6 c 0
 534 -6 525 -5 516 -3 c 1
 518 -10 520 -17 523 -24 c 1
512 94 m 1
 536 133 l 1
 564 174 l 1
 520 168 l 1
 517 144 514 119 512 94 c 1
475 393 m 2
 675 394 l 1
 686 394 l 2
 694 394 698 377 698 359 c 0
 698 335 692 307 682 307 c 2
 681 307 l 1
 671 308 l 2
 651 309 630 310 610 310 c 0
 564 310 518 307 473 306 c 0
 464 306 460 326 460 347 c 0
 460 370 465 393 475 393 c 2
511 507 m 2
 662 505 l 2
 670 505 674 488 674 469 c 0
 674 445 668 418 658 418 c 2
 508 419 l 2
 505 419 502 423 500 428 c 1
 488 418 459 410 439 410 c 0
 429 410 421 412 420 417 c 0
 410 459 404 503 404 548 c 0
 404 574 406 600 410 627 c 0
 411 633 421 635 433 635 c 0
 445 635 459 633 471 630 c 1
 516 655 576 668 638 668 c 0
 669 668 699 665 729 658 c 0
 765 650 781 624 787 589 c 0
 789 579 789 570 789 560 c 0
 789 536 785 513 782 489 c 2
 771 408 l 2
 769 396 770 401 767 389 c 0
 766 384 758 382 748 382 c 0
 723 382 682 394 682 407 c 2
 682 408 l 1
 696 500 l 2
 699 520 702 540 702 560 c 0
 702 564 701 568 701 572 c 0
 701 573 701 573 701 574 c 0
 701 575 702 575 702 575 c 1
 682 579 662 581 642 581 c 0
 615 581 588 578 562 572 c 0
 541 567 520 560 503 546 c 0
 502 545 501 545 499 545 c 0
 497 545 494 546 491 547 c 1
 491 545 l 2
 491 521 493 498 497 475 c 1
 499 492 503 507 511 507 c 2
292 403 m 1
 242 402 200 387 167 365 c 0
 166 364 164 364 163 364 c 0
 155 364 143 374 133 387 c 1
 136 331 139 275 157 230 c 1
 158 231 l 1
 158 230 l 2
 158 229 158 229 158 228 c 0
 158 224 154 218 149 213 c 1
 223 228 l 2
 229 229 234 230 240 231 c 1
 287 386 l 1
 292 403 l 1
114 435 m 0
 163 468 226 490 302 490 c 0
 303 490 304 490 305 490 c 0
 334 490 369 480 378 456 c 0
 383 443 384 430 384 417 c 0
 384 362 347 308 336 257 c 0
 334 250 333 243 331 237 c 1
 334 233 338 226 340 218 c 1
 345 239 348 261 351 282 c 0
 352 289 364 292 380 292 c 0
 405 292 438 284 438 273 c 2
 438 272 l 1
 436 261 434 249 432 238 c 1
 510 258 597 272 688 272 c 0
 717 272 748 270 778 267 c 0
 816 263 834 250 854 217 c 1
 864 187 867 155 867 122 c 0
 867 68 858 12 856 -44 c 2
 851 -162 l 2
 850 -169 837 -173 820 -173 c 0
 795 -173 764 -166 764 -155 c 2
 764 -154 l 1
 767 -97 l 1
 698 -98 633 -113 563 -113 c 0
 545 -113 528 -111 509 -109 c 0
 468 -104 448 -84 436 -44 c 0
 427 -13 424 19 424 51 c 0
 424 83 427 116 430 148 c 1
 426 147 422 145 418 144 c 0
 417 144 417 144 416 144 c 0
 414 144 413 145 411 146 c 1
 404 118 396 90 390 63 c 0
 389 58 382 57 373 57 c 0
 348 57 305 70 305 83 c 1
 306 85 l 1
 324 154 l 1
 257 148 193 135 133 120 c 1
 132 120 l 2
 120 120 108 161 108 186 c 2
 108 187 l 1
 101 184 95 182 90 182 c 0
 86 182 83 184 82 186 c 0
 74 200 78 192 72 207 c 1
 53 266 50 332 44 402 c 0
 44 412 71 418 95 418 c 0
 102 418 109 418 115 417 c 1
 113 421 112 425 112 428 c 0
 112 431 112 434 114 435 c 0
EndSplineSet
Validated: 1
EndChar

StartChar: uni6865
Encoding: 26725 26725 130
Width: 1023
VWidth: 0
Flags: HMW
LayerCount: 2
Fore
SplineSet
794 80 m 1
 787 41 785 -4 785 -49 c 0
 785 -96 787 -142 787 -180 c 0
 787 -183 787 -186 787 -188 c 0
 787 -198 764 -203 741 -203 c 0
 720 -203 699 -199 699 -190 c 2
 700 -23 l 2
 700 18 700 60 708 101 c 0
 709 106 717 108 727 108 c 0
 752 108 794 95 794 82 c 2
 794 80 l 1
565 158 m 0
 569 134 571 110 571 86 c 0
 571 70 570 53 569 37 c 0
 565 -11 555 -59 546 -107 c 2
 538 -149 l 2
 537 -154 528 -157 517 -157 c 0
 491 -157 452 -145 452 -133 c 2
 452 -132 l 1
 461 -90 l 1
 471 -36 484 19 484 77 c 0
 484 97 482 118 478 139 c 1
 456 75 l 2
 455 71 448 68 440 68 c 0
 419 68 384 79 374 91 c 1
 339 101 305 118 273 132 c 1
 275 -48 l 2
 275 -57 255 -61 234 -61 c 0
 211 -61 187 -56 187 -46 c 2
 188 155 l 1
 185 154 181 152 178 150 c 0
 177 149 176 149 175 149 c 0
 168 149 158 159 149 172 c 1
 140 158 132 144 127 129 c 0
 126 125 121 123 115 123 c 0
 92 123 45 144 45 158 c 0
 45 159 45 159 45 160 c 0
 60 196 82 229 105 261 c 0
 128 293 153 325 186 347 c 1
 186 349 l 1
 153 346 121 343 88 343 c 0
 77 343 65 343 54 344 c 0
 47 345 44 358 44 374 c 0
 44 400 52 432 63 432 c 0
 78 431 93 431 107 431 c 0
 133 431 159 433 185 435 c 1
 185 445 185 454 185 464 c 0
 185 480 185 496 185 512 c 0
 186 568 187 626 203 680 c 0
 204 684 209 686 216 686 c 0
 239 686 286 666 286 652 c 0
 286 650 l 1
 271 589 267 521 267 451 c 0
 267 449 267 446 267 444 c 1
 309 449 352 455 394 459 c 1
 395 459 l 2
 407 459 416 425 416 399 c 0
 416 385 413 373 406 372 c 2
 269 358 l 1
 270 317 271 275 272 234 c 1
 272 228 l 1
 314 212 353 188 399 175 c 1
 433 264 l 1
 401 263 370 262 338 262 c 0
 330 262 327 279 327 297 c 0
 327 322 333 350 344 350 c 0
 356 349 367 349 379 349 c 0
 409 349 440 351 470 353 c 1
 491 402 514 449 537 496 c 1
 524 487 l 1
 461 449 l 2
 460 448 459 448 458 448 c 0
 443 448 414 496 414 517 c 0
 414 521 415 524 417 525 c 0
 486 563 551 604 611 652 c 0
 642 677 671 703 695 735 c 0
 696 737 699 738 702 738 c 0
 721 738 767 702 767 686 c 0
 767 685 767 683 766 682 c 0
 732 640 691 604 648 571 c 1
 658 563 665 555 665 549 c 0
 665 548 665 547 664 546 c 0
 629 486 597 423 567 358 c 1
 698 366 l 2
 749 369 802 371 853 371 c 0
 891 371 928 369 965 367 c 0
 973 366 976 351 976 333 c 0
 976 308 970 279 959 279 c 1
 916 283 873 284 830 284 c 0
 787 284 744 282 701 280 c 1
 767 218 857 181 916 112 c 0
 917 111 917 110 917 108 c 0
 917 92 871 55 852 55 c 0
 849 55 847 56 846 58 c 0
 779 132 678 170 613 246 c 0
 612 247 611 248 611 250 c 0
 611 256 617 266 625 276 c 1
 528 269 l 1
 512 230 497 190 482 149 c 1
 492 158 522 166 543 166 c 0
 555 166 564 164 565 158 c 0
EndSplineSet
Validated: 1
EndChar

StartChar: uni6536
Encoding: 25910 25910 131
Width: 901
VWidth: 0
Flags: HMW
LayerCount: 2
Fore
SplineSet
559 159 m 1
 521 207 482 255 440 299 c 1
 440 298 l 2
 440 287 409 279 384 279 c 0
 367 279 353 283 353 290 c 0
 353 297 352 304 352 311 c 0
 352 394 374 458 396 529 c 0
 410 573 426 616 447 657 c 0
 448 660 451 661 455 661 c 0
 476 661 525 633 525 618 c 0
 525 617 524 616 524 615 c 0
 507 581 492 547 478 509 c 1
 543 542 619 561 695 579 c 0
 726 586 759 592 791 594 c 0
 797 594 799 595 801 595 c 0
 804 595 806 594 818 590 c 0
 822 589 823 585 823 579 c 0
 823 557 802 511 788 507 c 1
 783 506 l 1
 674 495 589 467 507 424 c 0
 506 424 505 424 504 424 c 0
 493 424 475 445 464 465 c 1
 455 435 448 405 444 372 c 1
 455 382 466 389 473 389 c 0
 475 389 477 388 478 387 c 0
 523 341 564 291 604 240 c 1
 623 277 640 315 656 353 c 0
 674 395 689 440 699 485 c 0
 700 490 708 492 719 492 c 0
 745 492 786 479 786 467 c 0
 786 466 786 467 786 466 c 0
 756 357 712 260 661 168 c 1
 706 111 752 55 803 4 c 2
 859 -52 l 2
 860 -53 861 -55 861 -57 c 0
 861 -74 818 -116 801 -116 c 0
 799 -116 797 -115 796 -114 c 2
 740 -56 l 2
 695 -10 654 40 614 90 c 1
 614 89 l 1
 566 12 506 -68 414 -102 c 1
 408 -102 401 -102 395 -102 c 0
 388 -101 385 -88 385 -73 c 0
 385 -48 394 -17 404 -14 c 2
 400 -15 l 2
 409 -12 416 -5 424 0 c 1
 436 10 l 2
 485 51 524 103 559 159 c 1
301 670 m 2
 301 197 l 1
 305 104 315 3 339 -77 c 0
 339 -78 339 -78 339 -79 c 0
 339 -92 295 -108 270 -108 c 0
 261 -108 255 -105 254 -101 c 0
 232 -20 223 70 219 164 c 1
 196 155 169 149 144 149 c 0
 114 149 86 158 67 184 c 0
 51 206 45 235 45 265 c 0
 45 312 58 362 65 404 c 0
 66 409 74 412 85 412 c 0
 111 412 152 400 152 387 c 2
 152 386 l 1
 144 355 139 322 136 290 c 0
 136 287 135 274 135 261 c 0
 135 246 137 231 141 231 c 1
 141 232 l 2
 141 234 140 235 140 237 c 1
 160 240 181 241 196 251 c 1
 192 248 l 2
 193 248 193 248 194 248 c 0
 200 248 208 244 217 238 c 1
 217 264 216 289 216 315 c 0
 216 368 217 422 217 476 c 0
 217 539 216 602 213 663 c 1
 213 664 l 2
 213 675 243 681 268 681 c 0
 286 681 301 678 301 670 c 2
EndSplineSet
Validated: 1
EndChar

StartChar: uni8BC9
Encoding: 35785 35785 132
Width: 790
VWidth: 0
Flags: HMW
LayerCount: 2
Fore
SplineSet
439 361 m 1
 438 360 438 359 437 358 c 1
 438 358 438 360 439 361 c 1
671 534 m 0
 596 499 535 444 473 394 c 0
 461 384 449 376 440 363 c 1
 440 361 l 1
 445 315 448 267 450 218 c 1
 541 247 l 1
 587 260 634 273 681 285 c 0
 696 289 711 292 726 294 c 1
 727 294 l 2
 738 294 746 261 746 235 c 0
 746 220 744 207 737 206 c 0
 696 200 658 190 621 179 c 1
 636 48 l 1
 702 45 l 2
 709 44 712 30 712 13 c 0
 712 -11 706 -41 695 -41 c 2
 694 -41 l 1
 678 -39 662 -38 646 -37 c 1
 654 -106 l 1
 663 -167 l 1
 663 -168 l 2
 663 -180 629 -189 603 -189 c 0
 589 -189 578 -186 577 -180 c 2
 558 -34 l 1
 528 -33 497 -33 466 -32 c 0
 459 -32 456 -18 456 -1 c 0
 456 24 463 56 474 56 c 2
 547 52 l 1
 543 86 539 121 535 155 c 1
 507 146 480 136 452 126 c 1
 452 97 453 68 453 39 c 0
 453 -2 453 -42 453 -82 c 0
 453 -101 451 -120 450 -139 c 0
 450 -147 433 -150 415 -150 c 0
 391 -150 362 -144 362 -134 c 0
 366 -93 367 -49 367 -6 c 0
 367 29 366 63 365 97 c 0
 362 184 366 274 352 351 c 0
 351 356 351 369 351 369 c 1
 354 414 390 440 418 462 c 2
 525 544 l 1
 561 570 598 598 639 616 c 0
 640 616 640 616 641 616 c 0
 655 616 676 569 676 546 c 0
 676 540 674 536 671 534 c 0
146 279 m 1
 148 278 150 277 151 277 c 1
 151 278 149 279 146 279 c 1
176 631 m 2
 221 553 l 2
 229 539 236 524 243 510 c 0
 243 509 243 509 243 508 c 0
 243 494 195 469 173 469 c 0
 168 469 164 471 163 474 c 0
 145 513 123 549 101 585 c 0
 100 586 100 587 100 588 c 0
 100 603 148 634 168 634 c 0
 172 634 175 633 176 631 c 2
45 346 m 0
 73 357 102 364 132 367 c 0
 135 367 139 367 142 367 c 0
 174 367 207 352 219 325 c 0
 228 304 231 283 231 261 c 0
 231 239 228 216 226 194 c 0
 223 163 221 130 221 99 c 0
 221 25 230 -45 245 -106 c 1
 245 -108 l 2
 245 -120 207 -130 181 -130 c 0
 168 -130 158 -127 157 -121 c 0
 147 -70 137 -11 135 47 c 0
 135 55 135 62 135 70 c 0
 135 139 142 208 142 275 c 0
 142 276 142 278 142 279 c 1
 141 279 140 279 139 279 c 0
 118 278 98 273 79 264 c 0
 78 264 78 264 77 264 c 0
 63 264 40 312 40 335 c 0
 40 341 42 345 45 346 c 0
EndSplineSet
Validated: 1
EndChar

StartChar: uni53F7
Encoding: 21495 21495 133
Width: 571
VWidth: 0
Flags: HMW
LayerCount: 2
Fore
SplineSet
441 560 m 1
 443 559 444 557 446 557 c 2
 447 557 l 1
 447 558 l 2
 447 559 445 559 441 560 c 1
255 103 m 2
 254 101 l 2
 255 101 255 102 255 103 c 2
241 444 m 2
 239 447 l 2
 240 446 241 445 241 444 c 2
198 589 m 0
 226 614 262 628 298 638 c 0
 334 648 371 650 408 650 c 0
 412 650 417 650 421 650 c 0
 454 650 494 640 510 614 c 0
 518 601 521 587 521 574 c 0
 521 556 515 538 507 520 c 2
 468 430 l 2
 458 407 448 382 435 360 c 0
 434 358 432 357 428 357 c 0
 424 357 419 358 414 360 c 1
 412 355 408 352 403 352 c 0
 402 352 401 352 400 352 c 2
 218 327 l 1
 216 326 l 1
 206 326 197 351 193 374 c 1
 192 374 l 2
 191 374 189 374 188 375 c 2
 175 386 l 1
 137 437 128 506 108 573 c 1
 108 573 107 573 107 574 c 0
 107 587 150 602 175 602 c 0
 184 602 191 600 192 595 c 0
 199 562 207 528 218 496 c 0
 221 487 233 449 242 443 c 0
 242 442 242 441 242 440 c 0
 242 434 239 426 234 417 c 1
 378 437 l 1
 382 446 385 455 389 464 c 2
 430 562 l 1
 425 563 420 563 420 563 c 2
 415 563 411 563 406 563 c 0
 349 563 293 554 259 525 c 0
 258 524 256 524 254 524 c 0
 237 524 196 567 196 584 c 0
 196 586 197 588 198 589 c 0
49 285 m 0
 184 311 343 305 490 317 c 1
 504 317 l 2
 513 317 518 294 518 272 c 0
 518 251 514 230 505 230 c 2
 348 223 l 2
 326 222 305 221 283 220 c 1
 291 214 296 208 296 203 c 0
 296 202 295 201 295 200 c 0
 284 180 274 158 265 136 c 1
 362 143 l 2
 366 143 369 143 373 143 c 0
 449 143 524 118 524 41 c 0
 524 40 524 40 524 39 c 0
 523 -24 511 -84 473 -114 c 0
 472 -115 471 -116 469 -116 c 0
 453 -116 415 -71 415 -53 c 0
 415 -50 415 -48 417 -47 c 0
 426 -40 430 -18 433 -5 c 0
 436 7 437 20 437 32 c 0
 437 33 437 35 437 36 c 0
 437 38 436 40 436 41 c 0
 436 42 437 42 437 42 c 1
 419 53 398 56 375 56 c 0
 336 56 292 46 253 46 c 0
 229 46 207 50 188 62 c 0
 181 66 178 75 173 82 c 1
 170 92 169 101 169 110 c 0
 169 149 190 184 207 217 c 1
 159 214 113 209 70 200 c 1
 69 200 l 2
 56 200 42 242 42 267 c 0
 42 277 44 284 49 285 c 0
EndSplineSet
Validated: 1
EndChar

StartChar: uni4EE5
Encoding: 20197 20197 134
Width: 903
VWidth: 0
Flags: HMW
LayerCount: 2
Fore
SplineSet
601 124 m 0
 660 65 744 35 810 -18 c 1
 859 -54 l 2
 861 -56 862 -59 862 -62 c 0
 862 -83 823 -135 805 -135 c 0
 803 -135 802 -135 801 -134 c 2
 753 -97 l 1
 686 -44 604 -13 542 44 c 1
 527 12 510 -19 490 -49 c 0
 488 -51 486 -52 482 -52 c 0
 460 -52 408 -15 408 2 c 0
 408 3 408 5 409 6 c 0
 442 53 467 105 486 159 c 0
 523 265 551 371 551 501 c 0
 551 510 550 520 550 529 c 0
 550 541 583 549 611 549 c 0
 631 549 649 545 649 536 c 0
 649 531 649 525 649 520 c 0
 649 371 618 249 576 128 c 1
 573 118 l 1
 582 123 589 127 595 127 c 0
 598 127 599 126 601 124 c 0
401 252 m 0
 408 214 440 185 466 161 c 0
 468 160 468 158 468 155 c 0
 468 135 424 86 405 86 c 0
 403 86 401 87 400 88 c 0
 357 127 309 181 302 247 c 1
 302 248 l 2
 302 259 331 265 357 265 c 0
 379 265 399 261 401 252 c 0
211 501 m 0
 173 387 160 255 145 126 c 0
 144 115 143 104 143 92 c 0
 143 79 144 65 147 52 c 0
 148 49 152 37 155 37 c 0
 156 37 156 38 157 39 c 0
 157 40 156 40 156 41 c 0
 156 48 171 48 177 50 c 0
 217 65 252 83 286 105 c 0
 287 106 289 106 290 106 c 0
 307 106 344 53 344 31 c 0
 344 27 343 24 340 23 c 0
 288 -7 225 -52 155 -52 c 0
 143 -52 131 -51 119 -48 c 0
 109 -46 100 -40 91 -34 c 0
 57 -11 47 40 47 89 c 0
 47 106 48 121 50 136 c 0
 69 275 80 417 120 541 c 0
 121 545 126 547 132 547 c 0
 157 547 211 519 211 503 c 0
 211 502 211 502 211 501 c 0
EndSplineSet
Validated: 1
EndChar

StartChar: uni6B21
Encoding: 27425 27425 135
Width: 777
VWidth: 0
Flags: HMW
LayerCount: 2
Fore
SplineSet
42 146 m 0
 68 177 95 205 124 233 c 1
 162 266 l 2
 163 267 164 268 166 268 c 0
 182 268 220 225 220 207 c 0
 220 205 219 202 218 201 c 2
 184 171 l 2
 157 146 132 119 109 90 c 0
 108 88 106 88 103 88 c 0
 85 88 40 126 40 142 c 0
 40 144 41 145 42 146 c 0
123 563 m 0
 145 544 168 526 192 508 c 2
 206 498 l 2
 208 497 209 494 209 491 c 0
 209 472 174 427 158 427 c 0
 157 427 155 428 154 429 c 2
 69 494 l 2
 67 495 66 497 66 500 c 0
 66 519 103 564 119 564 c 0
 121 564 122 564 123 563 c 0
534 496 m 0
 518 456 505 413 491 372 c 0
 446 239 390 111 329 -9 c 0
 323 -23 314 -35 305 -47 c 0
 304 -48 302 -49 300 -49 c 0
 282 -49 238 -10 238 7 c 0
 238 9 239 10 240 11 c 0
 246 14 248 26 252 30 c 1
 335 182 394 353 453 530 c 1
 438 526 424 522 410 516 c 0
 409 516 409 515 408 515 c 0
 404 515 400 519 395 525 c 1
 383 490 372 453 362 416 c 0
 361 411 354 409 345 409 c 0
 320 409 278 422 278 435 c 2
 278 437 l 1
 299 509 318 580 350 643 c 0
 351 646 355 647 359 647 c 0
 376 647 411 627 423 612 c 1
 466 625 516 634 564 634 c 0
 601 634 637 628 668 614 c 0
 704 598 717 568 718 530 c 0
 718 527 718 523 718 520 c 0
 718 432 684 352 645 290 c 0
 644 288 641 287 638 287 c 0
 619 287 572 320 572 335 c 0
 572 336 572 338 573 339 c 0
 604 388 631 454 631 523 c 0
 631 527 630 531 630 535 c 1
 612 543 590 546 568 546 c 0
 542 546 515 542 490 538 c 2
 480 536 l 1
 503 529 534 511 534 499 c 0
 534 498 534 497 534 496 c 0
429 162 m 0
 527 113 639 83 733 30 c 0
 736 29 736 25 736 21 c 0
 736 0 709 -48 694 -48 c 0
 693 -48 692 -47 691 -47 c 0
 598 6 486 38 387 86 c 0
 384 87 382 90 384 94 c 0
 393 115 411 160 426 163 c 0
 427 163 428 162 429 162 c 0
EndSplineSet
Validated: 1
EndChar

StartChar: uni5B89
Encoding: 23433 23433 136
Width: 841
VWidth: 0
Flags: HMW
LayerCount: 2
Fore
SplineSet
196 -107 m 1
 210 -101 l 1
 239 -78 l 1
 307 -9 l 1
 327 17 l 1
 335 27 l 1
 314 37 292 46 270 55 c 0
 245 65 219 71 204 96 c 1
 201 106 199 116 199 125 c 0
 199 134 200 142 202 150 c 1
 173 146 144 141 116 135 c 1
 114 135 l 2
 101 135 89 176 89 202 c 0
 89 213 91 220 96 221 c 0
 144 230 194 237 244 243 c 1
 245 245 l 1
 254 271 267 295 276 321 c 0
 277 325 281 326 288 326 c 0
 312 326 359 306 359 292 c 0
 359 291 359 291 359 290 c 0
 354 278 349 265 344 253 c 1
 387 257 432 260 476 263 c 1
 490 300 500 341 508 384 c 0
 509 391 521 394 536 394 c 0
 562 394 596 385 596 374 c 2
 596 373 l 1
 589 336 580 301 569 268 c 1
 617 267 665 259 701 242 c 0
 703 241 704 238 704 235 c 0
 704 216 670 167 654 167 c 1
 657 166 658 165 658 165 c 1
 652 167 l 1
 621 172 587 180 552 180 c 0
 548 180 543 180 539 180 c 2
 535 180 l 1
 515 136 491 94 465 56 c 1
 537 14 602 -36 656 -94 c 0
 657 -95 657 -97 657 -99 c 0
 657 -116 613 -156 595 -156 c 0
 593 -156 591 -155 590 -154 c 0
 541 -98 480 -52 413 -14 c 1
 362 -77 303 -131 240 -181 c 0
 233 -187 225 -190 216 -193 c 1
 215 -193 l 2
 202 -193 188 -152 188 -126 c 0
 188 -116 191 -108 196 -107 c 1
435 173 m 1
 404 171 l 2
 370 169 337 166 304 163 c 1
 293 139 l 1
 325 126 358 112 389 97 c 1
 406 121 421 146 435 173 c 1
130 258 m 0
 130 257 130 257 130 256 c 0
 130 241 81 210 61 210 c 0
 57 210 54 211 53 214 c 0
 46 230 45 227 45 234 c 0
 45 236 45 238 45 241 c 0
 45 243 45 246 45 248 c 0
 45 305 61 357 68 410 c 0
 69 416 79 418 92 418 c 0
 110 418 135 413 148 406 c 1
 145 416 143 425 143 432 c 0
 143 439 144 444 148 445 c 0
 227 471 312 492 404 505 c 1
 381 537 352 565 329 597 c 0
 328 598 328 600 328 601 c 0
 328 617 375 651 394 651 c 0
 397 651 400 651 401 649 c 0
 427 609 465 579 488 538 c 1
 492 523 l 1
 492 522 l 2
 492 519 491 517 488 515 c 1
 529 519 572 520 616 521 c 0
 617 521 617 521 618 521 c 0
 652 521 687 513 706 494 c 1
 709 493 712 493 713 493 c 0
 762 488 796 458 796 411 c 0
 796 399 794 387 790 373 c 2
 759 277 l 2
 758 273 752 272 745 272 c 0
 721 272 674 290 674 304 c 0
 674 305 675 305 675 306 c 0
 678 316 681 325 684 335 c 2
 706 402 l 1
 706 403 l 1
 695 406 l 1
 673 409 657 416 644 429 c 1
 628 433 611 434 593 434 c 0
 572 434 550 432 529 430 c 0
 402 420 280 400 178 362 c 0
 177 362 177 362 176 362 c 0
 169 362 160 373 154 387 c 1
 148 360 143 332 139 305 c 0
 137 289 130 275 130 258 c 0
EndSplineSet
Validated: 1
EndChar

StartChar: uni9152
Encoding: 37202 37202 137
Width: 836
VWidth: 0
Flags: HMW
LayerCount: 2
Fore
SplineSet
593 298 m 1
 594 287 595 275 596 264 c 1
 599 253 600 227 614 221 c 1
 642 222 672 227 694 230 c 1
 694 238 694 247 694 255 c 0
 694 263 694 271 694 278 c 0
 694 285 693 286 693 287 c 2
 693 288 l 1
 693 288 695 287 696 287 c 0
 697 287 696 287 697 287 c 1
 680 296 659 293 641 295 c 0
 625 296 609 297 593 298 c 1
431 136 m 0
 466 140 500 143 535 143 c 0
 545 143 556 143 566 142 c 0
 574 141 577 127 577 109 c 0
 577 84 570 54 559 54 c 1
 549 55 540 55 530 55 c 0
 501 55 472 52 443 48 c 1
 443 47 l 1
 431 47 421 84 421 110 c 0
 421 124 425 135 431 136 c 0
321 579 m 0
 399 587 481 606 565 606 c 0
 583 606 600 605 618 603 c 0
 625 602 628 590 628 575 c 0
 628 549 619 515 608 515 c 2
 607 515 l 1
 590 517 574 518 557 518 c 0
 527 518 497 515 467 511 c 1
 470 509 472 507 472 504 c 0
 469 462 462 422 454 384 c 1
 471 386 488 387 505 388 c 1
 505 423 504 456 498 489 c 1
 498 490 l 2
 498 501 530 509 556 509 c 0
 572 509 586 506 587 499 c 0
 592 462 592 425 592 388 c 1
 639 385 686 379 728 371 c 1
 763 356 779 327 782 291 c 0
 783 277 783 262 783 248 c 0
 783 178 772 107 772 35 c 0
 772 15 773 -5 775 -25 c 1
 776 -26 l 1
 776 -33 761 -39 744 -41 c 0
 744 -42 744 -43 744 -44 c 0
 744 -65 739 -86 726 -86 c 0
 725 -86 723 -86 721 -85 c 1
 708 -85 695 -85 682 -85 c 0
 570 -85 466 -96 368 -114 c 1
 367 -114 l 2
 354 -114 342 -74 342 -48 c 0
 342 -37 345 -28 350 -27 c 0
 456 -11 566 3 685 4 c 1
 685 13 684 23 684 32 c 0
 684 68 687 104 689 140 c 1
 647 134 l 2
 639 133 632 133 624 133 c 0
 598 133 573 138 552 157 c 0
 516 190 507 242 505 300 c 1
 479 299 454 297 430 293 c 1
 408 218 l 1
 386 152 l 2
 385 148 379 146 372 146 c 0
 363 146 350 149 338 153 c 1
 343 96 351 43 365 -6 c 0
 365 -7 366 -7 366 -8 c 0
 366 -22 319 -40 295 -40 c 0
 288 -40 282 -38 281 -34 c 0
 252 71 245 192 243 319 c 0
 243 329 266 335 289 336 c 1
 310 348 334 358 360 366 c 1
 371 408 378 451 382 498 c 1
 364 495 347 492 330 490 c 1
 329 490 l 2
 318 490 311 522 311 548 c 0
 311 564 314 578 321 579 c 0
173 580 m 0
 192 555 213 532 234 509 c 0
 247 494 259 479 270 463 c 0
 271 462 271 460 271 459 c 0
 271 443 222 411 202 411 c 0
 199 411 196 412 195 414 c 0
 187 427 177 439 167 451 c 2
 104 524 l 2
 103 525 102 526 102 528 c 0
 102 545 148 583 167 583 c 0
 170 583 172 582 173 580 c 0
142 345 m 0
 149 323 161 303 173 283 c 2
 193 249 l 2
 194 248 194 247 194 246 c 0
 194 231 145 201 124 201 c 0
 120 201 117 203 116 205 c 2
 96 239 l 2
 81 265 67 291 57 319 c 0
 57 320 56 320 56 321 c 0
 56 335 102 351 127 351 c 0
 135 351 141 349 142 345 c 0
42 -16 m 0
 78 38 123 86 169 131 c 0
 170 132 172 133 174 133 c 0
 191 133 233 91 233 74 c 0
 233 72 232 70 231 69 c 0
 190 28 149 -14 118 -64 c 0
 117 -66 114 -67 110 -67 c 0
 90 -67 41 -36 41 -20 c 0
 41 -19 41 -17 42 -16 c 0
EndSplineSet
Validated: 1
EndChar

StartChar: uni670D
Encoding: 26381 26381 138
Width: 941
VWidth: 0
Flags: HMW
LayerCount: 2
Fore
SplineSet
653 480 m 1
 654 478 656 476 657 476 c 2
 658 476 l 2
 659 476 659 477 659 477 c 2
 659 478 656 479 653 480 c 1
501 215 m 0
 561 230 627 242 697 242 c 0
 709 242 722 242 734 241 c 0
 770 240 804 213 804 178 c 0
 804 169 802 160 797 151 c 0
 769 96 729 50 683 9 c 1
 746 -38 l 1
 784 -68 822 -97 861 -124 c 2
 899 -150 l 2
 901 -151 902 -153 902 -156 c 0
 902 -175 868 -221 852 -221 c 0
 851 -221 849 -221 848 -220 c 2
 812 -194 l 1
 613 -47 l 1
 585 -67 556 -86 527 -105 c 0
 526 -106 525 -106 524 -106 c 0
 509 -106 480 -58 480 -38 c 0
 480 -34 482 -31 484 -30 c 0
 504 -19 523 -6 541 7 c 1
 515 25 490 42 465 61 c 0
 463 62 462 65 462 68 c 0
 462 87 497 133 513 133 c 0
 514 133 516 133 517 132 c 2
 611 62 l 1
 623 73 635 84 646 95 c 0
 665 114 684 133 700 155 c 1
 698 155 695 155 692 155 c 0
 632 155 577 144 526 131 c 0
 525 131 525 131 524 131 c 0
 511 131 495 176 495 200 c 0
 495 208 497 214 501 215 c 0
292 307 m 1
 296 364 301 421 307 476 c 1
 300 476 293 477 286 477 c 0
 245 477 204 469 180 448 c 0
 179 447 177 447 175 447 c 0
 173 447 172 447 170 448 c 1
 167 410 166 371 165 332 c 1
 196 338 228 340 263 340 c 0
 269 340 274 340 280 340 c 0
 288 339 292 324 292 307 c 1
287 172 m 1
 287 211 289 250 291 289 c 1
 289 270 283 253 275 253 c 2
 274 253 l 2
 268 253 262 254 256 254 c 0
 222 254 191 249 161 242 c 1
 160 228 159 214 157 200 c 2
 154 170 l 1
 168 169 182 168 196 168 c 0
 227 168 256 171 287 172 c 1
509 461 m 1
 478 325 458 175 458 14 c 0
 458 -10 458 -34 459 -59 c 0
 460 -83 462 -107 468 -130 c 1
 468 -132 l 2
 468 -145 427 -157 402 -157 c 0
 400 -157 398 -157 396 -157 c 1
 388 -165 355 -175 333 -175 c 0
 320 -175 310 -171 310 -161 c 0
 310 -160 310 -161 310 -160 c 0
 296 -83 290 0 288 85 c 1
 269 84 250 84 231 83 c 0
 213 83 196 82 178 82 c 0
 167 82 155 83 144 84 c 1
 138 31 l 2
 136 10 134 -12 132 -33 c 0
 131 -40 119 -43 103 -43 c 0
 78 -43 45 -35 45 -24 c 2
 45 -23 l 1
 53 40 l 2
 60 96 65 152 72 208 c 0
 86 320 78 434 93 545 c 0
 94 551 102 553 113 553 c 0
 129 553 151 548 165 541 c 1
 201 557 244 564 290 564 c 0
 298 564 305 563 313 563 c 0
 349 561 386 539 390 500 c 0
 391 485 393 471 393 456 c 0
 393 366 370 271 370 176 c 0
 370 171 370 165 370 160 c 0
 371 133 372 107 373 80 c 1
 378 222 402 363 426 486 c 0
 427 489 429 491 434 492 c 1
 425 507 419 527 419 539 c 0
 419 545 421 549 424 550 c 0
 468 565 530 578 588 578 c 0
 639 578 686 568 716 541 c 0
 732 527 738 509 738 491 c 0
 738 472 732 453 724 434 c 0
 703 383 678 331 646 289 c 0
 645 287 643 287 640 287 c 0
 622 287 576 324 576 340 c 0
 576 342 577 343 578 344 c 0
 608 384 630 431 649 481 c 1
 641 484 629 487 627 487 c 2
 626 487 l 1
 627 486 l 1
 611 487 596 488 581 488 c 0
 549 488 519 485 491 479 c 1
 502 474 510 468 510 462 c 1
 509 461 l 1
EndSplineSet
Validated: 1
EndChar

StartChar: uni5200
Encoding: 20992 20992 139
Width: 727
VWidth: 0
Flags: HMW
LayerCount: 2
Fore
SplineSet
395 437 m 0
 321 348 276 229 237 113 c 2
 172 -83 l 2
 171 -88 164 -89 155 -89 c 0
 130 -89 87 -76 87 -63 c 0
 87 -62 87 -62 87 -61 c 2
 158 143 l 1
 198 245 235 353 292 442 c 1
 259 438 225 432 193 424 c 0
 160 416 126 406 99 384 c 0
 98 383 97 382 95 382 c 0
 78 382 40 427 40 445 c 0
 40 447 40 449 42 450 c 0
 79 480 124 497 170 507 c 0
 245 524 322 536 399 536 c 0
 461 536 523 528 581 508 c 0
 633 490 668 449 672 385 c 0
 673 370 673 355 673 340 c 0
 673 233 650 128 643 24 c 0
 642 7 638 -8 633 -24 c 0
 632 -27 627 -28 621 -28 c 0
 598 -28 552 -7 552 7 c 0
 552 8 552 8 552 9 c 0
 557 13 556 29 558 33 c 1
 567 132 588 231 588 334 c 0
 588 347 588 359 587 372 c 0
 585 400 581 415 553 426 c 0
 508 444 459 449 411 449 c 0
 406 449 401 449 396 449 c 2
 394 449 l 1
 395 446 396 444 396 442 c 0
 396 440 396 438 395 437 c 0
EndSplineSet
Validated: 1
EndChar

StartChar: uni66F4
Encoding: 26356 26356 140
Width: 751
VWidth: 0
Flags: HMW
LayerCount: 2
Fore
SplineSet
421 390 m 1
 433 389 447 388 459 386 c 1
 459 395 458 405 456 413 c 1
 447 417 436 420 426 421 c 1
 425 411 423 400 421 390 c 1
389 261 m 1
 443 269 l 1
 440 272 438 276 438 279 c 0
 438 280 439 280 439 281 c 0
 443 290 446 299 449 310 c 1
 445 304 442 301 438 301 c 0
 437 301 l 1
 431 304 421 306 411 306 c 0
 408 306 404 306 401 306 c 1
 389 261 l 1
298 248 m 1
 301 257 l 1
 312 294 l 1
 294 291 276 287 259 281 c 0
 258 281 258 281 257 281 c 0
 244 281 227 326 227 350 c 0
 227 358 229 364 233 365 c 0
 265 373 299 381 334 386 c 1
 336 396 338 407 339 417 c 1
 286 413 231 408 196 384 c 1
 195 382 192 381 189 381 c 0
 187 381 184 381 181 382 c 1
 188 334 198 288 217 248 c 1
 220 245 l 1
 220 245 221 244 221 243 c 1
 247 243 273 245 298 248 c 1
148 -37 m 1
 160 -23 171 -8 182 8 c 1
 177 10 l 1
 45 61 l 2
 41 62 40 67 40 74 c 0
 40 97 59 144 73 144 c 0
 74 144 74 144 75 144 c 2
 208 89 l 1
 228 81 l 1
 242 106 255 132 266 159 c 1
 243 157 220 155 197 155 c 0
 190 155 184 156 177 156 c 0
 170 156 166 170 166 187 c 0
 166 190 166 194 166 197 c 1
 161 195 157 194 154 194 c 0
 151 194 148 195 147 197 c 2
 139 210 l 1
 110 275 97 348 87 427 c 1
 87 436 111 443 134 444 c 1
 158 469 190 482 224 488 c 0
 262 495 302 503 342 507 c 1
 341 523 338 538 335 554 c 0
 335 555 335 555 335 556 c 0
 335 560 338 565 344 570 c 1
 308 567 272 561 238 557 c 0
 197 552 156 544 115 535 c 1
 113 535 l 2
 101 535 90 575 90 600 c 0
 90 611 92 620 97 621 c 0
 139 628 182 637 225 642 c 0
 279 648 335 659 390 659 c 0
 419 659 447 656 474 647 c 1
 501 629 501 618 502 588 c 1
 501 582 492 579 479 579 c 0
 454 579 419 589 416 600 c 1
 418 586 422 572 437 569 c 1
 431 570 426 571 420 571 c 1
 426 550 429 529 430 508 c 1
 450 505 470 500 489 493 c 0
 532 476 544 441 546 398 c 0
 546 394 547 390 547 386 c 0
 547 350 541 314 532 282 c 1
 540 284 l 1
 542 284 l 2
 554 284 564 247 564 221 c 0
 564 208 561 198 555 197 c 2
 361 171 l 1
 346 130 328 90 308 52 c 1
 345 39 382 27 419 16 c 2
 601 -37 l 2
 640 -49 690 -69 709 -88 c 0
 710 -89 711 -91 711 -93 c 0
 711 -110 669 -152 652 -152 c 0
 650 -152 648 -151 647 -150 c 0
 572 -109 479 -93 394 -65 c 2
 264 -22 l 1
 248 -46 232 -69 215 -91 c 0
 199 -111 179 -128 152 -128 c 0
 146 -128 140 -127 133 -125 c 2
 120 -120 l 2
 117 -119 115 -115 115 -110 c 0
 115 -88 143 -47 148 -37 c 1
EndSplineSet
Validated: 1
EndChar

StartChar: uni867D
Encoding: 34429 34429 141
Width: 700
VWidth: 0
Flags: HMW
LayerCount: 2
Fore
SplineSet
513 -56 m 1
 494 -22 l 2
 494 -21 493 -21 493 -20 c 0
 493 -13 503 -3 516 5 c 1
 514 4 510 3 507 3 c 0
 502 3 495 4 488 6 c 1
 472 7 456 7 440 7 c 0
 412 7 384 6 356 4 c 1
 356 1 l 2
 356 -26 356 -54 356 -80 c 1
 513 -56 l 1
355 90 m 1
 386 92 418 92 449 92 c 0
 451 92 454 92 456 92 c 1
 502 216 l 1
 492 217 482 217 473 217 c 0
 464 217 456 217 448 217 c 0
 415 216 383 214 351 211 c 1
 353 171 354 130 355 90 c 1
270 83 m 1
 270 122 268 161 266 200 c 1
 222 193 180 184 138 176 c 1
 138 173 139 169 139 166 c 0
 143 137 146 106 159 79 c 0
 159 78 159 78 159 77 c 0
 159 73 155 68 148 63 c 1
 186 72 227 78 270 83 c 1
150 627 m 0
 196 651 263 667 327 667 c 0
 390 667 449 651 481 613 c 0
 494 598 499 581 499 564 c 0
 499 551 496 537 492 524 c 0
 484 495 471 467 460 439 c 1
 443 391 l 2
 443 389 442 388 440 387 c 1
 438 379 434 374 429 374 c 0
 423 374 417 375 411 375 c 0
 387 375 362 374 339 372 c 1
 342 348 344 323 346 297 c 1
 384 302 423 305 462 305 c 0
 490 305 518 304 546 299 c 0
 582 293 598 270 598 242 c 0
 598 232 596 220 592 209 c 2
 549 89 l 1
 563 88 576 88 589 87 c 0
 597 86 600 72 600 55 c 0
 600 30 594 0 583 -1 c 1
 614 -58 l 2
 628 -85 644 -110 660 -136 c 0
 661 -137 661 -138 661 -139 c 0
 661 -154 613 -186 593 -186 c 0
 589 -186 586 -184 585 -182 c 0
 576 -167 567 -152 558 -137 c 1
 447 -148 324 -174 217 -191 c 0
 177 -198 137 -207 99 -221 c 0
 98 -221 98 -222 97 -222 c 0
 83 -222 66 -175 66 -151 c 0
 66 -144 67 -138 71 -137 c 0
 134 -120 200 -106 268 -94 c 1
 269 -65 270 -35 270 -4 c 1
 260 -5 249 -7 239 -8 c 0
 199 -14 160 -23 122 -37 c 0
 121 -37 121 -37 120 -37 c 0
 106 -37 87 10 87 34 c 0
 87 36 88 38 88 40 c 1
 83 40 79 41 78 44 c 0
 54 107 47 178 44 257 c 0
 44 265 63 270 83 270 c 0
 99 270 115 268 125 263 c 1
 169 271 214 278 259 285 c 1
 261 285 l 1
 259 312 255 338 252 362 c 1
 211 355 172 345 135 333 c 0
 134 333 134 333 133 333 c 0
 119 333 99 379 99 403 c 0
 99 406 99 408 100 410 c 1
 79 453 72 505 63 558 c 1
 63 559 l 2
 63 571 98 579 124 579 c 0
 138 579 150 576 151 570 c 0
 157 524 163 473 184 439 c 0
 185 438 185 438 185 437 c 1
 244 450 307 457 374 460 c 1
 378 470 l 2
 388 496 398 521 407 547 c 0
 409 554 408 558 409 559 c 1
 388 575 359 580 327 580 c 0
 279 580 227 567 195 551 c 0
 194 551 193 550 192 550 c 0
 177 550 146 599 146 619 c 0
 146 623 147 626 150 627 c 0
EndSplineSet
Validated: 1
EndChar

StartChar: uni8FC7
Encoding: 36807 36807 142
Width: 830
VWidth: 0
Flags: HMW
LayerCount: 2
Fore
SplineSet
469 271 m 0
 482 251 503 237 522 223 c 2
 548 205 l 2
 550 204 551 201 551 198 c 0
 551 179 518 133 502 133 c 0
 501 133 499 133 498 134 c 2
 471 153 l 2
 442 174 412 196 393 228 c 0
 392 229 392 230 392 231 c 0
 392 246 440 274 461 274 c 0
 465 274 468 273 469 271 c 0
144 89 m 1
 142 87 139 84 139 83 c 2
 139 82 l 1
 142 83 143 86 144 89 c 1
168 475 m 0
 183 445 201 416 219 387 c 1
 228 371 l 2
 229 370 229 369 229 368 c 0
 229 353 182 323 162 323 c 0
 158 323 156 324 155 326 c 2
 145 342 l 2
 126 373 107 404 90 436 c 0
 90 437 89 438 89 439 c 0
 89 454 137 479 158 479 c 0
 163 479 167 478 168 475 c 0
154 98 m 1
 163 90 170 79 175 68 c 0
 179 59 180 50 180 42 c 0
 180 18 167 -4 153 -25 c 1
 234 -53 337 -64 440 -64 c 0
 488 -64 537 -61 584 -57 c 1
 572 -41 561 -16 561 -1 c 0
 561 2 562 5 563 7 c 0
 580 120 576 249 578 375 c 1
 493 361 410 340 322 336 c 0
 313 336 309 355 309 376 c 0
 309 399 314 422 324 423 c 0
 413 428 495 445 580 460 c 1
 581 496 584 531 588 566 c 0
 589 572 598 574 610 574 c 0
 636 574 674 564 674 552 c 2
 674 551 l 1
 671 526 668 499 667 473 c 1
 700 477 734 481 769 482 c 1
 783 479 l 2
 788 478 789 472 789 463 c 0
 789 438 774 394 761 394 c 0
 760 394 760 395 759 395 c 0
 756 395 754 395 751 395 c 0
 723 395 694 388 667 386 c 1
 664 386 l 1
 663 337 664 287 662 237 c 0
 660 181 660 124 656 68 c 0
 653 22 652 -25 629 -52 c 1
 650 -50 670 -47 690 -44 c 2
 708 -41 l 1
 709 -41 l 2
 721 -41 731 -78 731 -103 c 0
 731 -115 729 -125 723 -126 c 2
 703 -129 l 2
 621 -141 534 -148 446 -148 c 0
 398 -148 349 -146 300 -141 c 0
 243 -135 186 -127 131 -110 c 0
 98 -99 48 -85 48 -37 c 0
 48 -36 48 -35 48 -34 c 0
 49 -7 68 6 81 24 c 0
 86 31 88 36 90 37 c 1
 79 47 64 60 60 75 c 0
 58 82 56 89 56 96 c 0
 56 127 79 151 101 171 c 1
 100 172 l 1
 82 186 63 201 47 217 c 0
 46 218 46 220 46 222 c 0
 46 239 88 281 105 281 c 0
 107 281 109 280 110 279 c 0
 136 251 174 235 195 202 c 0
 202 191 205 181 205 172 c 0
 205 142 176 118 154 98 c 1
EndSplineSet
Validated: 1
EndChar

StartChar: uni5F80
Encoding: 24448 24448 143
Width: 895
VWidth: 0
Flags: HMW
LayerCount: 2
Fore
SplineSet
499 586 m 0
 540 541 590 504 626 454 c 0
 627 453 627 451 627 450 c 0
 627 434 581 399 562 399 c 0
 559 399 556 400 555 402 c 0
 543 419 529 435 514 449 c 2
 436 524 l 2
 435 525 434 527 434 529 c 0
 434 546 477 588 494 588 c 0
 496 588 498 587 499 586 c 0
330 343 m 2
 580 389 l 1
 603 392 625 395 648 395 c 0
 657 395 662 373 662 352 c 0
 662 329 657 307 647 307 c 0
 619 306 592 303 565 299 c 1
 568 296 570 294 570 291 c 2
 564 157 l 1
 612 167 659 177 708 184 c 1
 719 184 726 153 726 128 c 0
 726 111 723 97 716 96 c 0
 662 90 611 78 560 67 c 1
 555 -40 l 1
 605 -32 656 -27 708 -27 c 0
 754 -27 800 -32 847 -41 c 0
 852 -42 854 -49 854 -59 c 0
 854 -84 840 -126 827 -126 c 2
 826 -126 l 1
 789 -117 743 -114 699 -114 c 0
 682 -114 666 -114 650 -115 c 0
 524 -120 406 -162 293 -184 c 1
 292 -184 l 2
 281 -184 273 -152 273 -126 c 0
 273 -124 273 -121 273 -119 c 1
 264 -121 255 -122 247 -122 c 0
 234 -122 224 -119 223 -113 c 0
 215 -65 209 9 209 83 c 0
 209 119 211 155 214 188 c 1
 184 137 l 2
 172 116 159 91 158 65 c 0
 158 58 144 54 128 54 c 0
 103 54 71 61 71 72 c 2
 71 73 l 1
 92 188 168 266 220 356 c 0
 242 395 265 435 295 468 c 0
 296 469 298 470 300 470 c 0
 317 470 359 428 359 410 c 0
 359 408 358 406 357 405 c 0
 322 360 290 313 259 264 c 1
 283 261 311 252 311 242 c 1
 310 240 l 1
 299 194 295 136 295 78 c 0
 295 14 300 -49 307 -91 c 1
 358 -80 412 -67 467 -56 c 1
 471 51 l 1
 439 46 407 40 375 37 c 1
 374 37 l 2
 364 37 358 65 358 89 c 0
 358 108 362 125 370 125 c 0
 406 128 441 133 475 139 c 1
 477 182 l 2
 478 216 477 249 480 283 c 1
 434 273 388 262 341 255 c 1
 329 255 320 290 320 316 c 0
 320 331 323 342 330 343 c 2
293 550 m 0
 229 496 181 423 134 352 c 0
 121 332 128 341 118 323 c 0
 117 321 113 320 109 320 c 0
 88 320 40 348 40 363 c 0
 40 364 40 365 41 366 c 2
 61 399 l 1
 116 479 170 563 244 624 c 0
 245 625 247 625 248 625 c 0
 263 625 296 577 296 557 c 0
 296 554 295 552 293 550 c 0
EndSplineSet
Validated: 1
EndChar

StartChar: uni76F8
Encoding: 30456 30456 144
Width: 846
VWidth: 0
Flags: HMW
LayerCount: 2
Fore
SplineSet
688 107 m 1
 695 170 702 235 702 298 c 0
 702 340 699 383 690 424 c 0
 687 436 691 440 677 440 c 0
 628 440 579 433 546 410 c 0
 545 409 543 409 542 409 c 0
 536 409 527 415 518 423 c 1
 517 384 517 345 517 306 c 0
 517 286 517 267 517 247 c 1
 546 257 580 262 618 262 c 0
 631 262 643 262 657 261 c 0
 664 260 667 247 667 230 c 0
 667 205 660 173 649 173 c 1
 649 174 l 1
 636 175 623 175 611 175 c 0
 576 175 544 169 522 151 c 1
 522 151 521 150 520 150 c 1
 521 136 521 121 522 107 c 1
 573 112 623 122 675 126 c 1
 676 126 l 2
 681 126 685 118 688 107 c 1
490 479 m 0
 538 514 603 528 676 528 c 0
 729 528 756 507 771 457 c 0
 786 410 790 362 790 312 c 0
 790 229 776 142 769 59 c 0
 765 18 760 -22 755 -62 c 1
 763 -63 771 -63 778 -64 c 0
 785 -65 789 -79 789 -96 c 0
 789 -121 782 -151 771 -151 c 2
 770 -151 l 1
 738 -148 699 -146 659 -146 c 0
 593 -146 524 -152 476 -168 c 0
 475 -168 476 -168 475 -168 c 0
 462 -168 448 -125 448 -100 c 0
 448 -91 449 -83 454 -82 c 0
 513 -65 591 -59 663 -59 c 0
 665 -59 667 -59 669 -59 c 1
 674 -26 677 6 681 39 c 1
 628 36 577 26 526 20 c 1
 527 -5 529 -30 531 -54 c 0
 531 -65 500 -72 475 -72 c 0
 458 -72 444 -69 443 -61 c 2
 432 281 l 2
 431 319 430 356 430 394 c 0
 430 411 430 428 431 445 c 0
 431 453 446 455 463 455 c 0
 474 455 486 453 496 451 c 1
 491 459 487 468 487 473 c 0
 487 476 488 478 490 479 c 0
174 58 m 1
 131 14 l 1
 118 0 l 2
 117 -1 115 -2 113 -2 c 0
 95 -2 52 37 52 54 c 0
 52 56 53 58 54 59 c 2
 145 152 l 2
 146 153 148 153 150 153 c 0
 161 153 180 135 193 118 c 1
 203 221 l 1
 155 220 107 217 62 211 c 1
 51 211 44 241 44 266 c 0
 44 283 47 298 55 299 c 2
 211 307 l 1
 213 342 213 376 213 411 c 0
 213 427 213 443 212 459 c 0
 212 469 236 474 258 474 c 0
 280 474 301 469 301 460 c 0
 300 409 299 361 296 312 c 1
 343 314 l 2
 357 315 371 316 384 320 c 1
 385 320 l 2
 398 320 411 278 411 253 c 0
 411 243 409 236 404 235 c 0
 368 228 330 226 290 224 c 1
 286 173 281 121 276 71 c 1
 284 66 291 61 299 56 c 0
 333 32 357 -3 401 -16 c 0
 405 -17 407 -24 407 -33 c 0
 407 -58 392 -101 379 -101 c 0
 378 -101 378 -101 377 -101 c 0
 330 -89 300 -57 267 -29 c 1
 265 -56 262 -83 260 -110 c 0
 259 -117 247 -119 232 -119 c 0
 207 -119 173 -111 173 -100 c 2
 173 -99 l 1
 184 17 l 1
 177 20 174 35 174 52 c 0
 174 54 174 56 174 58 c 1
EndSplineSet
Validated: 1
EndChar

StartChar: uni5973
Encoding: 22899 22899 145
Width: 945
VWidth: 0
Flags: HMW
LayerCount: 2
Fore
SplineSet
543 299 m 1
 525 300 508 300 490 300 c 0
 483 300 476 300 469 300 c 2
 317 297 l 1
 314 287 311 277 308 267 c 1
 367 244 414 201 468 168 c 1
 486 196 503 224 519 253 c 0
 528 268 535 284 543 299 c 1
579 383 m 1
 599 439 613 501 619 570 c 0
 620 577 633 580 650 580 c 0
 675 580 707 573 707 562 c 1
 700 495 686 434 667 377 c 1
 735 371 802 365 866 365 c 0
 870 365 875 366 879 366 c 0
 890 366 897 334 897 309 c 0
 897 292 894 277 886 277 c 0
 880 277 875 277 869 277 c 0
 791 277 713 286 634 293 c 1
 607 233 576 178 542 126 c 1
 566 110 588 92 610 72 c 2
 674 10 l 2
 688 -4 705 -13 719 -27 c 0
 720 -28 720 -29 720 -31 c 0
 720 -47 684 -93 663 -93 c 0
 659 -93 656 -91 653 -87 c 1
 640 -76 626 -66 614 -54 c 2
 551 8 l 2
 533 26 513 40 492 54 c 1
 463 15 l 2
 425 -36 390 -98 325 -120 c 0
 320 -122 315 -122 310 -122 c 0
 295 -122 281 -114 269 -104 c 0
 268 -103 268 -102 268 -100 c 0
 268 -83 303 -35 322 -35 c 1
 318 -34 314 -33 310 -33 c 0
 307 -33 304 -34 301 -35 c 0
 300 -35 l 1
 300 -35 320 -25 320 -22 c 1
 356 15 388 55 419 97 c 1
 391 113 363 129 337 149 c 0
 320 161 303 175 284 183 c 1
 281 183 278 182 275 182 c 0
 239 182 210 205 210 237 c 0
 210 242 210 248 212 254 c 2
 225 295 l 1
 60 292 l 2
 49 292 43 321 43 346 c 0
 43 364 46 381 54 381 c 2
 253 382 l 1
 282 473 l 1
 292 510 301 548 305 586 c 0
 306 593 318 595 332 595 c 0
 358 595 392 587 392 575 c 2
 392 574 l 1
 381 507 364 444 345 383 c 1
 469 384 l 2
 484 385 498 385 513 385 c 0
 535 385 557 384 579 383 c 1
EndSplineSet
Validated: 1
EndChar

StartChar: uni5FFD
Encoding: 24573 24573 146
Width: 894
VWidth: 0
Flags: HMW
LayerCount: 2
Fore
SplineSet
827 225 m 0
 834 212 843 199 852 187 c 0
 853 186 853 184 853 183 c 0
 853 167 807 133 788 133 c 0
 785 133 782 134 781 136 c 0
 770 151 760 166 751 182 c 0
 750 183 750 184 750 185 c 0
 750 200 798 229 819 229 c 0
 823 229 826 227 827 225 c 0
619 485 m 2
 621 483 623 480 625 480 c 1
 626 481 l 2
 626 482 622 488 621 488 c 2
 621 488 620 488 620 487 c 0
 620 486 621 486 621 484 c 1
 619 485 l 2
497 175 m 0
 504 162 514 153 525 144 c 0
 526 143 527 140 527 138 c 0
 527 120 488 77 472 77 c 0
 470 77 469 77 468 78 c 0
 448 96 429 116 417 140 c 0
 417 141 416 141 416 142 c 0
 416 156 464 180 486 180 c 0
 491 180 496 178 497 175 c 0
541 435 m 2
 502 354 l 2
 490 329 477 306 463 282 c 0
 462 280 459 278 455 278 c 0
 435 278 388 307 388 322 c 0
 388 323 388 324 389 325 c 0
 416 370 438 420 460 470 c 0
 461 473 465 474 471 474 c 0
 493 474 541 452 541 438 c 0
 541 437 541 436 541 435 c 2
421 448 m 0
 384 399 362 339 337 280 c 0
 336 276 330 275 324 275 c 0
 301 275 255 295 255 309 c 0
 255 310 255 310 255 311 c 2
 259 323 l 1
 282 375 304 426 333 473 c 1
 315 468 297 463 281 456 c 0
 280 456 279 455 278 455 c 0
 274 455 269 459 264 465 c 1
 231 375 l 1
 228 365 l 2
 227 361 221 360 214 360 c 0
 190 360 145 378 145 391 c 0
 145 392 145 392 145 393 c 2
 150 406 l 2
 176 473 203 541 218 616 c 0
 219 621 228 624 239 624 c 0
 264 624 304 612 304 600 c 2
 304 599 l 1
 300 583 296 567 292 551 c 1
 362 571 443 576 525 578 c 0
 532 578 538 579 545 579 c 0
 578 579 610 576 641 568 c 0
 683 557 703 533 703 491 c 0
 703 490 703 488 703 487 c 0
 701 420 677 356 657 299 c 0
 656 296 651 294 645 294 c 0
 622 294 576 315 576 329 c 0
 576 330 576 330 576 331 c 0
 594 378 608 432 616 485 c 1
 590 492 561 493 534 493 c 0
 531 493 529 493 526 493 c 0
 483 493 440 490 399 485 c 1
 412 473 422 460 422 452 c 0
 422 450 422 449 421 448 c 0
723 75 m 1
 741 70 769 67 769 57 c 0
 766 26 742 9 716 0 c 0
 635 -29 539 -60 437 -61 c 0
 435 -61 432 -61 430 -61 c 0
 380 -61 330 -54 285 -31 c 0
 245 -11 211 16 199 61 c 0
 195 77 193 92 193 108 c 1
 117 -23 l 2
 116 -25 113 -25 110 -25 c 0
 91 -25 41 -1 41 19 c 0
 41 22 42 26 46 29 c 1
 96 110 l 1
 112 138 128 165 142 194 c 0
 143 197 147 198 151 198 c 0
 170 198 212 175 219 160 c 0
 220 160 222 160 223 160 c 0
 249 160 284 151 284 139 c 1
 282 128 280 117 280 106 c 0
 280 98 282 89 284 81 c 1
 318 39 373 25 434 25 c 0
 522 25 622 56 684 81 c 0
 684 81 684 81 685 81 c 0
 691 81 717 75 722 75 c 0
 723 75 l 1
EndSplineSet
Validated: 1
EndChar

StartChar: uni592B
Encoding: 22827 22827 147
Width: 741
VWidth: 0
Flags: HMW
LayerCount: 2
Fore
SplineSet
357 89 m 0
 377 69 400 54 426 43 c 0
 501 11 586 4 653 -34 c 0
 656 -35 657 -38 657 -42 c 0
 657 -63 629 -110 614 -110 c 0
 613 -110 612 -110 611 -110 c 0
 511 -59 373 -54 298 24 c 0
 297 25 296 27 296 29 c 0
 296 47 335 91 352 91 c 0
 354 91 356 90 357 89 c 0
56 194 m 0
 103 198 150 206 197 214 c 0
 212 217 228 219 243 221 c 1
 282 342 l 1
 238 337 193 333 149 325 c 1
 148 324 l 1
 136 324 125 362 125 388 c 0
 125 400 128 410 134 411 c 0
 182 418 230 423 278 428 c 2
 309 431 l 1
 353 579 l 2
 354 583 359 584 365 584 c 0
 388 584 435 564 435 550 c 0
 435 549 435 549 435 548 c 2
 400 439 l 1
 475 445 l 2
 512 447 548 452 585 452 c 0
 589 452 595 452 599 452 c 0
 607 452 610 434 610 415 c 0
 610 391 604 365 594 365 c 1
 586 366 579 366 571 366 c 0
 541 366 511 362 482 360 c 0
 446 357 409 354 373 351 c 1
 336 233 l 1
 448 245 561 252 676 263 c 1
 677 263 l 2
 688 263 697 228 697 203 c 0
 697 189 694 176 687 176 c 2
 455 160 l 2
 405 157 355 150 306 143 c 1
 241 -24 l 1
 215 -93 l 2
 214 -96 209 -98 203 -98 c 0
 180 -98 134 -77 134 -63 c 0
 134 -62 134 -62 134 -61 c 2
 161 8 l 1
 178 47 195 87 210 128 c 1
 159 120 108 112 58 106 c 1
 49 106 43 130 43 153 c 0
 43 174 47 194 56 194 c 0
EndSplineSet
Validated: 1
EndChar

StartChar: uni7840
Encoding: 30784 30784 148
Width: 994
VWidth: 0
Flags: HMW
LayerCount: 2
Fore
SplineSet
540 -88 m 1
 541 -93 542 -98 543 -98 c 2
 543 -98 544 -97 544 -96 c 0
 544 -95 544 -96 544 -95 c 0
 544 -92 542 -90 540 -88 c 1
951 129 m 1
 930 48 933 -50 930 -144 c 0
 930 -154 930 -158 930 -161 c 0
 930 -167 931 -167 931 -184 c 0
 931 -193 907 -198 885 -198 c 0
 864 -198 845 -194 845 -185 c 2
 848 -97 l 1
 837 -97 l 1
 727 -99 633 -165 530 -169 c 0
 529 -169 527 -169 526 -169 c 0
 474 -169 453 -121 453 -76 c 0
 453 -73 453 -71 453 -68 c 0
 456 -18 459 31 463 81 c 0
 467 120 471 159 477 197 c 0
 478 202 485 204 496 204 c 0
 521 204 562 192 562 180 c 2
 562 178 l 1
 548 100 542 16 539 -70 c 1
 539 -68 538 -67 538 -67 c 1
 538 -67 538 -68 538 -69 c 0
 538 -72 538 -77 539 -83 c 1
 633 -63 727 -15 832 -11 c 1
 851 -11 l 1
 852 36 l 1
 855 76 856 116 867 155 c 0
 868 159 874 161 882 161 c 0
 906 161 951 144 951 130 c 0
 951 129 l 1
854 508 m 1
 841 427 847 343 837 260 c 0
 836 253 822 250 806 250 c 0
 781 250 751 256 751 267 c 2
 751 268 l 1
 753 283 754 299 755 314 c 1
 750 313 l 2
 735 311 720 308 705 305 c 1
 704 265 703 225 701 186 c 0
 698 127 699 67 697 8 c 0
 697 0 679 -4 660 -4 c 0
 637 -4 612 1 612 11 c 2
 622 288 l 1
 621 288 l 1
 599 284 575 281 553 281 c 0
 528 281 505 285 482 297 c 0
 453 311 439 349 439 386 c 0
 439 394 440 401 441 409 c 0
 447 444 453 479 465 512 c 0
 466 515 470 517 476 517 c 0
 499 517 546 495 546 481 c 0
 546 480 546 479 546 478 c 0
 536 452 531 425 527 397 c 0
 526 396 525 393 525 389 c 0
 525 379 527 365 529 365 c 1
 529 365 530 366 530 369 c 1
 537 368 544 368 551 368 c 0
 577 368 601 371 625 376 c 1
 628 445 l 2
 631 497 631 550 647 600 c 0
 648 604 653 605 659 605 c 0
 682 605 729 584 729 570 c 2
 729 568 l 1
 716 513 711 454 708 393 c 1
 717 395 726 397 736 398 c 2
 753 400 l 1
 753 401 l 1
 755 401 757 400 759 398 c 1
 760 440 762 482 767 523 c 0
 768 529 778 532 790 532 c 0
 816 532 854 521 854 509 c 2
 854 508 l 1
354 -33 m 1
 362 22 365 81 365 137 c 0
 365 156 364 174 364 192 c 1
 357 196 349 197 341 197 c 0
 318 197 293 186 273 177 c 0
 272 177 271 177 270 177 c 0
 261 177 248 194 239 213 c 1
 239 205 239 197 239 189 c 0
 239 116 254 47 263 -21 c 0
 264 -25 264 -28 265 -32 c 1
 284 -33 302 -33 321 -33 c 2
 354 -33 l 1
234 256 m 0
 265 270 298 279 331 283 c 0
 336 284 342 284 347 284 c 0
 385 284 425 266 437 233 c 0
 450 198 454 162 454 125 c 0
 454 66 444 6 439 -54 c 0
 438 -60 427 -63 414 -63 c 0
 408 -63 401 -62 394 -61 c 1
 395 -66 395 -72 395 -78 c 0
 395 -99 391 -120 382 -120 c 2
 230 -117 l 2
 223 -116 220 -104 220 -89 c 0
 220 -78 222 -66 225 -55 c 1
 218 -56 211 -56 205 -56 c 0
 191 -56 181 -54 180 -48 c 2
 178 -33 l 1
 173 13 164 59 158 107 c 1
 147 58 138 9 132 -41 c 1
 132 -52 l 2
 132 -60 115 -64 96 -64 c 0
 72 -64 45 -58 45 -48 c 2
 45 -47 l 1
 47 -30 l 1
 67 108 103 240 131 372 c 0
 137 400 143 427 149 454 c 1
 80 439 l 1
 78 438 l 1
 66 438 54 478 54 503 c 0
 54 514 57 523 62 524 c 0
 143 536 223 562 307 569 c 0
 317 569 323 543 323 520 c 0
 323 500 318 483 310 483 c 0
 288 482 265 479 243 474 c 0
 243 473 244 472 244 471 c 2
 244 469 l 1
 189 241 l 1
 205 241 222 239 232 234 c 1
 231 239 230 242 230 246 c 0
 230 251 231 255 234 256 c 0
EndSplineSet
Validated: 1
EndChar

StartChar: uni55EF
Encoding: 21999 21999 149
Width: 1002
VWidth: 0
Flags: HMW
LayerCount: 2
Fore
SplineSet
926 182 m 0
 931 160 940 138 950 118 c 1
 961 99 l 1
 961 98 l 2
 961 97 961 97 961 96 c 0
 961 81 914 52 893 52 c 0
 889 52 885 53 884 55 c 2
 871 79 l 1
 858 106 846 134 839 163 c 1
 839 164 l 2
 839 177 880 189 906 189 c 0
 917 189 925 187 926 182 c 0
626 95 m 2
 693 49 l 2
 695 48 696 45 696 42 c 0
 696 23 663 -24 647 -24 c 0
 646 -24 644 -24 643 -23 c 0
 621 -8 599 8 576 22 c 0
 574 23 573 26 573 29 c 0
 573 49 606 96 622 96 c 0
 623 96 625 96 626 95 c 2
570 382 m 1
 583 390 596 397 605 397 c 0
 608 397 611 396 612 394 c 0
 627 372 647 352 668 335 c 1
 667 370 l 1
 667 409 l 1
 655 413 641 413 630 414 c 0
 618 415 606 415 595 415 c 0
 590 415 586 415 581 415 c 1
 570 382 l 1
566 311 m 1
 561 317 556 323 551 329 c 1
 544 307 l 1
 551 308 558 310 566 311 c 1
483 397 m 1
 473 394 464 390 455 386 c 0
 454 386 454 386 453 386 c 0
 452 386 450 386 449 387 c 1
 454 376 461 365 468 355 c 1
 483 397 l 1
610 503 m 1
 629 503 648 501 666 498 c 1
 666 567 l 1
 665 570 665 575 664 578 c 1
 652 579 641 579 630 579 c 0
 553 579 486 565 416 555 c 0
 416 554 416 554 416 553 c 0
 416 523 419 495 424 469 c 1
 451 480 482 489 516 495 c 1
 521 512 526 530 530 547 c 0
 531 552 539 554 550 554 c 0
 576 554 617 542 617 529 c 2
 617 528 l 1
 615 520 612 511 610 503 c 1
513 48 m 0
 513 40 513 29 513 20 c 0
 513 -3 515 -26 533 -33 c 0
 554 -42 577 -45 600 -45 c 0
 659 -45 722 -23 777 -20 c 0
 810 -18 845 -13 873 -4 c 0
 874 -4 874 -4 875 -4 c 0
 888 -4 905 -49 905 -74 c 0
 905 -82 902 -89 898 -90 c 0
 865 -100 825 -103 786 -107 c 0
 724 -113 655 -132 591 -132 c 0
 555 -132 521 -126 490 -109 c 0
 448 -87 429 -46 425 9 c 1
 377 -58 l 1
 360 -84 l 2
 359 -86 357 -87 354 -87 c 0
 335 -87 287 -52 287 -36 c 0
 287 -35 287 -34 288 -33 c 2
 366 75 l 2
 387 103 408 132 432 158 c 0
 433 159 435 160 437 160 c 0
 454 160 496 118 496 101 c 0
 496 99 496 97 495 96 c 0
 485 86 476 75 467 64 c 1
 490 63 513 57 513 48 c 0
246 197 m 1
 249 248 255 296 266 340 c 1
 220 339 175 339 136 329 c 1
 138 284 141 240 151 201 c 1
 150 202 l 1
 150 199 149 195 146 191 c 1
 246 197 l 1
399 642 m 2
 591 666 l 1
 611 667 631 668 650 668 c 0
 681 668 709 664 728 646 c 0
 752 623 756 586 756 545 c 0
 756 525 755 503 755 482 c 0
 755 481 755 479 755 478 c 2
 757 306 l 2
 757 301 757 295 757 290 c 0
 757 281 756 273 755 264 c 0
 754 259 746 257 735 257 c 0
 732 257 729 257 726 257 c 1
 722 240 715 226 708 226 c 2
 707 226 l 1
 688 229 668 230 650 230 c 0
 563 230 486 204 424 171 c 0
 423 171 422 171 421 171 c 0
 406 171 376 220 376 240 c 0
 376 244 376 247 379 248 c 0
 399 258 421 268 444 277 c 1
 453 310 l 1
 442 296 429 285 418 285 c 0
 413 285 409 287 405 292 c 0
 388 317 373 345 361 376 c 1
 361 372 362 368 362 364 c 0
 362 321 336 278 335 233 c 0
 335 222 334 210 334 199 c 1
 336 199 337 198 339 198 c 0
 344 197 346 189 346 179 c 0
 346 153 333 111 320 111 c 2
 319 111 l 1
 310 113 301 114 292 114 c 0
 269 114 245 110 222 109 c 0
 187 107 153 102 118 100 c 0
 108 100 103 126 103 149 c 0
 103 151 103 152 103 154 c 1
 96 150 90 148 86 148 c 0
 83 148 81 148 80 150 c 0
 67 167 71 159 66 177 c 0
 50 236 50 299 46 366 c 0
 46 374 63 378 81 380 c 1
 80 385 79 390 79 394 c 0
 79 400 81 404 84 405 c 0
 143 426 209 425 281 428 c 0
 285 428 288 428 292 428 c 0
 314 428 339 423 350 409 c 1
 346 423 342 437 339 451 c 0
 332 483 330 515 328 547 c 1
 328 548 l 2
 328 558 356 564 380 564 c 0
 387 564 393 564 399 563 c 1
 393 574 389 594 389 612 c 0
 389 628 392 641 399 642 c 2
EndSplineSet
Validated: 1
EndChar

StartChar: uni7761
Encoding: 30561 30561 150
Width: 1074
VWidth: 0
Flags: HMW
LayerCount: 2
Fore
SplineSet
275 403 m 1
 277 402 278 400 280 400 c 0
 281 400 l 2
 279 401 278 402 275 403 c 1
244 95 m 1
 242 95 241 95 239 95 c 0
 231 95 222 95 212 95 c 0
 208 95 204 95 200 95 c 0
 184 95 168 95 153 96 c 1
 154 81 156 67 157 52 c 0
 159 37 160 22 163 7 c 1
 191 9 219 11 245 14 c 1
 244 33 244 52 244 71 c 0
 244 79 244 87 244 95 c 1
249 182 m 1
 250 195 251 207 252 220 c 1
 217 218 187 212 159 198 c 0
 158 197 157 197 156 197 c 0
 153 197 149 200 145 203 c 1
 146 181 l 1
 148 183 151 185 153 185 c 2
 154 185 l 1
 185 182 222 183 249 182 c 1
261 309 m 1
 264 340 267 372 270 404 c 1
 267 404 265 404 262 404 c 0
 246 404 227 399 214 397 c 0
 188 393 161 387 136 378 c 1
 138 347 140 317 141 286 c 1
 177 300 214 306 260 309 c 1
 261 309 l 1
501 36 m 2
 613 57 l 1
 619 58 l 1
 618 91 617 124 616 157 c 2
 614 198 l 1
 504 192 l 1
 507 172 511 154 518 139 c 0
 519 138 519 137 519 135 c 0
 519 119 473 83 454 83 c 0
 451 83 449 84 448 86 c 0
 428 113 420 148 416 188 c 1
 389 187 362 187 335 186 c 1
 332 148 331 108 331 69 c 0
 331 28 333 -14 337 -55 c 0
 337 -64 314 -69 291 -69 c 0
 287 -69 282 -69 278 -69 c 0
 227 -77 172 -80 117 -84 c 0
 108 -84 102 -59 101 -36 c 1
 90 -36 83 -33 82 -28 c 0
 57 118 61 283 44 435 c 1
 44 436 l 2
 44 446 69 452 92 453 c 1
 93 456 95 457 97 458 c 0
 146 472 199 490 257 490 c 0
 273 490 289 488 305 485 c 1
 346 468 357 437 357 402 c 0
 357 390 356 376 354 363 c 0
 350 333 346 303 343 272 c 1
 349 272 355 272 361 272 c 0
 378 272 396 272 413 273 c 1
 412 290 411 307 410 324 c 0
 410 334 436 340 460 340 c 0
 480 340 499 336 499 327 c 0
 500 311 500 294 500 277 c 1
 537 279 573 282 610 284 c 1
 608 318 605 353 602 387 c 1
 577 385 551 383 526 381 c 0
 489 378 451 374 414 368 c 1
 413 368 l 2
 401 368 392 404 392 430 c 0
 392 444 394 455 401 456 c 2
 593 472 l 1
 588 522 l 1
 572 514 555 508 538 501 c 0
 510 490 524 495 497 487 c 0
 496 487 496 486 495 486 c 0
 482 486 466 531 466 555 c 0
 466 563 468 569 472 570 c 0
 494 576 483 572 506 581 c 0
 596 616 679 666 741 732 c 0
 742 734 745 735 747 735 c 0
 765 735 810 695 810 679 c 0
 810 677 809 676 808 675 c 0
 769 633 722 598 671 567 c 1
 673 538 676 508 679 479 c 1
 683 479 l 1
 822 494 l 1
 823 494 l 2
 834 494 840 465 840 440 c 0
 840 422 837 407 829 406 c 2
 689 393 l 1
 686 393 l 1
 689 358 691 324 693 289 c 1
 698 289 704 289 709 289 c 0
 736 290 764 290 791 290 c 1
 790 318 789 346 788 374 c 0
 788 384 812 389 835 389 c 0
 856 389 877 384 877 375 c 2
 877 289 l 1
 889 289 902 289 914 289 c 0
 949 288 983 288 1018 286 c 0
 1026 285 1029 269 1029 251 c 0
 1029 226 1023 198 1012 198 c 0
 968 202 923 204 878 205 c 1
 878 124 l 2
 878 116 860 112 840 112 c 0
 816 112 790 117 790 127 c 0
 791 153 792 179 792 205 c 1
 761 205 729 203 698 202 c 1
 699 188 699 175 700 161 c 2
 704 71 l 1
 733 75 763 77 796 77 c 0
 804 77 809 59 809 39 c 0
 809 15 803 -11 793 -11 c 0
 789 -11 784 -11 780 -11 c 0
 755 -11 731 -13 708 -16 c 1
 713 -132 l 1
 804 -136 l 2
 830 -137 856 -137 882 -137 c 0
 900 -137 917 -136 935 -136 c 2
 936 -136 l 2
 945 -136 950 -159 950 -181 c 0
 950 -202 945 -222 936 -222 c 0
 929 -222 923 -222 916 -222 c 0
 878 -222 839 -221 801 -220 c 0
 717 -217 634 -214 550 -210 c 0
 512 -208 474 -205 436 -205 c 0
 426 -205 416 -205 406 -205 c 0
 396 -205 390 -178 390 -153 c 0
 390 -134 393 -117 401 -117 c 2
 626 -128 l 1
 624 -92 l 2
 623 -71 623 -50 622 -29 c 1
 588 -35 555 -44 521 -51 c 1
 520 -51 l 2
 507 -51 494 -10 494 16 c 0
 494 26 496 35 501 36 c 2
EndSplineSet
Validated: 1
EndChar

StartChar: uni62CD
Encoding: 25293 25293 151
Width: 838
VWidth: 0
Flags: HMW
LayerCount: 2
Fore
SplineSet
508 -22 m 2
 508 -23 509 -23 509 -23 c 2
 509 -22 508 -19 508 -18 c 1
 508 -19 508 -20 508 -21 c 2
 508 -22 l 2
570 633 m 1
 564 575 560 518 539 473 c 0
 537 470 533 469 527 469 c 0
 504 469 458 489 458 503 c 0
 458 504 458 504 458 505 c 0
 476 544 478 596 483 646 c 0
 484 652 495 655 509 655 c 0
 535 655 570 646 570 634 c 2
 570 633 l 1
502 35 m 0
 527 28 554 26 580 26 c 0
 613 26 646 30 677 36 c 1
 677 40 677 43 677 47 c 0
 677 51 678 56 678 60 c 0
 679 101 685 143 689 185 c 1
 686 172 680 162 674 162 c 0
 636 166 597 169 557 169 c 0
 541 169 525 169 508 168 c 0
 498 168 492 195 492 219 c 0
 492 238 496 256 504 256 c 0
 517 256 529 256 542 256 c 0
 590 256 637 254 683 250 c 0
 689 249 692 241 693 229 c 1
 694 248 695 267 695 285 c 0
 695 315 693 344 686 372 c 1
 687 373 687 374 687 374 c 2
 687 375 684 376 682 376 c 0
 621 376 565 356 508 348 c 0
 491 346 473 342 456 339 c 1
 476 242 483 136 498 35 c 0
 499 35 499 35 500 35 c 0
 501 35 501 35 502 35 c 0
396 416 m 2
 604 455 l 2
 628 460 651 464 674 464 c 0
 708 464 738 455 754 428 c 0
 778 390 785 344 785 295 c 0
 785 212 764 118 764 28 c 0
 764 19 764 10 764 1 c 0
 764 -4 758 -7 749 -9 c 1
 750 -14 750 -19 750 -23 c 0
 750 -33 748 -40 743 -41 c 0
 692 -52 635 -61 578 -61 c 0
 543 -61 510 -58 477 -50 c 1
 463 -57 448 -63 438 -63 c 0
 433 -63 430 -61 429 -58 c 0
 409 -8 407 58 400 117 c 0
 397 144 394 171 390 198 c 1
 265 145 l 1
 267 80 273 16 275 -49 c 0
 275 -58 254 -63 232 -63 c 0
 210 -63 187 -58 187 -49 c 2
 182 110 l 1
 155 97 128 85 105 66 c 0
 104 65 102 64 100 64 c 0
 83 64 43 108 43 125 c 0
 43 127 43 130 45 131 c 0
 85 161 131 184 179 205 c 1
 179 207 l 1
 184 335 l 1
 144 334 104 333 64 331 c 0
 54 331 49 356 49 379 c 0
 49 400 53 420 62 420 c 0
 103 420 143 421 184 421 c 2
 187 421 l 1
 194 593 l 2
 195 599 204 602 217 602 c 0
 243 602 281 591 281 579 c 2
 281 578 l 1
 275 526 272 472 270 418 c 1
 278 418 286 418 294 418 c 0
 299 418 305 418 310 418 c 0
 322 418 332 382 332 356 c 0
 332 342 329 332 323 331 c 0
 315 330 306 330 298 330 c 0
 288 330 277 330 267 331 c 1
 266 301 266 271 265 240 c 1
 298 253 331 267 363 283 c 0
 364 283 365 283 366 283 c 0
 370 283 374 280 378 275 c 1
 372 308 365 340 357 370 c 1
 357 371 l 2
 357 379 371 386 389 391 c 1
 389 394 389 397 389 399 c 0
 389 408 391 415 396 416 c 2
EndSplineSet
Validated: 1
EndChar

StartChar: uni51AC
Encoding: 20908 20908 152
Width: 721
VWidth: 0
Flags: HMW
LayerCount: 2
Fore
SplineSet
308 307 m 1
 324 326 l 1
 362 373 398 423 426 478 c 1
 418 479 410 479 402 479 c 0
 360 479 318 467 279 457 c 0
 245 449 213 436 182 420 c 0
 181 420 180 419 179 419 c 0
 175 419 169 424 164 431 c 1
 154 401 l 1
 201 366 253 335 308 307 c 1
278 -29 m 0
 349 -48 420 -53 478 -89 c 0
 480 -90 481 -93 481 -97 c 0
 481 -117 451 -164 436 -164 c 0
 435 -164 435 -164 434 -164 c 2
 433 -164 l 1
 382 -132 316 -130 253 -113 c 0
 249 -112 247 -106 247 -98 c 0
 247 -74 263 -29 276 -29 c 0
 277 -29 277 -29 278 -29 c 0
343 123 m 0
 384 95 430 80 475 57 c 0
 478 56 479 52 479 48 c 0
 479 27 453 -21 438 -21 c 0
 437 -21 436 -21 435 -21 c 0
 389 3 341 20 297 48 c 0
 295 49 294 52 294 56 c 0
 294 76 324 124 339 124 c 0
 340 124 342 124 343 123 c 0
330 203 m 1
 280 147 227 94 168 49 c 0
 167 48 165 48 164 48 c 0
 148 48 116 95 116 114 c 0
 116 117 117 120 119 121 c 0
 149 141 175 165 200 190 c 2
 251 242 l 1
 208 264 165 288 126 314 c 1
 125 312 125 310 124 304 c 0
 123 299 116 298 106 298 c 0
 81 298 40 311 40 324 c 2
 40 325 l 1
 45 345 42 335 49 357 c 2
 104 521 l 2
 118 564 132 607 142 651 c 0
 143 656 150 658 160 658 c 0
 185 658 227 645 227 632 c 2
 227 631 l 1
 216 593 205 556 193 519 c 1
 256 542 326 559 401 565 c 0
 406 565 412 566 417 566 c 0
 452 566 490 556 505 531 c 0
 513 517 517 503 517 490 c 0
 517 463 503 437 489 412 c 0
 461 363 428 311 391 268 c 1
 438 247 l 2
 492 223 547 203 600 177 c 0
 631 162 671 148 680 108 c 1
 680 107 l 2
 680 94 638 81 613 81 c 0
 610 81 611 80 609 80 c 0
 605 80 607 81 603 82 c 1
 598 93 571 92 563 99 c 1
 330 203 l 1
EndSplineSet
Validated: 1
EndChar

StartChar: uni90FD
Encoding: 37117 37117 153
Width: 858
VWidth: 0
Flags: HMW
LayerCount: 2
Fore
SplineSet
684 464 m 1
 684 461 l 2
 684 459 685 458 687 457 c 1
 686 459 685 462 684 464 c 1
625 385 m 1
 629 311 629 235 630 159 c 1
 632 173 635 184 642 184 c 0
 649 184 649 183 651 183 c 0
 652 183 655 184 660 185 c 0
 681 190 700 202 712 220 c 0
 720 232 725 245 725 259 c 0
 725 263 725 267 724 272 c 0
 710 320 637 339 625 385 c 1
319 110 m 0
 349 122 382 126 414 129 c 2
 429 130 l 2
 439 130 444 107 444 84 c 0
 444 63 440 43 431 43 c 0
 402 43 380 40 355 30 c 0
 354 30 353 29 352 29 c 0
 338 29 314 77 314 99 c 0
 314 104 316 109 319 110 c 0
307 418 m 1
 321 446 l 1
 307 444 l 1
 307 418 l 1
437 22 m 1
 444 54 448 90 448 126 c 0
 448 134 448 142 447 150 c 0
 447 156 446 160 446 161 c 1
 447 161 l 2
 448 161 449 160 453 160 c 1
 448 162 445 162 440 162 c 0
 426 162 412 157 399 154 c 0
 374 149 348 140 325 129 c 0
 324 129 324 128 323 128 c 0
 309 128 288 169 284 192 c 1
 268 163 l 1
 281 161 290 158 290 152 c 0
 292 106 290 54 294 9 c 1
 342 11 391 15 437 22 c 1
727 553 m 0
 742 534 757 515 766 492 c 0
 770 482 772 473 772 464 c 0
 772 436 754 413 731 396 c 1
 763 373 788 344 803 308 c 0
 810 291 813 275 813 259 c 0
 813 231 803 205 788 178 c 0
 766 139 728 114 686 102 c 0
 671 98 669 97 665 97 c 0
 663 97 660 97 655 97 c 0
 652 97 649 97 644 97 c 0
 637 97 632 108 630 122 c 1
 632 35 635 -52 646 -134 c 1
 646 -146 611 -155 585 -155 c 0
 571 -155 560 -152 559 -145 c 2
 552 -47 l 1
 541 339 l 1
 531 337 l 1
 464 328 402 312 340 295 c 1
 328 273 l 1
 294 211 l 1
 336 228 384 249 437 249 c 0
 448 249 458 248 469 246 c 0
 513 239 528 205 533 164 c 0
 534 151 535 137 535 124 c 0
 535 75 527 27 517 -15 c 0
 516 -20 509 -22 500 -22 c 0
 496 -22 492 -22 487 -21 c 1
 488 -26 488 -31 488 -36 c 0
 488 -48 486 -57 480 -58 c 0
 424 -67 367 -72 308 -78 c 1
 297 -93 260 -111 242 -111 c 0
 237 -111 233 -110 232 -107 c 0
 223 -89 227 -98 222 -79 c 0
 210 -33 208 14 206 64 c 1
 164 -1 l 2
 163 -3 161 -3 159 -3 c 0
 141 -3 97 35 97 52 c 0
 97 54 97 55 98 56 c 0
 120 81 136 112 154 140 c 0
 179 179 202 220 225 261 c 1
 170 245 116 229 59 218 c 1
 58 218 l 2
 48 218 42 247 42 271 c 0
 42 289 45 304 53 305 c 0
 110 314 165 331 220 348 c 1
 221 432 l 1
 105 416 l 1
 94 416 86 449 86 474 c 0
 86 489 88 502 95 503 c 2
 222 520 l 1
 222 538 l 2
 222 556 222 574 222 592 c 0
 222 617 223 641 226 665 c 0
 227 671 236 673 247 673 c 0
 272 673 312 662 312 649 c 1
 308 613 307 572 307 531 c 1
 349 537 l 1
 367 540 l 1
 425 652 l 2
 426 654 429 655 433 655 c 0
 453 655 500 624 500 609 c 0
 500 608 500 606 499 605 c 0
 459 538 425 466 391 396 c 1
 432 405 473 414 515 422 c 1
 528 425 l 1
 529 425 l 2
 532 425 535 423 537 420 c 1
 535 440 533 460 530 480 c 1
 530 491 564 500 589 500 c 0
 604 500 616 497 617 490 c 0
 620 463 622 435 624 407 c 1
 625 413 626 420 629 427 c 0
 637 447 660 455 679 465 c 0
 681 466 681 467 682 467 c 1
 676 478 667 488 659 498 c 0
 658 499 658 500 658 502 c 0
 658 518 703 556 721 556 c 0
 724 556 726 555 727 553 c 0
EndSplineSet
Validated: 1
EndChar

StartChar: uni4F55
Encoding: 20309 20309 154
Width: 806
VWidth: 0
Flags: HMW
LayerCount: 2
Fore
SplineSet
757 408 m 1
 731 111 l 2
 723 22 706 -70 648 -116 c 0
 647 -117 645 -117 643 -117 c 0
 626 -117 588 -74 588 -56 c 0
 588 -54 588 -52 590 -51 c 0
 632 -17 642 58 647 120 c 2
 670 424 l 2
 671 430 681 432 693 432 c 0
 719 432 757 420 757 408 c 1
555 249 m 1
 556 248 558 245 561 245 c 1
 559 247 557 248 555 249 c 1
552 250 m 1
 544 253 535 253 525 253 c 0
 517 253 509 253 503 253 c 2
 502 253 l 2
 477 253 452 249 428 242 c 0
 427 242 428 242 427 242 c 0
 420 242 411 255 404 271 c 1
 403 261 403 250 403 240 c 0
 403 215 406 192 413 170 c 0
 413 169 413 169 413 168 c 0
 413 165 411 162 407 159 c 1
 433 160 458 162 484 164 c 0
 508 166 532 168 556 170 c 1
 541 181 528 194 528 203 c 0
 528 204 528 206 529 207 c 0
 537 218 546 230 550 244 c 0
 551 248 551 250 552 250 c 1
380 507 m 0
 487 526 625 528 735 530 c 0
 742 530 745 516 745 499 c 0
 745 474 738 442 727 442 c 2
 724 442 l 1
 495 435 l 1
 462 432 430 429 398 422 c 1
 397 421 l 1
 385 421 372 462 372 487 c 0
 372 498 375 506 380 507 c 0
615 177 m 1
 619 178 l 1
 620 178 l 2
 632 178 641 143 641 118 c 0
 641 105 638 94 632 93 c 2
 617 90 l 1
 375 71 l 2
 367 71 362 89 362 109 c 0
 362 120 363 130 365 139 c 1
 357 137 350 136 344 136 c 0
 337 136 331 137 330 141 c 0
 320 173 316 208 316 243 c 0
 316 271 319 301 322 330 c 0
 323 336 333 338 346 338 c 0
 365 338 390 333 402 326 c 1
 437 335 475 342 511 342 c 0
 543 342 573 337 601 322 c 0
 629 307 639 285 639 258 c 0
 639 247 638 237 635 225 c 0
 631 208 624 192 615 177 c 1
239 372 m 2
 254 233 l 2
 261 172 267 111 275 50 c 0
 280 10 282 -30 293 -69 c 1
 293 -70 l 2
 293 -83 251 -97 226 -97 c 0
 217 -97 210 -95 209 -90 c 0
 185 36 176 169 160 300 c 1
 147 275 133 250 126 223 c 0
 125 218 116 216 106 216 c 0
 81 216 40 229 40 241 c 2
 40 243 l 1
 49 279 69 311 86 344 c 0
 138 441 185 543 257 623 c 0
 258 624 260 625 262 625 c 0
 278 625 318 581 318 563 c 0
 318 561 317 559 316 558 c 0
 270 507 234 445 201 381 c 1
 205 381 209 381 212 381 c 0
 227 381 238 379 239 372 c 2
EndSplineSet
Validated: 1
EndChar

